<?xml version="1.0" encoding="UTF-8" standalone="no"?>
<!-- Created with Inkscape (http://www.inkscape.org/) -->

<svg
   xmlns:dc="http://purl.org/dc/elements/1.1/"
   xmlns:cc="http://creativecommons.org/ns#"
   xmlns:rdf="http://www.w3.org/1999/02/22-rdf-syntax-ns#"
   xmlns:svg="http://www.w3.org/2000/svg"
   xmlns="http://www.w3.org/2000/svg"
   xmlns:sodipodi="http://sodipodi.sourceforge.net/DTD/sodipodi-0.dtd"
   xmlns:inkscape="http://www.inkscape.org/namespaces/inkscape"
   width="119.86996mm"
   height="119.13778mm"
   viewBox="0 0 424.73612 422.14173"
   id="svg2"
   version="1.1"
   inkscape:version="0.91 r13725"
   sodipodi:docname="letter-b.svg">
  <defs
     id="defs4" />
  <sodipodi:namedview
     id="base"
     pagecolor="#ffffff"
     bordercolor="#666666"
     borderopacity="1.0"
     inkscape:pageopacity="0.0"
     inkscape:pageshadow="2"
     inkscape:zoom="0.98994949"
     inkscape:cx="84.20924"
     inkscape:cy="164.71312"
     inkscape:document-units="px"
     inkscape:current-layer="layer1"
     showgrid="false"
     fit-margin-top="0"
     fit-margin-left="0"
     fit-margin-right="0"
     fit-margin-bottom="0"
     inkscape:window-width="1858"
     inkscape:window-height="1058"
     inkscape:window-x="-8"
     inkscape:window-y="-8"
     inkscape:window-maximized="1" />
  <metadata
     id="metadata7">
    <rdf:RDF>
      <cc:Work
         rdf:about="">
        <dc:format>image/svg+xml</dc:format>
        <dc:type
           rdf:resource="http://purl.org/dc/dcmitype/StillImage" />
        <dc:title></dc:title>
      </cc:Work>
    </rdf:RDF>
  </metadata>
  <g
     inkscape:label="Layer 1"
     inkscape:groupmode="layer"
     id="layer1"
     transform="translate(1089.4698,-404.43502)">
    <path
       style="fill:#000000"
       d="m -674.23363,825.64545 c -1.1,-0.47269 -7.85,-0.89215 -15,-0.93214 -12.3234,-0.0689 -33.77679,-1.30835 -45.25,-2.61422 l -5.25001,-0.59755 0,-7.90499 c 0,-9.21797 -0.90622,-10.28945 -9.67507,-11.43947 -3.12205,-0.40945 -5.39795,-1.25953 -5.7369,-2.14282 -0.35314,-0.92027 2.31208,-4.51643 7.17507,-9.68124 15.31969,-16.27053 23.64523,-33.09234 27.81386,-56.19808 1.91826,-10.63247 2.65027,-42.9325 1.16123,-51.2395 -0.61396,-3.42516 -0.47523,-4.25 0.71482,-4.25 2.12449,0 3.18571,2.50711 5.10174,12.05268 2.09042,10.41437 4.88353,18.11613 7.87438,21.71292 4.64799,5.58966 4.80693,6.66236 1.58746,10.71353 -5.62222,7.07465 -5.06125,9.93226 3.03423,15.45658 2.72206,1.85752 4.94919,3.51937 4.94919,3.693 0,0.17363 -2.26039,1.28809 -5.02308,2.47656 -8.20616,3.5302 -11.83385,9.5565 -8.97191,14.90409 0.55275,1.03283 4.35894,4.19645 8.45821,7.03027 8.17169,5.64909 13.206,11.16772 16.64512,18.24647 1.96317,4.0408 2.09653,5.07871 1.0808,8.41174 -1.47105,4.82711 -7.69911,13.04813 -12.2133,16.12151 -2.87633,1.95828 -4.30619,2.271 -8.29004,1.81306 -13.48488,-1.55005 -23.32951,-14.68557 -18.29823,-24.41499 2.71165,-5.24374 11.64326,-10.91028 15.10375,-9.58237 2.05756,0.78956 1.90556,3.30089 -0.24132,3.98702 -4.5034,1.43927 -6.38581,3.02703 -8.31603,7.01435 -2.39282,4.94289 -1.98394,7.50202 1.85354,11.60114 2.51917,2.69093 7.77533,4.42841 11.71249,3.87169 2.92518,-0.41363 7.2834,-4.92292 8.59292,-8.89078 1.38582,-4.1991 0.67559,-10.39662 -1.58722,-13.8501 -4.52753,-6.90989 -20.60213,-8.49493 -26.7718,-2.63984 -3.90602,3.70685 -7.7339,11.41741 -7.7339,15.57851 0,5.07708 5.36556,14.98191 9.76543,18.02701 13.22311,9.15156 34.48213,2.31118 40.18456,-12.92992 1.11954,-2.99224 2.53512,-9.67658 3.14574,-14.85408 2.54704,-21.5967 -3.68457,-41.76328 -27.82607,-90.05005 -9.14052,-18.28245 -14.26966,-31.28707 -14.26966,-36.17981 0,-5.57814 3.51423,-15.27518 7.1219,-19.65191 4.38335,-5.31776 10.02628,-7.89615 18.49123,-8.44909 11.14125,-0.72776 17.14488,2.14919 23.25942,11.14592 4.16907,6.13424 5.1451,9.72755 3.93604,14.49087 -2.0642,8.1323 -13.28688,17.14489 -21.30859,17.11229 -9.30064,-0.0378 -17.5,-8.82942 -17.5,-18.76405 0,-4.78748 0.37902,-5.78324 3.32113,-8.72535 8.04754,-8.04754 20.67887,-4.50388 20.67887,5.80136 0,7.15533 -5.53572,10.83455 -10.77749,7.16307 -2.63895,-1.84839 -2.79492,-3.64006 -0.6075,-6.97848 0.88826,-1.35565 1.15006,-2.46482 0.58179,-2.46482 -4.58863,0 -6.87126,4.45003 -4.81141,9.37993 1.56245,3.73948 6.00048,7.62007 8.71467,7.62007 2.32064,0 8.5507,-5.42396 10.45102,-9.09878 4.85225,-9.38321 -2.99311,-19.89583 -14.85074,-19.89967 -11.91866,-0.004 -19.54944,10.42352 -17.6725,24.14927 0.59849,4.37666 4.27737,12.71951 16.31557,37 25.81347,52.06458 27.29726,56.96471 26.29841,86.84919 -0.81856,24.4903 -2.71133,42.12569 -4.50023,41.92971 -0.35287,-0.0386 -1.54159,-0.45702 -2.64159,-0.92971 z m -407.48027,-3.25 c -5.2015,-2.65752 -8.6123,-8.25331 -7.5676,-12.41576 1.5935,-6.34868 11.4721,-11.50443 17.9479,-9.3672 8.4294,2.78194 11.9726,12.75713 6.5999,18.58084 -2.6529,2.87561 -7.7359,5.45212 -10.756,5.45212 -1.0011,0 -3.802,-1.0125 -6.2242,-2.25 z m 9.0288,-9.3777 c 1.1264,-2.96266 0.2492,-5.3723 -1.9556,-5.3723 -2.3058,0 -4.093,1.96486 -4.093,4.5 0,4.68505 4.3599,5.31381 6.0486,0.8723 z m 15.9514,6.64348 c 0,-4.02543 0.5294,-5.57672 2.752,-8.06428 2.666,-2.98377 3.1695,-3.12134 16.1074,-4.40097 10.8298,-1.07111 13.7289,-1.69441 15.3304,-3.29592 1.7856,-1.78559 2.0593,-4.07431 2.8536,-23.86481 1.0039,-25.01483 1.0724,-219.58544 0.1042,-295.98679 -0.5485,-43.27918 -0.8771,-51.37422 -2.1476,-52.90914 -2.3557,-2.84594 -10.667,-6.25966 -18.4139,-7.56316 -8.247,-1.38766 -10.5861,-3.34321 -10.5861,-8.85039 0,-5.16669 1.8654,-7.19814 7.5841,-8.25905 2.7037,-0.50159 49.24092,-1.16392 103.41595,-1.47185 l 98.50001,-0.55988 14.5,5.18722 c 35.1915,12.58939 53.93399,24.62546 65.54597,42.09236 9.12183,13.72119 12.1872,25.26134 13.13017,49.43086 0.91158,23.36493 -0.78913,30.64228 -10.48571,44.86825 -8.86795,13.01029 -20.41214,22.95007 -40.41648,34.79943 -6.44932,3.82018 -12.03057,7.43853 -12.40277,8.04076 -1.06212,1.71854 2.2965,3.57069 11.56475,6.37756 19.56917,5.92647 35.22588,15.46262 48.38167,29.4682 12.16443,12.95017 21.28145,29.31908 25.31201,45.44581 2.10439,8.41986 2.91314,36.5971 1.45274,50.61364 -2.47706,23.77405 -6.92612,38.03671 -16.18129,51.87331 -12.80787,19.14798 -35.04018,34.73221 -62.83156,44.04318 -20.39294,6.83226 -43.31651,7.95702 -162.31954,7.96432 l -90.75002,0.006 0,-4.98422 z m 162.33203,-11.00901 c 33.48147,-1.14932 47.13992,-2.43363 53.80022,-5.05888 17.91825,-7.06271 35.76724,-26.57553 45.6889,-49.9479 4.85463,-11.43603 6.71311,-18.41709 8.25273,-31 1.86594,-15.24991 -0.2428,-42.40738 -4.65891,-60 -5.74234,-22.87599 -20.86276,-42.5904 -39.21881,-51.13454 -11.64981,-5.42261 -21.06599,-6.22202 -72.01547,-6.11395 -24.92564,0.0529 -47.03495,0.38597 -49.1318,0.74023 -3.80157,0.64227 -3.81417,0.6603 -4.40517,6.32618 -1.1154,10.69137 -1.8529,192.5933 -0.7871,194.12839 2.1155,3.04713 18.24032,3.57893 62.47541,2.06047 z m -56.87743,-4.46132 c -3.77068,-3.77071 -3.26658,-7.70922 1.67281,-13.06779 2.27005,-2.46271 4.44376,-4.47766 4.83048,-4.47766 1.68678,0 7.37549,9.48993 7.37549,12.30382 0,6.64249 -9.05725,10.06317 -13.87878,5.24163 z m 27.54545,-1.45279 c -7.47166,-0.68125 -9,-1.40561 -9,-4.26552 0,-6.06172 -8.2914,-13.82714 -14.76371,-13.82714 -4.65501,0 -5.53598,-1.83267 -4.26095,-8.864 0.60031,-3.31053 1.49533,-15.60793 1.98894,-27.32758 0.68696,-16.3105 1.50005,-24.21394 3.46659,-33.69595 3.17676,-15.3173 3.17509,-15.75646 -0.078,-20.54384 -2.52065,-3.70947 -2.58736,-4.12888 -1.39611,-8.7769 1.14656,-4.47364 1.05717,-5.31597 -1.0704,-10.08651 -2.09732,-4.70272 -2.35834,-6.99121 -2.70377,-23.70523 -0.21029,-10.175 -0.0694,-22.67527 0.31299,-27.77837 l 0.69534,-9.27838 3.86471,-1.97163 c 5.36736,-2.73822 13.09577,-2.58357 19.44439,0.3891 5.81872,2.72457 12.03653,7.3147 22.5,16.61002 4.125,3.66448 13.125,11.17352 20,16.68676 28.2697,22.67019 49.36437,50.4038 53.62708,70.50463 2.33593,11.01509 1.46583,34.26188 -1.57781,42.15491 -4.25924,11.04541 -19.71439,24.49479 -32.37836,28.17631 -7.12643,2.07171 -22.26926,2.10336 -29.92781,0.0625 -18.48948,-4.92697 -33.5044,-19.70538 -38.29046,-37.68732 -2.87111,-10.78716 -1.43689,-21.35627 4.55161,-33.54197 11.58588,-23.57553 36.8044,-34.96156 61.5208,-27.77631 6.76818,1.96757 8.10265,1.31958 2.82187,-1.37023 -10.81076,-5.50654 -25.36739,-6.78288 -35.94037,-3.1513 -16.59954,5.70157 -33.59542,23.73608 -38.01642,40.33962 -3.12303,11.72885 -0.724,30.61715 5.32891,41.95614 5.86665,10.99007 17.98375,20.53162 31.78096,25.02576 11.49284,3.74354 37.9818,3.88558 48.50486,0.26009 11.14546,-3.83992 27.13899,-17.46178 33.81594,-28.80139 5.1643,-8.77068 8.37312,-19.13 8.93735,-28.8533 0.81503,-14.04529 -2.0952,-23.30275 -10.25962,-32.63591 -2.47421,-2.82832 -4.49854,-5.61234 -4.49854,-6.18667 0,-0.57433 1.125,-2.70202 2.5,-4.7282 3.29267,-4.85201 3.44078,-11.93914 0.3321,-15.89118 -2.73259,-3.47393 -7.53917,-5.50976 -13.04998,-5.52733 -5.62551,-0.0179 -8.78212,-0.91786 -8.78212,-2.50368 0,-0.70624 1.1206,-3.69126 2.49023,-6.63337 2.61468,-5.61662 3.2151,-11.66286 1.48013,-14.90469 -2.72806,-5.09741 -12.50051,-6.82242 -25.72309,-4.54058 -10.8986,1.88079 -14.35989,1.96596 -19.74728,0.48593 -4.92191,-1.35216 -11.99394,-8.39765 -13.34657,-13.29647 -2.7257,-9.87166 5.07348,-18.87921 16.34657,-18.87921 6.60573,0 11.2587,2.46391 13.13549,6.95572 1.93101,4.62157 0.9849,8.6302 -2.78572,11.80297 -3.85689,3.24535 -7.86769,3.22428 -11.77304,-0.0619 -3.91178,-3.29155 -3.87549,-5.08167 0.17327,-8.54764 2.81506,-2.40986 2.97867,-2.78763 1.22251,-2.82283 -5.65024,-0.11327 -9.03141,7.04411 -6.05066,12.80823 2.13238,4.12357 4.97257,5.47949 10.23517,4.88632 10.27453,-1.15809 18.13558,-11.64867 14.21638,-18.97178 -0.9102,-1.70071 -0.80095,-2.34322 0.56871,-3.34474 1.91443,-1.39986 3.68642,-0.99552 13.50901,3.08257 5.25822,2.18309 7.66197,2.61551 12.99945,2.33855 l 6.54835,-0.33979 0.75173,6.80195 c 1.22121,11.05002 4.29947,14.90468 16.02594,20.068 l 5.77658,2.5435 -0.27658,10.39594 -0.27658,10.39594 6.75,7.16608 c 3.7125,3.94134 6.75,7.57972 6.75,8.08528 0,0.50556 -0.65176,3.75963 -1.44836,7.23126 -0.7966,3.47163 -1.93981,14.86205 -2.54045,25.31205 -1.59775,27.79754 -4.00372,39.1285 -11.20608,52.77531 -4.46957,8.46879 -16.35486,20.2402 -26.35001,26.09756 -11.77389,6.89972 -17.32627,8.66561 -30.4551,9.68599 -12.46904,0.9691 -46.52067,0.9893 -57.00001,0.0338 z m 40.71693,-27.76262 c 4.95121,-2.34951 7.27997,-6.62791 7.25561,-13.33004 -0.0252,-6.93671 -2.91334,-14.06547 -9.86728,-24.3556 -6.42547,-9.50813 -9.55473,-16.3577 -11.12917,-24.36044 -1.07648,-5.47162 -0.99116,-6.46147 0.93158,-10.80815 1.16412,-2.63169 1.90056,-5.00092 1.63652,-5.26496 -0.26403,-0.26404 -1.95699,0.10902 -3.76213,0.829 -13.66106,5.44879 -24.78206,19.14779 -24.78206,30.52689 0,10.28547 4.66508,14.14288 20.37626,16.8485 15.33974,2.64165 22.11896,7.61518 22.12219,16.22977 0.002,4.74333 -1.90943,7.37307 -7.17412,9.87133 -3.98495,1.89098 -7.43024,1.37775 -10.34977,-1.54178 -3.08223,-3.08223 -2.49135,-6.35839 1.77544,-9.84403 3.69983,-3.02249 3.71501,-3.06392 1.13486,-3.097 -1.43833,-0.0184 -3.80083,0.89913 -5.25,2.03905 -2.06056,1.62084 -2.63486,2.94293 -2.63486,6.06574 0,5.04412 1.29613,7.46169 5.31382,9.91145 3.91435,2.38675 9.72572,2.49983 14.40311,0.28027 z m 31.2821,-6.1104 c 3.16849,-2.77172 6.06765,-6.64092 8.15886,-10.88877 2.9093,-5.90964 3.23017,-7.42691 3.11089,-14.71009 -0.0731,-4.46643 -0.53206,-9.47079 -1.01981,-11.12079 l -0.88682,-3 -13.97632,-0.5 c -15.95418,-0.57076 -17.26054,-1.07595 -22.24631,-8.60308 -4.18138,-6.31273 -4.09894,-9.75592 0.33368,-13.93642 8.3602,-7.88467 21.91671,-3.19593 17.67516,6.11324 -1.24623,2.7352 -3.71309,3.07005 -6.58948,0.89446 -5.01663,-3.79439 -6.39657,0.80769 -1.48214,4.94291 3.58472,3.01634 4.06698,3.08306 7.91223,1.0946 6.05163,-3.12942 7.68074,-9.25503 4.04653,-15.21537 -2.3327,-3.82578 -8.65314,-7.29034 -13.29987,-7.29034 -4.2705,0 -12.09528,4.90141 -14.73402,9.22932 -3.93743,6.45798 -2.33639,10.71323 11.40991,30.32514 5.72869,8.17316 9.79189,15.01284 10.19497,17.16142 0.36859,1.96479 0.42118,7.74576 0.11686,12.84659 -0.30432,5.10083 -0.30342,9.52413 0.002,9.82954 0.81616,0.81615 5.67625,-2.27585 11.27369,-7.17236 z m -35.09541,-96.30202 4.59638,-0.0824 -9.4157,-4.45745 c -12.64819,-5.98773 -27.7053,-10.41609 -37.72342,-11.09462 -7.97843,-0.54039 -8.1736,-0.49864 -9.88563,2.11425 -1.34157,2.04748 -1.53926,3.38817 -0.85264,5.78227 1.61739,5.6395 4.73429,6.96063 18.52176,7.85062 6.79559,0.43866 16.36226,0.61129 21.25925,0.38362 4.897,-0.22767 10.972,-0.45102 13.5,-0.49632 z m 8.09638,-7.82904 c 0,-2.27966 -31.78389,-28.93922 -44.89892,-37.66013 -8.72686,-5.80296 -13.01503,-6.60541 -16.52761,-3.09284 -1.41541,1.41541 -2.57347,3.45222 -2.57347,4.52626 0,5.10866 15.5139,14.77078 45,28.02617 6.325,2.84339 12.625,6.04678 14,7.11864 2.66374,2.07648 5,2.582 5,1.0819 z m 41.74999,24.8313 c -2.8717,-1.67261 -4.99665,-6.79151 -4.31892,-10.40408 2.12196,-11.31102 18.56894,-8.55804 18.56894,3.10817 0,3.77587 -5.06411,8.38317 -9.17308,8.34561 -1.8298,-0.0167 -4.11443,-0.48909 -5.07694,-1.0497 z m -23,-28 c -2.18381,-1.27195 -4.74998,-6.11811 -4.74998,-8.97023 0,-1.18231 1.53,-3.67966 3.4,-5.54966 2.83107,-2.83107 4.1325,-3.4 7.77749,-3.4 2.40763,0 5.34199,0.67556 6.52082,1.50124 6.68778,4.68431 1.09805,17.54169 -7.59433,17.46835 -1.98219,-0.0167 -4.39149,-0.48909 -5.354,-1.0497 z m -26.06168,-77.9694 c 43.15952,-3.46086 61.86528,-14.24742 70.61434,-40.71932 4.95928,-15.00524 6.81226,-25.73951 6.85848,-39.73118 0.11512,-34.84886 -13.55357,-60.68357 -38.66112,-73.07203 -8.95685,-4.41945 -17.2505,-6.12069 -36.50001,-7.48707 -21.01244,-1.49151 -69.43594,-0.90839 -71.20173,0.85743 -0.7774,0.77747 -1.5589,5.19049 -1.9481,11 -0.8192,12.2319 -1.0289,143.93313 -0.2339,146.89811 0.3239,1.20804 1.3303,2.39334 2.2364,2.634 3.44384,0.91473 56.33045,0.62282 68.83564,-0.37994 z m -7.68831,-5.38628 c -18.02117,-6.54585 -19.40973,-7.63472 -21.45874,-16.82737 -2.1479,-9.63628 -5.86125,-20.86575 -11.32141,-34.23685 -6.35002,-15.55019 -8.79956,-23.07954 -10.18957,-31.32049 -2.50595,-14.85698 2.92044,-30.25856 14.89562,-42.27782 8.18108,-8.2112 10.57693,-9.44919 23.3141,-12.04696 14.6338,-2.98459 23.36255,-2.34378 33.00801,2.42327 8.89691,4.39709 19.58712,14.64171 23.3905,22.41556 2.46169,5.0315 2.58263,5.9841 2.16689,17.06768 -0.51381,13.69802 -1.40468,15.96848 -9.40458,23.96839 -7.43936,7.43935 -16.69103,11.6889 -25.38935,11.66201 -11.9901,-0.0371 -23.02394,-5.57886 -27.13414,-13.62824 -3.02262,-5.91946 -3.64128,-15.94729 -1.40013,-22.69475 2.15393,-6.48488 8.13282,-13.06866 11.86796,-13.06866 1.46016,0 2.65484,0.23721 2.65484,0.52713 0,0.28992 -1.58514,3.55307 -3.52254,7.25144 -3.92034,7.48371 -5.04633,12.37555 -4.05944,17.63612 2.82182,15.04162 27.37256,18.53936 40.55523,5.7779 8.74205,-8.46272 10.10694,-19.39484 3.98284,-31.90061 -3.49108,-7.129 -8.97351,-12.35617 -16.95608,-16.16659 -5.09612,-2.4326 -6.49135,-2.62539 -19.00001,-2.62539 -12.44509,0 -13.92978,0.20249 -19,2.59125 -7.17349,3.3797 -12.29447,8.76336 -16.55933,17.40875 -7.23957,14.67552 -6.60183,27.12058 2.306,45.00001 7.48508,15.02373 18.08952,26.4257 27.97463,30.07853 7.37593,2.72561 7.37576,2.72532 6.72987,11.30415 -0.3727,4.95024 -0.0531,10.23166 0.91277,15.08399 0.81745,4.10667 1.26842,7.81917 1.00215,8.25 -0.73661,1.19186 -2.29002,0.9178 -9.36609,-1.65245 z m -52.98371,-1.39408 c -3.68334,-3.68334 -4.51629,-9.52437 -4.51629,-31.67014 0,-13.88794 0.25576,-17 1.3971,-17 2.69434,0 16.1029,27.29149 16.1029,32.77549 0,3.22801 -2.95233,5.72451 -6.76972,5.72451 -5.51242,0 -4.83628,3.05685 1.00015,4.5217 2.20102,0.55242 3.29574,0.10597 5.7444,-2.34269 5.38094,-5.38094 4.13607,-11.75489 -8.87424,-45.43759 -2.28559,-5.91722 -4.61572,-13.11722 -5.17807,-16 -1.52679,-7.82676 -2.97374,-59.95295 -1.70691,-61.49143 0.5661,-0.6875 1.62703,-1.25 2.35761,-1.25 0.73059,0 3.56984,-0.48071 6.30945,-1.06826 6.22923,-1.33593 9.89794,-4.80105 10.31178,-9.73956 0.51753,-6.17583 1.67744,-6.39098 31.30555,-5.80689 14.3,0.28191 29.15001,1.02976 33.00001,1.6619 9.71646,1.59535 17.34186,5.90418 24.90463,14.07267 7.22568,7.80441 10.92333,14.79146 16.6518,31.46515 2.25145,6.55325 5.40981,13.97939 7.01856,16.50254 1.60876,2.52315 2.92501,5.23853 2.92501,6.03416 0,0.79564 -2.475,3.89087 -5.5,6.8783 -5.15968,5.09559 -5.5,5.73091 -5.5,10.26769 0,2.65981 0.9339,9.47619 2.07534,15.14752 2.47205,12.28259 1.71849,16.99096 -3.56494,22.27439 -3.74503,3.74503 -8.11488,4.33815 -13.96203,1.89506 -5.34754,-2.23435 -6.63451,-6.13421 -4.52754,-13.71966 1.34633,-4.84702 5.73203,-6.91218 9.47327,-4.46082 3.23712,2.12104 3.18267,5.06411 -0.15084,8.1535 -3.27872,3.03862 -2.86527,3.56606 1.63528,2.08616 4.68395,-1.54021 5.89778,-4.99488 3.51746,-10.01103 -4.6616,-9.82359 -15.32726,-7.80882 -21.09764,3.9854 -1.49881,3.06347 -3.39604,5.82741 -4.21606,6.14208 -0.82001,0.31466 -3.65428,-0.64396 -6.29838,-2.13027 -2.64409,-1.48632 -10.78715,-5.18433 -18.09569,-8.21781 -16.09021,-6.6784 -20.75586,-9.3345 -27.36541,-15.57881 -12.00457,-11.34119 -15.01274,-27.87791 -8.2184,-45.17878 3.0891,-7.866 7.62425,-12.91321 14.84552,-16.52172 8.47827,-4.23665 15.79433,-5.60964 21.98179,-4.12529 12.34993,2.9627 23.96827,15.95396 23.96827,26.80054 0,6.00945 -8.38241,21.14277 -10.52454,19.00064 -0.28176,-0.28176 0.39019,-3.3915 1.49323,-6.91054 2.58677,-8.25267 2.61721,-15.4251 0.0831,-19.5811 -3.06775,-5.03121 -11.44814,-11.10525 -16.31697,-11.82642 -8.83114,-1.30807 -19.93539,3.04251 -24.7581,9.70007 -5.39468,7.44714 -7.55885,20.57276 -4.94423,29.98651 3.91064,14.07994 22.00129,25.69028 38.4021,24.64596 8.37743,-0.53344 19.65228,-6.03865 26.90935,-13.13914 9.78992,-9.57867 15.08243,-24.5483 12.70896,-35.94671 -3.86557,-18.56415 -20.71902,-36.83532 -38.1557,-41.36538 -8.51144,-2.21128 -24.35821,-2.17153 -32.89722,0.0825 -15.02586,3.96638 -27.27695,13.40135 -33.47843,25.78286 -4.63678,9.2575 -5.88546,16.1282 -5.2273,28.76258 0.65332,12.54156 2.96587,20.62961 11.60945,40.60361 9.91142,22.90379 11.88381,33.8689 7.44418,41.38459 -2.57752,4.3634 -8.17172,7.0118 -14.81098,7.0118 -4.91371,0 -6.07718,-0.38641 -8.52063,-2.82986 z m 73.43612,-0.52181 c -4.94959,-2.24381 -8.34185,-8.96839 -7.07348,-14.02199 0.88495,-3.52592 7.58287,-9.53862 11.92973,-10.70929 5.41464,-1.45824 10.6302,1.18849 12.57648,6.38216 2.05188,5.47545 0.53498,14.33483 -2.88513,16.85045 -3.37868,2.48514 -10.70635,3.24003 -14.5476,1.49867 z m 8.5476,-8.64833 c 2.89765,-2.89765 2.63673,-6.80209 -0.50729,-7.59118 -3.64599,-0.91509 -7.79663,2.01296 -6.94146,4.89682 0.6515,2.19704 3.11983,4.69436 4.63988,4.69436 0.44488,0 1.70887,-0.9 2.80887,-2 z m -82.4066,-129.25001 c -3.95977,-3.53815 -4.3308,-7.1621 -1.04506,-10.20723 5.65763,-5.24331 13.45165,-1.74635 13.45165,6.03539 0,6.06396 -7.47568,8.57773 -12.40659,4.17184 z m 153.65793,385.52673 c -3.75313,-0.46583 -6.38461,-3.93174 -4.10458,-5.40612 3.99136,-2.58098 41.16025,-12.92778 47.04125,-13.09499 6.20845,-0.17652 8.71008,7.36459 4.12411,12.43203 -4.09702,4.52715 -31.26039,8.03021 -47.06078,6.06908 z M -1058.321,800.7588 c -1.698,-0.43681 -3.723,-1.20351 -4.5,-1.70377 -0.777,-0.50027 -7.0377,-1.13458 -13.9127,-1.40958 -14.6689,-0.58676 -14.1001,0.40672 -7.7294,-13.5 3.5748,-7.80339 4.1785,-10.14125 4.5405,-17.58363 0.381,-7.83112 0.1061,-9.48164 -3.1358,-18.82703 -1.9544,-5.63387 -3.2794,-10.99623 -2.9445,-11.91637 0.3349,-0.92014 2.0891,-4.01548 3.8982,-6.87853 8.8941,-14.0756 8.3573,-27.3047 -2.0196,-49.76411 l -3.6359,-7.86938 4.0798,-6.86729 c 7.3763,-12.41616 9.5142,-22.50212 6.8452,-32.29367 -0.5996,-2.2 -3.3356,-8.51567 -6.0799,-14.03482 l -4.9896,-10.03483 3.5154,-5.96518 c 8.1682,-13.86056 9.6696,-34.14133 3.5592,-48.07869 -4.8587,-11.08261 -4.5057,-14.00078 3.8241,-31.60838 l 5.6595,-11.96306 -4.6936,-14.19387 c -5.4679,-16.53536 -5.746,-20.63622 -2.1787,-32.12119 3.2091,-10.33167 3.1309,-13.82216 -0.5149,-23 -1.65,-4.15363 -3,-7.99035 -3,-8.52603 0,-0.53568 2.5875,-0.98286 5.75,-0.99373 3.1625,-0.0109 12.1706,-0.67299 20.018,-1.47139 7.8474,-0.7984 15.6278,-1.17969 17.2897,-0.8473 4.0121,0.80241 12.8095,8.82347 14.9699,13.64874 1.2687,2.83381 1.5105,4.80375 0.9142,7.44762 -1.981,8.78356 -12.562,18.24209 -20.4069,18.24209 -9.7732,0 -17.7652,-10.61095 -15.5131,-20.59665 1.6429,-7.28454 8.8046,-10.93587 16.4806,-8.40255 3.6695,1.21103 7.4976,6.76127 7.4976,10.87047 0,2.71083 -5.5588,7.12873 -8.9697,7.12873 -3.0161,0 -4.0205,-1.44783 -4.0456,-5.83178 -0.01,-1.46752 -0.4584,-3.34322 -1,-4.16822 -0.8753,-1.33333 -1.0941,-1.33333 -1.9694,0 -2.4287,3.69978 0.3073,11.06257 4.8029,12.92469 9.2791,3.84355 18.4031,-8.3341 13.6883,-18.26968 -2.2339,-4.70758 -7.1656,-7.6775 -13.7384,-8.27335 -10.7225,-0.97204 -18.3242,7.22504 -18.1934,19.61834 0.144,13.64934 6.9706,19.50372 25.6252,21.97587 20.3264,2.69371 21.1787,5.07228 2.3001,6.41853 -9.3686,0.66807 -15.4497,2.92899 -20.9863,7.80249 -8.7101,7.66689 -11.4502,17.69117 -7.614,27.8546 2.9831,7.90306 7.6233,12.10019 14.0618,12.71884 6.3643,0.61153 13.024,-1.77599 16.5101,-5.91889 6.3701,-7.57043 0.403,-24.85143 -8.5811,-24.85143 -3.6721,0 -12.141,5.88374 -13.3171,9.25201 -1.797,5.14658 4.7964,10.87592 10.7862,9.37259 3.7408,-0.9389 3.2769,-2.38611 -1.3596,-4.24128 -4.6689,-1.86813 -5.0098,-3.44386 -1.3651,-6.31074 4.7878,-3.76615 10.421,-1.68246 11.9529,4.4214 1.3447,5.35742 -5.7724,14.50602 -11.2847,14.50602 -3.7301,0 -11.0193,-4.55055 -12.7975,-7.98923 -3.2046,-6.19703 -1.0221,-15.40958 4.9776,-21.01077 2.3407,-2.18519 3.5807,-2.5 9.8474,-2.5 8.1351,0 15.6136,2.99757 18.9464,7.59422 2.4791,3.41925 2.5952,16.28922 0.2103,23.30073 -1.7698,5.20304 -1.6531,7.00888 0.8182,12.6544 1.4418,3.29382 1.4148,3.85961 -0.3759,7.8592 -2.534,5.65974 -2.4354,8.50951 0.5704,16.49522 3.0449,8.08944 3.1652,13.59066 0.4213,19.25881 -3.4333,7.09217 -12.8056,13.19068 -20.4213,13.28795 -11.978,0.15298 -21.3756,-10.57384 -18.4731,-21.08592 2.1281,-7.70711 13.2742,-16.37937 17.8822,-13.91324 3.1727,1.69794 7.9609,7.88195 9.1228,11.78205 1.5619,5.24266 0,8.93948 -4.6025,10.86053 -3.2663,1.36474 -3.9013,1.33834 -7.1767,-0.29837 -4.5974,-2.29733 -5.9205,-5.6278 -3.2833,-8.26501 1.4392,-1.43916 2.7838,-1.78259 5.3494,-1.36627 4.2025,0.68198 5.5188,-0.96421 2.4754,-3.09588 -5.7258,-4.01052 -12.2942,0.25103 -12.2942,7.97643 0,6.55364 1.9262,7.95515 10.9336,7.95515 8.6828,0 10.6851,-1.28061 12.579,-8.04516 1.6049,-5.73198 0.5988,-11.96454 -2.6107,-16.17238 -7.0005,-9.17808 -20.9892,-8.25746 -27.9881,1.84195 -7.2631,10.48058 -6.9382,23.93108 0.805,33.32484 4.2766,5.18828 7.531,6.48989 20.1364,8.05361 11.7366,1.45594 16.6448,2.76437 16.6448,4.43721 0,1.74995 -3.4496,2.91742 -13.3073,4.50369 -15.8797,2.55531 -22.0215,5.90183 -25.7968,14.05625 -2.3604,5.09814 -2.5437,17.01341 -0.3429,22.28212 1.9625,4.69799 5.8863,8.85549 10.6892,11.32582 5.4565,2.8065 11.5228,1.09863 17.8299,-5.01977 6.2769,-6.08905 7.9848,-11.41789 5.4565,-17.02474 -3.0625,-6.79149 -5.7734,-8.58106 -12.7961,-8.44731 -5.03,0.0958 -6.4154,0.50904 -7.9149,2.36079 -2.6269,3.2441 -2.5167,12.32402 0.1824,15.02309 2.4912,2.49115 5.1886,2.55405 7.345,0.17126 2.2728,-2.51141 2.0833,-3.17126 -0.9107,-3.17126 -5.2465,0 -8.1472,-3.88886 -5.669,-7.6003 2.6529,-3.97301 10.6051,-4.06521 14.2387,-0.16508 5.8272,6.25482 -3.0011,19.76538 -12.9154,19.76538 -9.648,0 -15.3795,-15.13488 -9.8386,-25.98017 2.8621,-5.60205 7.8394,-8.30006 15.1902,-8.23401 16.041,0.14414 24.6094,15.01624 18.5598,32.21418 -2.5255,7.1794 -2.4715,8.71791 0.4739,13.5 3.1035,5.03877 3.1109,6.83082 0.053,12.85737 -2.3615,4.65443 -2.3982,5.00956 -0.8804,8.5 6.3024,14.49287 5.805,20.57099 -2.3145,28.28245 -5.2846,5.01898 -10.0165,7.21592 -15.4034,7.15142 -5.5845,-0.0669 -9.6381,-2.05701 -13.7661,-6.7585 -6.0638,-6.90626 -5.4991,-13.48224 1.783,-20.76436 5.8147,-5.81468 8.1351,-6.01402 14.3923,-1.23635 7.1887,5.48901 8.3027,8.94645 4.3758,13.58102 -1.2177,1.43718 -3.3729,3.3499 -4.7892,4.25049 -2.451,1.55847 -2.6741,1.5289 -4.6251,-0.61305 -1.9936,-2.18877 -4.2997,-6.04227 -4.2997,-7.18475 0,-0.31116 1.2375,-0.57263 2.75,-0.58105 1.5125,-0.008 3.425,-0.46698 4.25,-1.01901 1.2949,-0.86642 1.2266,-1.21203 -0.4991,-2.52707 -2.7909,-2.12677 -6.4478,-1.41668 -8.7656,1.70207 -1.6982,2.28503 -1.8075,3.1105 -0.8113,6.12908 1.625,4.92374 4.3099,6.95021 9.9231,7.48957 4.3405,0.41707 5.2345,0.1396 8.2601,-2.56379 3.288,-2.93787 3.3928,-3.26389 3.3928,-10.55797 0,-7.21973 -0.14,-7.6709 -3.4342,-11.06966 -7.9364,-8.18834 -16.6601,-8.40397 -24.2083,-0.59838 -7.2055,7.45115 -8.4177,16.42412 -3.6163,26.76744 4.2933,9.24882 10.3548,12.80897 26.7588,15.71652 11.2916,2.0014 13,2.53965 13,4.09575 0,1.60916 -1.7535,2.15302 -9.5,2.94658 -17.7661,1.81996 -28.2993,7.18721 -33.7171,17.18064 -3.6711,6.77168 -4.272,11.12935 -2.4153,17.51608 4.2384,14.57946 19.0224,20.80339 32.1324,13.52743 5.183,-2.87653 8.9272,-9.92577 7.9732,-15.01123 -2.0061,-10.69355 -12.6318,-16.78079 -21.388,-12.25278 -2.9768,1.53934 -6.0852,6.89815 -6.0852,10.49063 0,3.53786 4.3504,7.05561 8.7045,7.03854 l 3.7955,-0.0149 -3.8893,-3.29062 c -3.4351,-2.90637 -3.7553,-3.54087 -2.7422,-5.43383 2.9747,-5.55835 10.1669,-6.96588 14.1158,-2.76249 2.9971,3.19022 3.1289,10.54071 0.2584,14.41009 -3.772,5.08464 -13.1913,6.25302 -20.3919,2.52945 -9.4516,-4.88761 -8.9628,-21.65921 0.8493,-29.1433 2.5987,-1.98207 4.9826,-2.77365 9.2917,-3.08535 7.2664,-0.5256 11.7088,0.92066 17.9279,5.83659 5.9249,4.68337 7.4392,8.61112 6.9127,17.92987 -0.4891,8.65603 -4.2251,15.15095 -11.1932,19.45896 -4.2269,2.61333 -5.8549,3.00363 -13.4735,3.23021 -4.7661,0.14174 -10.055,-0.0997 -11.753,-0.53648 z m 5.7627,-120.59352 c 14.8179,-1.63895 18.5396,-2.61364 19.4959,-5.10576 1.2941,-3.37224 -4.7476,-5.06039 -23.4873,-6.56281 -16.6815,-1.3374 -17.684,-0.96717 -17.684,6.53075 0,5.396 1.9505,7.98322 5.4392,7.2146 1.4084,-0.31031 8.7147,-1.24486 16.2362,-2.07678 z m -1.1754,-131.47868 c 15.4129,-2.76086 17.8613,-3.64049 18.6272,-6.69209 0.3445,-1.37253 0.2318,-2.88617 -0.2504,-3.36364 -0.4822,-0.47747 -5.6018,-1.16084 -11.3768,-1.51859 -5.775,-0.35776 -13.1032,-1.34785 -16.2849,-2.20022 -5.7,-1.52702 -5.8212,-1.51555 -8.2668,0.78193 -3.3557,3.1525 -5.0614,8.93741 -3.497,11.86038 1.3829,2.58396 4.7213,4.17597 7.5487,3.59977 1.1,-0.22417 7.175,-1.33457 13.5,-2.46754 z m 381.56722,183.87606 c -3.68765,-10.48563 -6.27481,-16.44166 -14.68864,-33.81537 -5.43318,-11.21898 -9.87851,-20.74566 -9.87851,-21.1704 0,-0.42475 3.0375,-1.06047 6.75,-1.41272 9.61889,-0.91266 12.06946,-1.48105 13.78598,-3.19757 3.84936,-3.84935 5.58358,1.34701 3.37577,10.11503 -0.88106,3.49901 -0.79711,4.88482 0.44096,7.27897 2.29562,4.43925 3.94914,19.39247 3.43148,31.03185 -0.42494,9.55461 -1.93781,14.80762 -3.21704,11.17021 z m -55.08316,-90.54934 c -1.58015,-3.57299 -4.969,-8.28579 -8.86354,-12.32629 -4.51401,-4.68319 -6.78791,-7.99965 -8.00417,-11.67398 -2.15626,-6.5141 -3.87026,-8.01744 -10.98257,-9.63273 l -5.75516,-1.30707 3.15811,-3.96391 c 4.51903,-5.67207 6.08341,-9.08124 6.14283,-13.38678 0.0664,-4.81456 -1.31386,-7.44366 -6.9848,-13.30409 -2.51577,-2.59982 -4.37625,-4.89507 -4.13441,-5.10055 0.24184,-0.20548 3.28101,-1.8689 6.75372,-3.69649 7.20274,-3.7906 8.8441,-6.21573 9.81858,-14.50701 l 0.67031,-5.70326 9.09855,0.7088 c 32.64273,2.54298 45.83814,8.70015 54.70349,25.52547 1.95586,3.71197 2.37107,5.9885 2.37107,13 0,9.98391 -1.83689,14.383 -8.53118,20.43089 -6.61284,5.9743 -12.10412,8.03669 -21.44482,8.05416 -7.00371,0.0131 -8.66298,-0.3523 -13.32355,-2.93401 -9.33764,-5.17255 -14.59165,-13.65109 -14.64276,-23.62946 -0.0287,-5.60944 0.41167,-7.29879 2.98997,-11.46907 7.58357,-12.26615 22.69881,-15.44388 33.76582,-7.09873 7.5681,5.70678 10.70931,15.92668 7.35948,23.94396 -2.47786,5.93035 -11.1996,11.85639 -13.04803,8.86557 -0.28441,-0.46018 0.59682,-2.9292 1.95829,-5.48671 6.63969,-12.47262 1.86703,-24.6609 -9.66134,-24.67286 -7.99522,-0.008 -13.89362,7.27944 -13.89633,17.16953 -0.002,7.0582 2.53597,10.47229 10.79435,14.52102 15.90629,7.79818 30.20556,-0.3733 30.20331,-17.26001 -10e-4,-11.01084 -8.17724,-23.35775 -17.50537,-26.43631 -6.06684,-2.00224 -17.17274,-0.84183 -23.16692,2.42061 -8.68639,4.72773 -15.32693,15.63271 -15.32693,25.16963 0,11.60704 9.69713,24.85573 21.50738,29.38445 17.09818,6.5564 37.13576,-0.37716 44.5369,-15.41101 2.89922,-5.88915 3.14189,-7.12007 2.81427,-14.27498 -0.50452,-11.01816 -4.62197,-19.21285 -14.77246,-29.40063 -9.20681,-9.24064 -15.29826,-12.49277 -32.71013,-17.46346 -18.57592,-5.30299 -24.37596,-8.65258 -24.37596,-14.07742 0,-3.86347 4.83571,-7.96651 26.83542,-22.76951 23.39628,-15.74271 31.67213,-22.58849 37.05872,-30.65497 5.85428,-8.76686 7.56222,-15.17755 7.57184,-28.42069 0.009,-12.93484 -1.43392,-16.66111 -9.05018,-23.3652 -20.41055,-17.9661 -50.49828,-12.07767 -57.85885,11.32346 -5.00405,15.90916 2.70146,34.53492 16.79545,40.59799 9.79878,4.21533 23.75548,1.3179 30.81944,-6.39815 7.94664,-8.68023 7.62277,-30.0635 -0.57958,-38.26585 -4.22917,-4.22917 -10.1736,-5.76663 -19.59225,-5.06731 -6.96513,0.51715 -7.72656,0.80394 -10.67692,4.02154 -8.4875,9.25626 -6.26314,26.59958 4.05194,31.59302 2.34104,1.13328 5.47881,2.0605 6.97282,2.0605 9.68522,0 17.3119,-10.12247 14.76186,-19.59259 -0.59441,-2.20747 -2.66226,-5.86122 -4.59522,-8.11946 -3.41035,-3.98422 -4.5515,-7.28795 -2.51736,-7.28795 1.83907,0 9.08689,7.28722 11.72488,11.78861 5.35434,9.13648 2.44512,21.55131 -6.41365,27.36969 -12.3114,8.08606 -23.70671,5.8009 -31.71058,-6.35906 -10.10011,-15.34469 -5.77027,-33.85208 9.84932,-42.09977 5.76667,-3.045 16.18697,-2.95494 23.27996,0.20121 6.37098,2.83487 12.55051,9.32568 16.11254,16.92418 2.29728,4.90052 2.65975,6.97184 2.6556,15.17514 -0.004,8.34681 -0.32748,10.11242 -2.66301,14.5451 -3.56155,6.75958 -10.75736,14.60031 -18.21398,19.84641 -6.74638,4.7464 -25.39237,13.60547 -30.13847,14.31937 -4.19489,0.63098 -6.3268,-2.07114 -7.53035,-9.54448 -2.04515,-12.69928 -10.00656,-31.7673 -18.42676,-44.13316 -3.03745,-4.46078 -5.52263,-8.51673 -5.52263,-9.01323 0,-0.4965 2.71585,-2.35026 6.03522,-4.11946 10.2103,-5.44204 12.26532,-8.84871 13.21115,-21.90055 l 0.25363,-3.5 21.50001,-0.29872 c 20.75187,-0.28833 51.87028,1.04424 55.32271,2.36906 1.47261,0.56509 1.67729,2.58792 1.67729,16.57606 0,27.67742 -2.45876,41.80403 -9.13114,52.46217 -5.71763,9.13307 -13.38508,15.96334 -35.80584,31.89633 -15.79175,11.22219 -20.06302,15.07049 -20.06302,18.07629 0,2.87087 0.42531,3.10317 17.90375,9.77842 7.7217,2.94902 16.57718,6.88703 19.67885,8.75113 6.75786,4.06147 17.58171,15.39902 22.4174,23.48133 l 3.5,5.84986 -0.038,27.02904 c -0.0209,14.86598 -0.34798,27.82626 -0.7269,28.80064 -0.6256,1.60871 -1.21971,1.4708 -6.46204,-1.5 -5.55372,-3.14729 -6.19099,-3.27159 -16.77306,-3.27159 -6.4839,0 -12.50683,0.53422 -14.67024,1.30123 -4.45366,1.57898 -9.68959,6.83803 -14.06832,14.13044 -1.79379,2.98741 -3.81443,5.60924 -4.49031,5.82629 -0.71238,0.22876 -2.30411,-2.03669 -3.78714,-5.39008 z m -51.984,-44.94636 c -15.86373,-4.85136 -23.83309,-8.42177 -22.27519,-9.97968 1.33769,-1.33768 25.01614,-9.63052 28.86941,-10.11084 12.17592,-1.51778 20.93078,11.79784 12.9827,19.74591 -3.70001,3.70001 -8.33794,3.78165 -19.57692,0.34461 z m 14.46013,-5.87349 c 1.78005,-2.14483 0.88789,-4.77606 -2.20858,-6.51367 -3.29965,-1.85163 -6.06618,-0.58854 -6.59652,3.01173 -0.6103,4.14304 6.06852,6.79932 8.8051,3.50194 z m 92.77659,-35.99377 c -9.12936,-10.20917 -33.71184,-25.06882 -45.73852,-27.64808 -2.749,-0.58955 -4.99819,-1.40619 -4.99819,-1.81474 0,-1.2985 4.29585,-4.66054 11,-8.60888 9.25685,-5.45173 20.72503,-14.57481 34,-27.04743 l 11.5,-10.80493 0.27029,20.68489 c 0.14866,11.3767 0.14866,29.90973 0,41.18452 l -0.27029,20.49961 -5.76329,-6.44496 z m -5.73671,-33.08565 c 0,-10.83035 -0.28632,-13.64126 -1.43439,-14.08182 -0.78892,-0.30273 -4.09336,1.25524 -7.3432,3.46216 -3.24984,2.20693 -7.44117,4.40967 -9.31407,4.89499 -6.73109,1.7442 -4.41876,5.40504 9.04536,14.32048 4.09954,2.71456 7.81204,4.93557 8.25,4.93557 0.43797,0 0.7963,-6.08912 0.7963,-13.53138 z m -93.50001,-97.59482 c -3.85,-1.63249 -12.175,-4.79893 -18.5,-7.03653 -14.30666,-5.06129 -19.57917,-7.65811 -18.24917,-8.98811 3.0055,-3.0055 49.07449,-3.50886 55.03469,-0.60132 2.90469,1.41698 4.69502,5.7014 3.82724,9.1589 -0.32038,1.2765 -2.38882,4.18219 -4.59653,6.45709 -4.92492,5.0748 -7.57017,5.22732 -17.51623,1.00997 z m -307.73766,0.52988 c -5.4128,-1.66463 -6.6647,-4.13965 -4.8599,-9.60815 4.8181,-14.59905 24.0975,-14.10569 24.0975,0.61665 0,4.35987 -3.1919,8.26921 -7.7955,9.54779 -4.6368,1.28781 -5.5977,1.24109 -11.4421,-0.55629 z m 11.0405,-9.02641 c 0.3849,-2.69794 -2.6163,-3.99247 -4.6172,-1.99157 -2.0375,2.03749 -0.7394,4.83193 2.0598,4.43443 1.4031,-0.19925 2.3689,-1.12175 2.5574,-2.44286 z"
       id="path3360"
       inkscape:connector-curvature="0" />
  </g>
</svg>
