<?xml version="1.0" encoding="UTF-8" standalone="no"?>
<svg
   xmlns:dc="http://purl.org/dc/elements/1.1/"
   xmlns:cc="http://creativecommons.org/ns#"
   xmlns:rdf="http://www.w3.org/1999/02/22-rdf-syntax-ns#"
   xmlns:svg="http://www.w3.org/2000/svg"
   xmlns="http://www.w3.org/2000/svg"
   version="1.1"
   id="svg2"
   viewBox="0 0 415.64896 424.70414"
   height="119.86095mm"
   width="117.30537mm">
  <defs
     id="defs4" />
  <metadata
     id="metadata7">
    <rdf:RDF>
      <cc:Work
         rdf:about="">
        <dc:format>image/svg+xml</dc:format>
        <dc:type
           rdf:resource="http://purl.org/dc/dcmitype/StillImage" />
        <dc:title></dc:title>
      </cc:Work>
    </rdf:RDF>
  </metadata>
  <g
     transform="translate(632.77682,-358.62661)"
     id="layer1">
    <path
       id="path3347"
       d="m -482.97756,782.52157 c -1.6128,-0.99676 -1.91577,-0.59197 9.27901,-12.39775 11.45667,-12.08198 15.89383,-21.41821 15.86037,-33.37183 -0.0506,-18.09927 -10.0877,-35.19993 -24.54503,-41.81872 -24.85585,-11.37938 -50.39585,2.43142 -55.61125,30.07186 -2.247,11.90893 1.6195,25.39589 9.9736,34.78891 6.3792,7.17263 8.2326,7.82758 22.1505,7.82758 11.028,0 12.3607,-0.20574 16.3051,-2.51733 8.39581,-4.92028 14.90092,-14.79557 14.93475,-22.67217 0.0143,-3.33233 -0.85529,-6.12873 -3.19517,-10.27477 -1.76815,-3.133 -3.49711,-7.75581 -3.84212,-10.27292 -0.82751,-6.0374 -4.15773,-9.8246 -10.48796,-11.92716 -9.7267,-3.23068 -21.5205,0.32625 -27.5206,8.30001 -5.6758,7.54277 -5.4075,16.99177 0.7584,26.71445 3.3626,5.30223 7.313,7.54679 13.7792,7.82917 5.7988,0.25323 13.2548,-3.84826 16.9419,-9.31952 3.22508,-4.78568 4.74034,-5.43193 7.13097,-3.0413 1.68566,1.68566 1.83018,2.46116 0.93643,5.02499 -1.37798,3.95286 -10.0304,11.7159 -16.366,14.68372 -12.5605,5.88377 -26.6861,-0.14569 -33.6948,-14.3825 -6.3367,-12.87151 -3.8656,-26.86237 6.7485,-38.2097 16.5299,-17.67186 43.83555,-12.7789 54.60414,9.78465 5.9654,12.49936 4.94146,32.10598 -2.26305,43.33322 -7.26453,11.3208 -19.03329,17.98767 -32.92539,18.65185 -7.5362,0.36031 -9.4003,0.0816 -15.5173,-2.31973 -3.8236,-1.50108 -11.9021,-6.01643 -17.9521,-10.0341 -6.05,-4.01768 -13.025,-7.86381 -15.5,-8.54696 -7.5771,-2.09142 -7.7391,-2.65792 -3.1581,-11.04335 2.3986,-4.39071 5.05,-11.41546 6.5566,-17.37166 3.2263,-12.75397 6.1332,-21.09743 12.4558,-35.75047 5.2927,-12.26619 6.3081,-15.91175 4.6652,-16.74953 -1.5964,-0.8141 -4.7546,5.9124 -17.5797,37.44218 -12.5677,30.89693 -14.6646,38.46658 -12.023,43.40242 0.6405,1.19679 4.768,4.26972 9.1722,6.82871 7.8364,4.55328 12.911,9.18372 12.911,11.78097 0,3.86764 -1.8255,4.03519 -47.5077,4.36042 l -44.2027,0.3147 -0.6242,-4.55384 c -1.2288,-8.965 1.3086,-11.24313 16.1245,-14.47674 16.6289,-3.62931 22.211,-8.12009 31.6753,-25.48252 10.931,-20.05313 19.6197,-40.83345 64.0216,-153.1163 18.2697,-46.2 39.57285,-100.03761 47.34039,-119.63913 l 14.1228,-35.63913 -5.32905,-13.36087 c -10.46531,-26.23835 -14.15571,-31.00811 -28.05974,-36.26649 -8.551,-3.23393 -13.5542,-7.19439 -13.5749,-10.74559 -0.01,-1.29183 -0.285,-3.36129 -0.6166,-4.59879 l -0.603,-2.25 36.56745,0 c 37.38144,0 45.1037,0.61636 48.0141,3.83231 0.85072,0.94004 3.77051,7.77483 6.48843,15.18843 2.71791,7.41359 16.2876,41.82926 30.15485,76.47926 13.86726,34.65 31.4273,79.2 39.02233,99 19.4276,50.64718 51.63732,132.46382 58.46173,148.5 7.36409,17.30432 15.59161,33.43779 21.74023,42.63074 7.61095,11.37932 15.03843,16.23249 24.98496,16.32537 13.67544,0.12769 18.79922,3.55462 18.79922,12.57346 l 0,5.25986 -15.25,0.66732 c -8.3875,0.36703 -29.79825,0.75191 -47.57945,0.85529 l -32.32945,0.18796 -2.3215,-2.69061 c -2.33805,-2.70979 -5.39617,-10.13165 -16.09425,-39.0597 -6.87443,-18.58872 -8.36258,-19.24331 -6.7549,-2.97126 1.1748,11.89072 2.54967,15.43272 9.92445,25.56784 5.24623,7.20986 5.77865,10.19309 1.6551,9.27382 -1.5125,-0.33719 -6.575,-0.89574 -11.25,-1.24122 -7.84148,-0.57949 -9.71437,-0.3086 -24.17475,3.49649 -8.62112,2.26855 -17.49834,4.12464 -19.72717,4.12464 -5.43336,0 -16.19259,-4.16497 -22.25465,-8.61493 -20.14862,-14.79045 -22.16189,-44.65353 -4.14645,-61.50486 15.16104,-14.18138 40.39888,-10.81213 49.58651,6.61979 2.5993,4.93174 3.6018,21.47198 1.7277,28.50554 -2.37737,8.92233 -15.53518,17.99446 -26.09836,17.99446 -9.32898,0 -18.91283,-8.84275 -18.91283,-17.45034 0,-4.41296 1.63615,-4.58265 5.48191,-0.56855 1.57085,1.63962 4.57671,4.17352 6.67971,5.63089 5.03965,3.49249 11.28321,2.9894 16.66308,-1.34265 8.91915,-7.182 10.87445,-18.39135 4.9253,-28.23583 -3.9156,-6.47943 -8.91954,-9.44309 -15.76951,-9.33976 -5.53498,0.0835 -8.19442,1.31344 -13.21379,6.11111 -2.48547,2.37569 -4.23687,5.30064 -5.2399,8.75095 -0.82863,2.85039 -2.21582,5.77113 -3.08264,6.49052 -5.25834,4.36404 -5.59149,13.23766 -0.82574,21.99391 4.83069,8.87556 12.26917,12.96019 23.59946,12.95896 8.83401,-9.6e-4 17.33368,-3.55077 23.6674,-9.88449 12.91709,-12.91709 13.57119,-34.76581 1.53047,-51.12197 -3.39971,-4.61818 -5.64453,-6.47235 -11.06913,-9.14287 -6.31973,-3.1112 -7.48295,-3.34544 -16.32559,-3.28758 -12.04416,0.0788 -18.74632,2.50605 -26.50851,9.60025 -14.00767,12.80222 -18.50577,37.909 -9.8832,55.1645 1.6442,3.29038 6.05191,8.53927 12.11155,14.42295 l 9.52663,9.25 -5.96427,0 c -5.89397,0 -8.92171,-1.10054 -17.93882,-6.5205 l -3.13558,-1.88472 -7.86442,4.61273 -7.86441,4.61273 -5.21167,-5.0881 c -5.76495,-5.62827 -5.75918,-5.62818 -13.18937,-0.2086 -4.59602,3.35234 -14.64579,5.9926 -17.08106,4.48752 z m 41.31006,-14.05439 c 3.65093,-2.87182 4.12469,-7.15185 2.17085,-19.61178 -1.8203,-11.60838 -1.66318,-14.5932 1.62371,-30.84489 2.21471,-10.95038 2.83663,-33.93071 1.04439,-38.59088 -0.98664,-2.56546 -1.13128,-2.59735 -14.73977,-3.25 -20.00098,-0.95923 -72.21754,-0.80728 -72.84744,0.21198 -0.9369,1.51586 7.1456,2.15033 35.4203,2.78047 18.0241,0.40169 28.78946,0.25126 31.24214,-0.43657 2.75858,-0.77361 3.93907,-0.74266 4.49139,0.11778 0.41208,0.64197 1.07001,16.69222 1.46206,35.66722 0.82021,39.69793 1.74117,51.16765 4.33898,54.0382 2.21212,2.44436 2.58898,2.43906 5.79339,-0.0815 z m 85.20712,-78.70667 c -1.14654,-4.62496 -4.73154,-11.82613 -5.2295,-10.50446 -0.39896,1.05891 2.07551,10.19551 3.38659,12.50446 1.12073,1.97373 2.46607,0.51372 1.84291,-2 z m -39.03508,-9.20659 c 11,-0.60356 21.575,-1.37684 23.5,-1.7184 3.34363,-0.59329 3.3883,-0.65464 1,-1.37334 -2.99414,-0.90101 -55.15251,-1.21411 -57.41821,-0.34468 -4.51984,1.73442 2.00847,5.5874 8.41821,4.96838 2.475,-0.23902 13.5,-0.9284 24.5,-1.53196 z m -54.5,-26.01262 c 0,-0.53306 -0.8718,-2.67056 -1.93733,-4.75 -1.91561,-3.73841 -1.91567,-3.88167 -0.005,-12.78079 2.16081,-10.066 1.83781,-15.50205 -1.32512,-22.30161 -4.63423,-9.96253 -20.27752,-15.93517 -31.00569,-11.83804 -8.39306,3.20535 -14.28436,15.21617 -11.84316,24.14509 1.7433,6.37619 4.7908,10.44417 9.38732,12.53074 8.03054,3.64544 15.08222,1.63055 19.26344,-5.50416 2.87088,-4.89878 3.14706,-9.57032 0.80063,-13.54252 -5.3839,-9.11421 -19.25813,-4.18895 -14.29955,5.07624 1.39179,2.60057 2.83123,2.43643 6.1004,-0.69564 5.73733,-5.4967 8.21132,0.88734 2.753,7.10402 -3.75803,4.28016 -6.72431,5.18216 -10.53088,3.20227 -9.92436,-5.1619 -11.66096,-15.88173 -3.77737,-23.31692 5.62637,-5.30635 16.42796,-6.1756 23.05537,-1.85536 4.97653,3.24408 8.5657,16.32558 6.33431,23.08677 -1.67159,5.06497 -8.30875,12.04034 -14.38754,15.1207 -4.98874,2.52798 -5.017,2.53018 -15.54015,1.20871 -5.79828,-0.72814 -15.15418,-1.34558 -20.79088,-1.37209 -5.6367,-0.0265 -10.2492,-0.22685 -10.25,-0.44521 -8e-4,-0.21835 1.5932,-2.34306 3.5422,-4.72157 4.8873,-5.96423 7.1145,-11.5041 8.3953,-20.88142 1.4193,-10.39139 4.7694,-17.11885 11.6619,-23.41815 6.0665,-5.5445 12.56212,-8.1126 20.33066,-8.03796 5.96946,0.0574 10.65349,1.79928 18.38698,6.83785 3.47653,2.26504 7.25295,4.11826 8.39205,4.11826 1.1391,0 4.25772,-1.56859 6.93028,-3.48576 8.16772,-5.85915 10.54032,-6.81605 18.11894,-7.30762 17.37672,-1.1271 30.30568,10.7733 33.31647,30.66597 1.3845,9.14751 3.9875,16.8576 7.36811,21.82432 l 2.58858,3.80309 -11.26645,0.79629 c -14.7279,1.04094 -27.53397,0.39733 -31.2994,-1.57305 -3.77693,-1.97639 -8.75255,-7.25061 -10.95006,-11.6072 -5.59813,-11.09836 2.80865,-27.13549 14.30781,-27.29419 4.92625,-0.068 11.8408,3.63083 13.77323,7.36773 2.91084,5.62895 0.971,15.36515 -3.54265,17.78078 -4.64913,2.48794 -11.05575,-0.13549 -11.05575,-4.52706 0,-2.02803 0.4917,-2.4433 2.89301,-2.4433 3.42025,0 4.38793,-1.79864 2.74746,-5.10673 -1.70496,-3.43814 -5.95216,-3.67249 -9.12135,-0.5033 -3.90983,3.90983 -2.99999,10.37614 2.23159,15.86003 2.1146,2.21658 3.50854,2.74927 7.18638,2.74626 8.91056,-0.007 15.05248,-6.4029 15.05917,-15.68116 0.005,-6.51404 -1.26754,-9.91473 -5.30759,-14.18721 -5.93119,-6.27241 -15.93835,-8.86974 -23.37357,-6.06656 -3.04722,1.14885 -8.76752,6.21987 -10.64718,9.43867 -0.713,1.22098 -1.36783,9.01121 -1.68116,20 -0.28227,9.9 -0.73227,18.63551 -1,19.41224 -0.33911,0.98387 0.72654,1.67817 3.51324,2.28898 4.73795,1.0385 62.00092,0.63473 63.07833,-0.44477 1.195,-1.19733 -0.80726,-6.83044 -19.28524,-54.25645 -9.64302,-24.75 -22.9066,-58.92316 -29.47462,-75.94036 -18.25167,-47.28855 -23.88616,-60.55964 -25.7117,-60.55964 -2.25241,0 -14.59695,29.08019 -34.64556,81.61498 -8.58151,22.48676 -21.18321,54.83502 -28.00381,71.88502 -6.8205,17.05 -12.5262,32.10055 -12.6792,33.44566 -0.2471,2.17223 0.2249,2.53915 4.2218,3.28193 10.206,1.89665 69,3.43314 69,1.8032 z m -2.05422,-60.87947 c -8.63172,-5.53086 -9.01729,-6.69196 -5.36875,-16.1673 1.65514,-4.29846 1.65391,-4.69508 -0.0255,-8.23424 -1.84735,-3.893 -6.28999,-7.2408 -11.64798,-8.77745 -2.8396,-0.81439 -3.51604,-0.55981 -6.53548,2.45963 -3.83117,3.83117 -4.2034,6.31607 -1.45412,9.70726 2.41409,2.97772 3.50307,1.92357 3.5496,-3.43607 0.0361,-4.16033 0.072,-4.20139 3.52192,-4.0301 10.3668,0.51472 10.19394,15.39528 -0.21507,18.5139 -3.50311,1.04955 -4.46305,0.95582 -7.60867,-0.74293 -5.24527,-2.83263 -8.16173,-7.70097 -8.16173,-13.62402 0,-5.91231 1.97402,-10.96465 5.59531,-14.32075 2.42889,-2.25102 3.52648,-2.49925 11.05071,-2.49925 6.30684,0 8.35398,-0.32766 8.35398,-1.33713 0,-0.73542 -0.67235,-5.79792 -1.4941,-11.25 -3.09241,-20.51703 -1.9252,-28.05437 8.37436,-54.07808 5.89063,-14.88375 7.4892,-17.09004 9.19707,-12.69348 4.64274,11.95176 7.06812,19.3626 9.44949,28.87332 2.60697,10.4117 2.72299,11.85641 2.22436,27.69782 -0.36863,11.71159 -0.18567,17.13984 0.61138,18.13895 0.62559,0.78419 2.76025,1.70919 4.74369,2.05555 7.61352,1.32951 17.89375,11.14973 17.89375,17.09305 0,2.12525 -4.32435,9.9457 -7.38531,13.3561 -3.65225,4.06918 -6.33047,4.50051 -10.98986,1.76992 -6.20726,-3.63769 -7.80807,-5.82744 -7.44104,-10.17858 0.22977,-2.72405 1.08044,-4.31699 3.11204,-5.82757 2.57911,-1.91767 3.00544,-1.96168 5.5,-0.56779 1.80819,1.01036 2.8125,2.49455 3.03112,4.47946 0.42925,3.8973 1.69017,5.1141 3.63067,3.50363 1.78705,-1.48312 2.02729,-6.2606 0.46189,-9.18557 -2.14422,-4.00651 -11.48114,-6.10736 -17.30405,-3.8935 -1.78575,0.67894 -2.83692,2.15261 -3.62617,5.08368 -1.30826,4.85852 -0.63564,8.68869 2.68184,15.27155 1.43281,2.84309 2.17203,5.60745 1.80704,6.75745 -0.56808,1.78987 -8.90481,8.93122 -10.42619,8.93122 -0.36323,0 -2.66102,-1.28191 -5.1062,-2.84868 z m 6.72444,-46.22516 c 1.76197,-3.65301 4.32978,-17.18165 4.32978,-22.81164 0,-7.23287 -1.91747,-19.86778 -3.68584,-24.28738 -4.4541,-11.13188 -9.31416,2.53784 -9.31416,26.19759 0,18.44023 4.55774,29.42764 8.67022,20.90143 z m 196.82978,208.74776 c -4.79796,-1.87748 -5.99347,-2.88083 -9.73938,-8.17392 -9.71694,-13.73037 -38.74672,-79.3756 -51.74,-117 -11.88206,-34.40665 -11.14497,-44.90086 5.29748,-75.422 9.75211,-18.10228 11.03136,-21.82054 10.20262,-29.65488 -0.47079,-4.45055 -0.29196,-6.35486 0.66823,-7.11554 0.72108,-0.57126 5.55223,-2.24096 10.73589,-3.71046 12.88759,-3.65346 22.16821,-8.76091 30.80179,-16.9513 19.54283,-18.53967 26.66435,-44.07961 19.81738,-71.07116 -3.56624,-14.05853 -8.37359,-23.33967 -16.52257,-31.8987 -12.43731,-13.06313 -24.77255,-18.48381 -44.13154,-19.39344 -13.50099,-0.63438 -22.69874,0.97535 -32.75956,5.73336 -12.65707,5.98585 -24.58106,17.71137 -31.61343,31.08723 -12.21925,23.24153 -7.17946,54.24941 11.94231,73.47642 8.06008,8.10445 14.72653,11.6977 25.03175,13.49228 7.40986,1.29037 23.91337,0.66958 32.89923,-1.23753 18.13083,-3.848 35.08337,-20.85583 39.70477,-39.83428 4.52693,-18.59048 -2.31993,-41.33986 -15.95035,-52.99664 -16.1248,-13.78998 -40.73019,-16.35768 -59.48398,-6.20746 -13.61086,7.36668 -25.8179,30.50497 -24.39164,46.23404 0.57267,6.31557 5.0282,18.48905 7.84793,21.44228 2.48224,2.59976 2.45253,0.92674 -0.12983,-7.31131 -4.95937,-15.821 -0.32839,-36.53901 10.63065,-47.55927 10.95796,-11.01918 25.69094,-15.0008 40.92215,-11.0593 19.23598,4.97785 34.40554,24.57272 34.44823,44.49756 0.0572,26.71727 -23.80139,48.9601 -52.51673,48.9601 -28.07573,0 -49.49686,-23.3017 -49.45953,-53.80162 0.0214,-17.4567 4.90155,-29.35892 16.8923,-41.19838 11.01467,-10.87571 21.53211,-15.59085 37.09583,-16.63067 19.24554,-1.28581 37.99773,6.75182 50.5666,21.67402 4.44863,5.28158 10.68596,18.25062 12.46748,25.92321 1.63973,7.06188 1.64154,22.87071 0.004,30.53185 -2.67406,12.50668 -10.13475,23.98666 -22.29162,34.30079 -8.52485,7.23263 -16.08846,10.73169 -31.1507,14.41083 -7.03223,1.71771 -13.01001,3.70718 -13.28394,4.42104 -0.27394,0.71387 0.4896,2.68499 1.69674,4.38026 5.05333,7.09675 3.42336,15.97951 -6.72042,36.62398 -6.50698,13.24289 -9.43146,20.91545 -12.8126,33.61469 -0.842,3.1625 -1.93113,5.75 -2.42028,5.75 -1.26425,0 -3.70878,-7.03087 -6.08448,-17.5 -2.64302,-11.64714 -4.65757,-16.95341 -11.45045,-30.1602 -4.26416,-8.29041 -5.93128,-12.8389 -7.08843,-19.3398 -1.06381,-5.97646 -3.0372,-11.68914 -6.64694,-19.24193 -2.82367,-5.90806 -4.87671,-10.99917 -4.5623,-11.31357 0.3144,-0.3144 3.28458,1.59446 6.6004,4.24193 3.31582,2.64746 11.9758,7.96357 19.2444,11.81357 15.11793,8.0076 18.85126,11.59491 19.67529,18.90572 0.63724,5.65356 -1.28952,8.95973 -6.15787,10.56643 -4.69109,1.5482 -7.58439,0.0293 -7.58439,-3.98165 0,-2.2543 0.69902,-3.30062 3,-4.4905 3.28352,-1.69798 3.61357,-2.48643 1.8,-4.3 -4.76802,-4.76802 -11.94904,3.81908 -9.81652,11.73865 1.45848,5.41639 4.28085,7.56135 9.94935,7.56135 6.18839,0 10.99317,-3.60549 14.58314,-10.94312 2.44091,-4.98904 2.56345,-5.7872 1.4214,-9.2583 -1.83221,-5.56871 -10.93221,-13.84146 -23.23916,-21.12656 -24.05864,-14.24123 -33.16756,-24.06051 -38.65782,-41.67202 -1.73456,-5.56408 -4.98111,-27.02109 -5.03089,-33.25 -0.0199,-2.48903 -3.96938,-5.25 -7.50999,-5.25 l -3.5,0 0,-6.05218 0,-6.05217 -6.85478,-7.24222 c -9.17547,-9.69408 -9.58895,-10.58537 -9.58122,-20.65343 0.007,-9.38579 1.16682,-12.57698 6.51292,-17.92308 6.48687,-6.48686 7.00026,-6.58706 33.18921,-6.47746 13.07137,0.0547 24.03296,0.3663 24.35909,0.69243 0.32613,0.32613 -0.38167,1.9617 -1.57288,3.6346 -2.48552,3.49059 -24.62078,24.02395 -30.4512,28.24748 -6.80698,4.93096 -14.25226,3.2986 -17.20677,-3.77254 -1.9274,-4.61292 -1.77605,-5.79438 1.19452,-9.3247 2.94505,-3.49999 8.12997,-4.21501 10.84887,-1.49611 1.99853,1.99853 1.32134,3.07537 -3.09422,4.9203 -4.19463,1.75264 -3.96505,3.87295 0.46681,4.3112 6.97251,0.68948 10.73295,-7.9961 5.65879,-13.07025 -7.6931,-7.69311 -20.96914,-1.26392 -20.96914,10.15473 0,8.91854 7.5013,16.32635 16.46211,16.25694 7.02428,-0.0544 12.35531,-3.24417 25.32763,-15.15454 12.63116,-11.59713 22.12101,-17.78741 33.21026,-21.6632 7.45673,-2.6062 9.05259,-2.79361 23.5,-2.75965 12.29911,0.0289 18.62513,0.5927 30.63315,2.73014 18.79147,3.34489 21.09276,3.343 33.90915,-0.0279 5.69128,-1.4969 10.66433,-2.40507 11.05123,-2.01817 0.3869,0.3869 -0.79624,4.42413 -2.62921,8.97163 -3.11381,7.72518 -3.33088,9.0234 -3.30535,19.76817 0.0193,8.12281 0.67907,14.43669 2.24664,21.5 3.76879,16.98177 4.3462,22.51524 3.86095,37 -0.74727,22.30552 -4.7896,31.2035 -24.71602,54.40488 -17.57443,20.46284 -20.05054,24.6703 -20.05054,34.07032 l 0,5.8811 -5.53751,2.07185 c -3.04563,1.13952 -5.98559,2.07185 -6.53325,2.07185 -2.43905,0 -11.63522,5.57767 -16.21399,9.83413 -26.76755,24.88332 -18.74112,67.51873 14.1518,75.17264 10.08041,2.34563 21.70938,-0.53724 33.24771,-8.24224 10.5721,-7.05978 14.39606,-15.38217 13.67616,-29.76453 -0.51641,-10.31696 -2.80051,-15.95777 -9.25643,-22.85967 -14.16986,-15.14874 -39.36741,-11.9964 -48.66916,6.08874 -3.05523,5.9402 -3.77217,18.05764 -1.36815,23.12375 1.47271,3.10351 2.55168,3.89622 7.10477,5.21984 2.95259,0.85834 7.22123,3.10865 9.48585,5.00069 4.80067,4.01085 7.52815,4.87563 13.04411,4.13578 12.08578,-1.62104 19.49395,-15.68154 13.96862,-26.51207 -4.04216,-7.92329 -11.04163,-12.73656 -17.30071,-11.89704 -8.25377,1.10707 -15.68011,10.79348 -14.40218,18.78522 0.77462,4.84422 -1.40779,6.34906 -4.59113,3.16572 -2.87019,-2.87019 -3.50146,-10.14273 -1.36583,-15.73482 2.36225,-6.18546 10.06512,-12.95821 16.49107,-14.49977 16.28883,-3.90763 32.26702,9.73579 32.40958,27.67382 0.0418,5.26081 -0.52341,8.06088 -2.48486,12.30981 -4.80112,10.40035 -13.4889,16.46404 -26.21589,18.29754 -6.39685,0.92156 -7.99486,0.78965 -14.54839,-1.20092 -6.13768,-1.86426 -8.22896,-3.10296 -12.57341,-7.4474 -6.57164,-6.57164 -9.46497,-13.84221 -10.23561,-25.72074 -0.67799,-10.45051 0.32436,-13.87791 6.43648,-22.00884 8.44044,-11.22826 18.99685,-17.32169 32.12183,-18.54152 l 6.86173,-0.63773 -0.44782,-11.6202 -0.44782,-11.62019 3.26939,-4.86917 c 8.70964,-12.97148 20.95164,-14.3263 29.39735,-3.2534 7.23503,9.48562 2.11234,23.07712 -8.69786,23.07712 -6.6943,0 -10.59117,-6.16153 -8.35427,-13.20936 0.95405,-3.00596 2.02574,-2.82926 4.57782,0.75481 2.62302,3.68369 4.57418,3.83274 5.43199,0.41496 0.93853,-3.73942 -0.16288,-6.22444 -3.53071,-7.96601 -2.67495,-1.38327 -3.22098,-1.37317 -5.72484,0.1059 -4.74599,2.80352 -7.17915,7.39712 -7.15448,13.50703 0.0293,7.24283 1.93614,11.05295 12.98147,25.93812 13.12875,17.69286 13.50475,18.65667 13.45918,34.5 -0.0333,11.59269 -0.33104,13.80372 -2.75,20.42433 -1.49194,4.08338 -2.71261,8.00274 -2.71261,8.70969 0,0.70695 1.8,2.95079 4,4.98631 4.6048,4.26052 4.76433,4.93717 1.88631,8.00069 l -2.11369,2.24991 2.75207,7.01455 c 2.78636,7.10198 2.8036,7.46617 0.84871,17.92872 -0.40447,2.16473 -0.0219,4.63888 1.10304,7.13355 1.6319,3.61891 1.63098,3.95868 -0.0176,6.47474 -1.45121,2.21482 -1.62975,3.97605 -1.07608,10.61497 0.50178,6.01679 0.24955,9.51421 -1.03338,14.3289 l -1.69719,6.36932 2.67391,5.11375 c 1.47065,2.81257 2.67391,5.37045 2.67391,5.68418 0,0.31374 -1.31392,1.02846 -2.91983,1.58829 -3.85048,1.34228 -4.35071,3.01455 -2.98233,9.96991 1.93771,9.84914 -0.73821,16.6065 -7.73362,19.52937 -3.95599,1.65292 -12.70499,1.68028 -16.86422,0.0527 z m 10.90792,-11.93348 c 2.20147,-6.16055 -5.82777,-21.53506 -30.93792,-59.24044 -16.11606,-24.19985 -22.35535,-32.33229 -22.42837,-29.23369 -0.14273,6.05612 33.53456,76.84988 41.65068,87.55481 4.28593,5.65302 9.86751,6.091 11.71561,0.91932 z m 4.03538,-43.96295 c 4.99243,-7.1277 -2.30964,-16.35846 -27.99502,-35.38934 -8.79291,-6.51487 -16.67257,-11.38815 -18.41361,-11.38815 -4.16537,0 30.65666,41.56287 39.46533,47.10501 3.87392,2.43736 5.04541,2.3821 6.9433,-0.32752 z m -0.4433,-36.77749 c 1.99878,-1.99878 2.5519,-5.39819 1.37667,-8.46081 -1.38277,-3.60343 -13.29359,-7.63363 -27.84104,-9.42042 -9.0336,-1.10955 -11.71326,-0.43925 -9.01817,2.25583 5.23877,5.23878 27.50232,17.6254 31.67964,17.6254 0.9916,0 2.7029,-0.9 3.8029,-2 z m -68.02043,-183.25 c 6.25646,-3.1969 8.53722,-6.72776 8.44643,-13.07599 -0.0863,-6.03281 -2.97111,-12.29126 -10.91252,-23.67401 -7.42394,-10.64102 -7.78169,-11.53155 -8.43058,-20.98579 -0.49272,-7.17892 -0.86685,-8.54703 -2.4183,-8.84328 -2.25401,-0.43041 -9.7693,7.15381 -12.6138,12.72949 -4.7718,9.3535 -3.57562,16.78582 3.70287,23.00728 l 4.60916,3.93979 -1.82185,6.01716 c -2.17661,7.18885 -1.64171,12.00344 1.84086,16.56932 2.64783,3.47148 7.8217,6.50601 11.15627,6.54326 1.12096,0.0125 4.01962,-0.98973 6.44146,-2.22723 z m 26.52873,-7.09732 c 6.26026,-6.53357 8.87736,-12.6271 8.20812,-19.1114 -0.81986,-7.94362 -3.74783,-12.86574 -9.16925,-15.4141 -2.50094,-1.17559 -4.54717,-2.37805 -4.54717,-2.67214 0,-0.29409 0.9,-2.29886 2,-4.45504 3.4876,-6.83626 1.93714,-14.34072 -3.47206,-16.80532 -3.64975,-1.66293 -12.05162,-1.49235 -15.54796,0.31567 -3.62722,1.87571 -4.97998,4.31328 -4.97998,8.97357 0,4.56056 1.83006,8.11162 9.02705,17.51608 7.95997,10.40147 8.98639,12.83073 10.07418,23.84273 0.52468,5.3115 1.15242,10.21977 1.39498,10.90727 0.78223,2.21712 2.75484,1.34579 7.01209,-3.09732 z m -349.5206,278.62073 c -5.7426,-5.74259 -6.0195,-7.37932 -3.4875,-20.61138 2.1278,-11.12002 1.9622,-13.87898 -1.0002,-16.66203 -2.9219,-2.74502 -3.0896,-4.17048 -0.8862,-7.5333 1.7622,-2.68943 1.5311,-5.41003 -1.0451,-12.30734 -1.5004,-4.01697 -1.4967,-4.78475 0.05,-10.29632 1.4126,-5.03457 1.4756,-6.54783 0.4075,-9.78436 -1.0068,-3.0504 -1.0132,-4.58748 -0.032,-7.56153 1.6256,-4.92548 1.6162,-21.53029 -0.016,-28.76883 -1.0742,-4.76329 -1.0656,-6.45313 0.05,-9.83364 1.0982,-3.32777 1.1133,-4.667 0.082,-7.24833 -1.9277,-4.82292 -2.4999,-19.14522 -1.1655,-29.17298 1.5788,-11.86393 3.9519,-15.99362 17.3849,-30.25309 6.0059,-6.37539 11.5388,-13.07312 12.2953,-14.88383 4.7694,-11.41473 -2.7783,-25.23967 -13.0893,-23.9753 -5.2753,0.64687 -6.8082,2.86496 -6.2451,9.03672 0.5747,6.29913 3.7834,9.08701 7.6457,6.64303 1.8826,-1.19124 -0.1201,-3.80402 -3.2583,-4.25087 -1.3921,-0.19821 -2.2953,-1.14137 -2.5042,-2.61507 -0.9762,-6.88637 8.7785,-7.05663 12.3164,-0.21498 4.5892,8.8744 -2.7123,17.33792 -12.9629,15.02604 -5.4513,-1.22948 -8.5143,-3.72373 -10.7335,-8.74063 -1.7597,-3.97819 -1.8656,-5.08046 -0.8221,-8.56311 1.7246,-5.75651 8.4625,-12.38058 14.0677,-13.83025 5.6983,-1.47374 10.4168,-0.61389 15.8055,2.88025 7.1153,4.61364 11.0752,16.69127 9.251,28.21543 -0.476,3.00724 -0.66,6.00318 -0.4088,6.65764 0.4845,1.26267 9.2795,5.37411 11.4989,5.37544 2.2232,10e-4 13.134,5.53777 16.4799,8.36237 4.0108,3.38583 7.6639,9.6092 9.7256,16.56834 4.9681,16.76946 -2.7907,34.30392 -18.3401,41.44803 -6.7993,3.12393 -20.8448,3.00859 -27.0508,-0.22213 -5.4906,-2.85831 -8.542,-5.56136 -11.4661,-10.1574 -7.9883,-12.55548 -5.7132,-28.06906 5.4053,-36.8577 5.7507,-4.54569 9.7714,-5.65839 17.5467,-4.85591 11.9184,1.23009 20.5141,9.23531 20.5141,19.10493 0,7.48934 -1.78,7.08798 -7.3311,-1.65301 -4.3808,-6.89827 -8.5888,-9.72946 -14.4686,-9.73457 -8.0555,-0.007 -14.09,5.19972 -16.1948,13.97318 -2.2793,9.50139 1.0735,18.50371 7.9058,21.22712 6.4507,2.57125 9.4535,2.72816 13.9707,0.73 5.8036,-2.5672 17.7006,-12.22616 19.6122,-15.92278 2.1214,-4.10241 1.9157,-14.51208 -0.387,-19.582 -5.2399,-11.53671 -24.3151,-17.49243 -37.358,-11.664 -6.4956,2.90269 -15.2985,11.42095 -17.1436,16.58937 -2.1059,5.89892 -2.8747,17.2922 -1.5756,23.34966 3.2635,15.21737 18.9395,25.36564 37.0274,23.9708 15.7506,-1.21459 25.9795,-7.90077 32.6092,-21.31503 3.1389,-6.35107 3.7641,-8.73578 4.133,-15.76298 1.0868,-20.70594 -11.0709,-37.51881 -31.5615,-43.6463 -2.344,-0.70096 -4.7689,-1.88538 -5.3885,-2.63206 -0.6197,-0.74667 -1.5049,-5.45559 -1.9671,-10.46426 -1.011,-10.95709 -1.873,-12.60254 -15.9362,-30.4225 -12.5833,-15.94472 -14.7927,-19.16134 -19.2448,-28.01854 -7.3813,-14.68478 -8.9764,-29.56318 -6.3162,-58.91342 2.2659,-25.00037 2.289,-50.31063 0.056,-61.19195 l -0.4499,-2.19195 7.2538,2.46717 c 11.9073,4.04992 16.2407,4.32569 41.7552,2.65725 44.0425,-2.88002 58.5087,0.6936 83.1391,20.538 5.1485,4.14811 11.71215,8.58425 14.58591,9.85809 3.93422,1.7439 5.3925,2.9834 5.90299,5.01736 1.02056,4.06625 -0.4413,40.44514 -2.0834,51.84603 -3.47441,24.12239 -11.7387,35.33824 -40.2165,54.57972 -16.6799,11.27003 -21.082,15.14398 -23.5649,20.73752 -2.0841,4.69523 -1.7683,10.25667 0.8757,15.42295 1.7071,3.33569 8.0889,6.75981 12.5988,6.75981 6.4823,0 10.9479,-5.72353 8.6999,-11.15062 -2.0628,-4.98006 -7.9376,-4.55592 -7.9376,0.57306 0,2.45783 -1.7344,4.57756 -3.7455,4.57756 -0.74,0 -2.45,-1.10455 -3.8,-2.45455 -3.3404,-3.34045 -3.2284,-8.09213 0.3151,-13.36832 3.205,-4.77211 6.8094,-7.63996 17.2304,-13.70926 4.125,-2.40245 11.5412,-7.31554 16.4805,-10.91798 13.2435,-9.65909 14.56044,-8.93318 6.1289,3.37823 -5.9609,8.70383 -9.2535,16.48881 -10.8154,25.57188 -1.1007,6.40037 -1.4337,7.15715 -13.0239,29.59403 -4.983,9.64623 -8.1025,17.07206 -9.2013,21.9032 -2.0427,8.98112 -3.405,11.87109 -4.661,9.88787 -0.4824,-0.76181 -0.8841,-2.65576 -0.8925,-4.20878 -0.021,-3.95673 -3.9134,-15.11827 -11.5936,-33.24909 -8.4111,-19.8562 -8.8998,-23.56103 -4.3964,-33.33108 1.8054,-3.91691 3.0159,-7.38832 2.6899,-7.71424 -0.3259,-0.32593 -5.9014,-1.64772 -12.39,-2.93732 -15.8517,-3.1505 -24.2992,-7.43253 -34.4038,-17.43936 -8.5116,-8.42923 -12.4973,-14.81523 -16.5427,-26.50523 -2.4545,-7.09253 -2.7748,-9.47464 -2.8236,-21 -0.05,-11.7153 0.2301,-13.87021 2.8311,-21.80574 4.7168,-14.39072 13.3993,-25.70518 25.968,-33.83966 15.1947,-9.83412 34.4973,-11.9553 52.8163,-5.80405 17.0711,5.7322 28.3901,17.08052 34.5324,34.62162 2.4599,7.02494 2.7432,9.21251 2.7617,21.32783 0.018,11.81215 -0.2683,14.2177 -2.2903,19.24046 -4.827,11.99082 -14.9486,21.97664 -28.6743,28.28982 -9.3754,4.31223 -16.3968,5.88993 -26,5.84217 -9.1969,-0.0457 -15.2789,-1.89016 -23.4329,-7.10621 -13.6393,-8.72495 -22.087,-21.77267 -22.8329,-35.26624 -1.6293,-29.47269 19.0736,-54.89188 44.7658,-54.96369 15.9153,-0.0445 34.6714,12.46589 39.9985,26.67911 2.7381,7.30574 4.1914,20.93414 3.0693,28.78458 -0.4716,3.3 -2.0406,8.66778 -3.4865,11.9284 -1.446,3.26062 -2.4809,6.3729 -2.2998,6.91619 0.519,1.55691 8.1679,-11.21196 10.6894,-17.84459 5.8788,-15.4639 0.3913,-35.11347 -13.543,-48.49383 -19.7349,-18.95047 -51.7,-18.07927 -70.7849,1.92924 -9.6973,10.16658 -16.4636,28.73693 -15.3426,42.10822 1.39,16.57996 5.5002,25.86141 16.2519,36.69984 9.2216,9.29595 14.5285,12.22021 26.6555,14.68802 9.692,1.97227 13.9292,1.96916 23.5844,-0.0173 16.5206,-3.39905 25.1248,-8.00606 36.2078,-19.38716 11.2927,-11.59645 15.19339,-22.07735 15.26912,-41.02703 0.12345,-30.89042 -17.87422,-55.19616 -46.71772,-63.09217 -10.5597,-2.89074 -28.0974,-3.18462 -37.4389,-0.62737 -18.6994,5.11903 -34.2277,17.84699 -43.437,35.60367 -4.9471,9.53872 -6.1795,15.67498 -6.1488,30.61587 0.054,26.34888 7.985,45.12563 25.2233,59.71649 9.4102,7.96503 16.0867,11.21434 31.3946,15.27922 l 5.6446,1.49887 0.3947,11.75271 c 0.366,10.89545 0.6707,12.40918 4.1779,20.75271 12.4996,29.73645 13.8895,34.76379 13.9615,50.5 0.065,14.26075 -1.4844,20.48498 -12.4163,49.87205 -15.1865,40.82371 -29.2234,73.90436 -35.6704,84.06382 -4.0617,6.40058 -13.6519,16.7094 -17.3001,18.59657 -1.4099,0.72933 -5.353,1.64164 -8.7623,2.02736 l -6.1988,0.70132 -4.9877,-4.98771 z m 21.6931,-11.84351 c 4.5403,-3.46305 9.3515,-11.08062 16.3753,-25.92692 11.0685,-23.39554 30.3636,-70.74397 29.6731,-72.81525 -0.3948,-1.18455 -10.5334,12.14492 -25.7181,33.81227 -4.6253,6.6 -12.3453,17.28175 -17.1556,23.73722 -11.3743,15.26455 -17.1319,26.73962 -17.6719,35.22099 -0.362,5.68497 -0.1773,6.43674 1.9583,7.97071 3.1104,2.23406 8.014,1.45231 12.5389,-1.99902 z m -5.6052,-48.70187 c 4.1316,-2.78428 15.2325,-15.53305 26.321,-30.22803 8.736,-11.57751 11.1072,-15.32951 10.2376,-16.19913 -0.7208,-0.72076 -40.288,28.67494 -44.5607,33.1055 -2.9476,3.05645 -3.4368,4.2598 -3.5,8.60886 -0.05,3.46821 0.3975,5.3538 1.4265,6.00494 2.534,1.60354 6.5413,1.08963 10.0756,-1.29214 z m 2.2137,-36.21518 c 5.9799,-1.55754 19.1058,-7.72512 20.1965,-9.48982 1.2972,-2.09889 -5.0453,-3.21044 -15.9858,-2.80158 -12.2106,0.45633 -14.6458,1.30205 -16.4767,5.72237 -1.5105,3.64655 -0.8352,5.79596 2.2045,7.01682 3.1326,1.25817 3.5901,1.23781 10.0615,-0.44779 z m 41.3144,-173.92259 c 0.2976,-0.77536 -0.2211,-2.88345 -1.1525,-4.68463 -1.2723,-2.46036 -1.5758,-4.90784 -1.2203,-9.84026 0.5143,-7.13493 2.6706,-12.19304 10.1423,-23.79164 9.2311,-14.3297 10.3226,-18.4863 6.3768,-24.2839 -3.6498,-5.36263 -7.2709,-7.48983 -12.75,-7.48983 -9.8018,0 -13.9961,6.04435 -13.9984,20.17327 0,8.33799 -0.2305,9.4453 -2.5153,12.16062 -3.0036,3.56956 -5.4863,9.2047 -5.4863,12.45249 0,4.15803 2.8682,12.17175 6.1059,17.05975 4.9001,7.3978 13.0453,12.02951 14.4978,8.24413 z m 29.3963,-3.46308 c 1.375,-0.97289 3.589,-3.79851 4.9201,-6.27916 l 2.4201,-4.51027 -3.7824,-7.65502 c -2.0803,-4.21026 -3.5241,-8.32819 -3.2084,-9.15094 0.3157,-0.82275 2.4177,-1.79072 4.671,-2.15104 6.8065,-1.08841 8.3388,-3.04614 8.8021,-11.24599 0.2209,-3.90824 0.1053,-8.28639 -0.2569,-9.72923 -0.7954,-3.16938 -9.8886,-13.00405 -13.9795,-15.11956 -2.7042,-1.39839 -3.0477,-1.37521 -4.2636,0.28768 -0.857,1.172 -1.338,4.99723 -1.3664,10.86748 -0.051,10.5673 -0.9479,13.49776 -7.3637,24.06543 -7.8329,12.90189 -10.1846,20.90159 -8.0871,27.51001 1.7224,5.42709 15.4194,7.40924 21.4947,3.11061 z m 304.59768,87.56791 c -1.10633,-0.80897 -1.82412,-2.69989 -1.88862,-4.97534 -0.21916,-7.73174 8.44615,-11.65545 13.83639,-6.2652 3.23616,3.23615 3.09891,6.05494 -0.46853,9.62237 -3.22096,3.22097 -8.30682,3.93789 -11.47924,1.61817 z m -397.59768,-3.69509 c -4.2495,-4.24948 -1.4089,-11 4.6287,-11 3.9291,0 5.3713,1.62308 5.3713,6.04501 0,6.29093 -5.7934,9.16157 -10,4.95499 z m 395.92308,-49.92308 c -5.85668,-5.85667 -2.79019,-13.07692 5.55387,-13.07692 3.6522,0 4.7738,0.45307 6.08838,2.45936 1.92044,2.93097 1.25277,7.23087 -1.70705,10.99368 -2.68218,3.40984 -6.28566,3.27343 -9.9352,-0.37612 z M -624.88536,511.115 c -4.9992,-2.77083 -6.6635,-10.05108 -3.1101,-13.60449 3.5027,-3.5027 9.1818,-2.483 11.537,2.07152 2.1699,4.19612 1.7975,6.74781 -1.4601,10.0054 -3.2957,3.29569 -3.6404,3.37127 -6.9668,1.52757 z"
       style="fill:#000000" />
  </g>
</svg>
