<?xml version="1.0" encoding="UTF-8" standalone="no"?>
<svg
   xmlns:dc="http://purl.org/dc/elements/1.1/"
   xmlns:cc="http://creativecommons.org/ns#"
   xmlns:rdf="http://www.w3.org/1999/02/22-rdf-syntax-ns#"
   xmlns:svg="http://www.w3.org/2000/svg"
   xmlns="http://www.w3.org/2000/svg"
   version="1.1"
   id="svg2"
   viewBox="0 0 393.08938 433.98023"
   height="122.47887mm"
   width="110.93855mm">
  <defs
     id="defs4" />
  <metadata
     id="metadata7">
    <rdf:RDF>
      <cc:Work
         rdf:about="">
        <dc:format>image/svg+xml</dc:format>
        <dc:type
           rdf:resource="http://purl.org/dc/dcmitype/StillImage" />
        <dc:title></dc:title>
      </cc:Work>
    </rdf:RDF>
  </metadata>
  <g
     transform="translate(1081.5143,-404.91782)"
     id="layer1">
    <path
       id="path3384"
       d="m -1076.7831,838.73421 c -0.6603,-0.2031 -1.3983,-1.0895 -1.6401,-1.9698 -1.1428,-4.1606 -1.9286,-77.22364 -2.6456,-245.9799 -0.4297,-101.14376 -0.5739,-184.10558 -0.3205,-184.35958 2.2024,-2.2072 381.69002,-1.89585 389.27022,0.31937 1.0529,0.3077 1.9118,1.41202 2.4316,3.1264 1.3931,4.59477 1.6189,62.63273 0.7487,192.47544 -1.1291,168.48481 -2.3085,229.15097 -4.4976,231.34177 -0.4107,0.411 -3.7637,0.9636 -7.4513,1.2281 -7.4534,0.5345 -113.9893,1.6768 -260.29,2.7907 -52.90322,0.4029 -100.28662,0.8819 -105.29632,1.0646 -5.0098,0.1826 -9.6489,0.1659 -10.3091,-0.037 z m 227.82422,-7.2237 c 100.7663,-1.0577 151.6048,-1.9697 152.3686,-2.73355 1.2768,-1.27675 2.3573,-399.52968 1.1185,-412.24779 l -0.4613,-4.73651 -3.2792,-0.55614 c -5.8088,-0.98521 -171.5687,-1.41054 -273.0509,-0.70064 -107.55652,0.75239 -100.68742,0.43805 -103.09902,4.71808 -0.7377,1.30923 -0.8887,26.23117 -0.7499,123.6958 0.1808,126.94034 1.3229,288.20868 2.0619,291.15305 0.2829,1.127 1.0773,1.7983 2.3616,1.9953 4.8335,0.7416 126.72942,0.42 222.72972,-0.5876 z m -219.20252,-13.9041 c -1.3734,-29.65561 -2.0733,-135.33688 -1.6595,-250.60193 0.4802,-133.78739 0.7123,-147.96119 2.4338,-148.62181 2.7717,-1.06359 364.92212,-3.89176 365.95602,-2.85789 1.5326,1.53261 0.9247,324.39587 -0.714,379.19657 -0.4614,15.43009 -0.9431,28.16045 -1.0704,28.28968 -1.2137,1.23152 -99.7627,2.47224 -278.0808,3.50098 l -86.42962,0.49863 -0.4355,-9.40423 z m 38.1664,-12.40164 4.5943,-2.83214 11.708,0.0243 c 11.1129,0.0231 11.9578,0.12736 16.61972,2.05109 9.7507,4.0236 21.7551,4.40421 29.343,0.93034 5.1928,-2.37733 11.3622,-8.52806 13.0888,-13.04931 0.7288,-1.90837 1.1565,-3.63841 0.9504,-3.84453 -0.2061,-0.20613 -2.8851,0.46791 -5.9533,1.49786 -5.3769,1.80494 -17.2006,3.33736 -17.2006,2.22927 0,-0.29678 0.6559,-1.37334 1.4574,-2.39236 3.3645,-4.27724 0.6907,-11.12925 -4.3428,-11.12925 -1.2227,0 -5.4,1.32222 -9.283,2.93826 -5.7973,2.41275 -7.5915,2.85854 -10.032,2.49256 -1.96592,-0.2948 -5.05502,0.0861 -9.12432,1.1251 -3.3837,0.86393 -8.459,1.75448 -11.2785,1.979 -6.1576,0.49034 -7.6767,1.16873 -7.6767,3.42844 0,1.6026 -0.1782,1.53211 -2.829,-1.11868 -2.5192,-2.51918 -3.2175,-2.82729 -6.3761,-2.81304 -4.1668,0.0188 -9.0573,2.0408 -10.7374,4.43944 -1.721,2.45707 -1.5762,9.11099 0.2639,12.129 3.6537,5.99256 9.173,6.62126 16.8082,1.91461 z m 249.05272,-12.43435 c 5.7389,-2.9423 7.6893,-6.69265 7.1331,-13.71599 -0.2222,-2.80547 -0.6231,-6.33053 -0.8909,-7.83346 -0.6789,-3.80901 0.532,-3.47611 3.3544,0.92221 4.9631,7.73434 11.6934,11.64776 20.0318,11.64776 5.3089,0 11.0451,-1.85633 12.4737,-4.03668 1.0881,-1.66062 1.0795,-1.93825 -0.1165,-3.76361 -0.7102,-1.08391 -5.2598,-5.92061 -10.1101,-10.74824 -6.7762,-6.7444 -9.3612,-9.8746 -11.1604,-13.51401 -2.8352,-5.73483 -9.3345,-31.15464 -10.7787,-42.15681 -1.4645,-11.15777 -3.5449,-13.20167 -11.8706,-11.66258 -9.5274,1.76123 -11.1013,3.35723 -14.0373,14.2344 -2.1651,8.02074 -3.863,10.56412 -12.8261,19.21258 -15.618,15.06975 -24.2455,20.69559 -38.8546,25.33644 -22.4428,7.12935 -41.9682,5.80578 -61.8548,-4.19297 -7.5192,-3.78058 -14.7616,-9.63611 -24.1942,-19.56094 -14.4891,-15.24531 -23.7273,-30.85925 -30.488,-51.52909 -5.0767,-15.52137 -5.6417,-20.07429 -4.5082,-36.3284 2.913,-41.77014 14.7665,-70.21352 42.1481,-101.13769 7.5879,-8.56963 13.2405,-13.30803 20.6291,-17.29267 12.4365,-6.70703 26.0025,-10.17513 47.4797,-12.13804 6.2413,-0.57043 17.9446,0.8212 23.1458,2.75226 7.0953,2.63424 19.3393,16.27704 23.4969,26.18123 1.4106,3.36029 1.6332,5.20926 1.6518,13.72099 0.021,9.81367 0.015,9.85404 -2.8473,16.75996 -3.4015,8.20789 -4.2503,14.875 -2.2772,17.88628 1.7612,2.68803 5.4561,4.69738 8.6435,4.70051 6.7175,0.007 9.9834,-4.70077 9.9834,-14.38996 l 0,-5.91693 5.6473,0.13526 c 4.8742,0.11676 5.9732,-0.0971 8.0267,-1.56174 2.5194,-1.797 4.5433,-5.00617 4.5433,-7.20409 0,-0.72721 0.6558,-2.54582 1.4574,-4.04136 1.5596,-2.90987 1.9824,-8.8722 0.686,-9.67342 -0.4242,-0.26219 -2.8168,0.077 -5.3169,0.75371 -3.6882,0.99835 -5.117,1.07654 -7.5755,0.41455 -5.4512,-1.46787 -9.6544,-6.40891 -9.6544,-11.34923 0,-3.93806 5.2955,-11.29676 9.1968,-12.78004 2.0744,-0.78868 8.1139,0.90033 12.0068,3.3578 1.5195,0.95922 3.6413,3.24318 4.7151,5.07546 2.2882,3.90442 3.6014,3.98271 5.74,0.3422 1.336,-2.27428 1.4968,-3.76157 1.4968,-13.8428 0,-10.68751 0.098,-11.47106 1.8218,-14.57388 1.5662,-2.81923 1.8217,-4.2011 1.8217,-9.85295 0,-5.95667 -0.2244,-7.02969 -2.3905,-11.42944 -2.8515,-5.79186 -8.1239,-10.85767 -13.0461,-12.53482 -4.6552,-1.5862 -12.2206,-1.48083 -15.8972,0.2214 -8.6338,3.9973 -10.1765,13.06823 -3.282,19.29703 3.3872,3.06014 6.8018,3.84705 12.5605,2.89465 2.3185,-0.38344 4.5465,-0.49264 4.9509,-0.24267 0.9061,0.56001 2.1676,4.80161 2.1621,7.26983 -0.012,5.45255 -3.4907,11.19536 -7.2863,12.02902 -2.5999,0.57102 -7.2951,-1.7882 -13.1819,-6.62357 -13.0772,-10.74139 -27.7191,-16.89002 -49.4823,-20.77926 -10.7203,-1.9158 -34.6435,-2.68257 -44.9389,-1.44035 -16.2943,1.96601 -31.4355,6.26061 -45.2889,12.84562 -10.6687,5.0712 -13.8216,7.06925 -24.1772,15.32156 -15.6643,12.48279 -21.4882,18.69171 -31.4707,33.5515 -14.53042,21.62959 -26.35572,52.30663 -25.24792,65.49742 0.226,2.69008 0.5434,3.07478 4.1177,4.99022 8.3943,4.49838 13.5358,17.42866 10.7462,27.02484 -2.2258,7.65641 -8.0163,15.7144 -11.2925,15.7144 -1.6705,0 -2.9622,1.44257 -2.9622,3.3083 0,2.69483 2.6379,11.99888 6.1899,21.83164 9.1917,25.44536 16.54412,36.79902 34.39252,53.10983 15.3806,14.05567 27.0585,21.4837 45.7678,29.11183 15.0973,6.15546 27.8208,9.05683 46.7618,10.66326 17.7666,1.50681 24.6148,0.87599 42.7122,-3.93445 16.939,-4.50255 27.4336,-8.92874 39.7862,-16.78024 4.1626,-2.6458 7.7113,-4.66755 7.8861,-4.4928 0.1747,0.17476 -0.84,4.2017 -2.255,8.94876 -3.5191,11.80613 -3.7949,14.01439 -2.3152,18.53819 3.2427,9.91399 9.1061,12.27444 18.5116,7.45228 z m -231.85162,-15.71193 c 7.2635,-4.85763 19.71252,-17.27788 22.01062,-21.95973 1.3569,-2.76436 1.6336,-4.2121 1.2874,-6.73734 -0.8832,-6.44367 -4.327,-10.2975 -8.4022,-9.40244 -4.81722,1.05804 -12.87522,10.6844 -17.52172,20.93198 -2.9958,6.60701 -7.4052,19.54954 -6.925,20.32643 0.932,1.50801 4.1779,0.43446 9.5509,-3.1589 z m -19.978,1.50831 c 0.7013,-0.36118 1.2752,-1.26949 1.2752,-2.01848 0,-0.74899 1.4651,-4.13946 3.2559,-7.53439 4.0191,-7.61937 4.7328,-11.15652 2.7463,-13.60977 l -1.4187,-1.75202 -3.3324,1.95291 c -1.8328,1.07409 -3.5199,1.9529 -3.7491,1.9529 -0.8268,0 -0.3644,-2.65624 1.453,-8.34758 2.2966,-7.19192 1.9647,-9.72636 -1.9511,-14.89998 l -2.915,-3.85142 3.5932,-3.79926 c 6.4703,-6.84146 8.0743,-12.4186 5.2496,-18.25367 -1.8341,-3.78874 -4.4614,-5.50013 -8.4437,-5.50013 -5.7947,0 -10.845,4.69789 -15.4762,14.3965 -2.6916,5.63684 -2.6943,5.65221 -2.6446,15.1156 0.055,10.49266 0.4749,12.5108 6.9297,33.31227 4.3078,13.88255 4.8958,14.67054 10.423,13.96756 2.0513,-0.2609 4.3035,-0.76986 5.0049,-1.13104 z m 170.55382,-25.63878 c 1.4736,-0.6157 4.9827,-3.10191 7.7979,-5.5249 2.8152,-2.42301 6.6713,-5.19916 8.5691,-6.16924 7.8594,-4.01751 15.3391,-13.29908 17.9899,-22.32365 1.3941,-4.74626 2.3002,-6.5313 3.3153,-6.5313 0.3035,0 1.9293,1.82437 3.6128,4.05416 3.1283,4.14343 6.679,6.86866 8.9554,6.87352 1.7726,0.004 1.612,-0.81609 -0.9748,-4.97736 -5.3894,-8.6698 -2.6382,-27.10561 5.2199,-34.97841 2.8062,-2.81151 8.2057,-5.71442 13.4258,-7.21811 2.2037,-0.6348 8.6107,-1.20364 16.2134,-1.4395 6.9776,-0.21647 12.57,-0.69126 12.57,-1.06718 0,-0.37247 -1.8569,-1.52735 -4.1265,-2.56639 -7.356,-3.36767 -22.5109,-3.07811 -30.8211,0.58889 -4.8267,2.12984 -13.2858,8.77205 -19.5924,15.38432 -15.3515,16.09553 -20.0507,19.90474 -29.0603,23.55649 -7.8129,3.1667 -6.8845,5.53959 3.1196,7.97351 l 6.2566,1.52216 -5.7527,3.74691 c -6.7235,4.37924 -10.6528,9.08109 -14.3273,17.14413 -3.0491,6.69082 -4.7443,7.83756 -11.5864,7.83756 -3.6256,0 -5.1053,-0.33887 -6.5945,-1.51028 -2.9651,-2.33241 -2.5348,-4.64459 1.3776,-7.40236 4.0125,-2.82825 6.1423,-6.25856 6.6742,-10.74973 0.5802,-4.89881 -0.8671,-6.16336 -6.3931,-5.58579 -5.5988,0.5852 -7.4314,1.54532 -9.4885,4.97139 -7.0949,11.81637 -8.381,12.98983 -14.2364,12.98983 -2.79,0 -3.7049,-0.38724 -5.7523,-2.43461 -2.8843,-2.88425 -3.8342,-5.81994 -2.4304,-7.51133 0.5398,-0.65048 2.1979,-1.95055 3.6846,-2.88905 2.9005,-1.83104 5.8616,-6.29908 7.0085,-10.57544 1.0773,-4.0168 0.2813,-4.64429 -5.8914,-4.64429 -6.2254,0 -9.195,1.53195 -12.8833,6.64616 -4.6487,6.44607 -4.5736,14.07113 0.2089,21.21365 2.9054,4.3392 4.769,5.22456 12.7132,6.03981 5.8592,0.60129 7.9809,0.41707 13.0683,-1.13471 1.2666,-0.38636 2.4144,0.26909 5.4652,3.12107 2.1241,1.98556 4.5177,4.00157 5.3193,4.48 1.9704,1.17609 13.8441,0.55322 17.3459,-0.90993 z m 131.2868,-2.96566 c 5.7982,-2.42268 8.7241,-11.65564 8.2152,-25.92433 -0.3976,-11.147 -1.8392,-16.97334 -6.3926,-25.836 -14.0656,-27.37704 -54.0021,-63.2418 -77.081,-69.22213 -5.0058,-1.29715 -10.0431,-1.47445 -10.7211,-0.37737 -0.2707,0.43802 3.6952,2.72882 9.4969,5.48559 12.04,5.72102 16.3138,8.3959 24.4018,15.27266 8.9592,7.61739 29.6738,29.02086 33.7539,34.87626 4.5142,6.47846 11.4012,20.25585 14.0675,28.14189 1.8828,5.56863 2.0942,7.15326 2.0942,15.69741 0,10.592 -0.9217,13.45035 -4.3369,13.45035 -3.2675,0 -5.8699,-4.6326 -4.1497,-7.38704 1.1989,-1.91975 1.032,-3.86766 -0.4926,-5.75054 -1.2246,-1.51231 -1.4919,-1.56112 -3.4341,-0.62724 -4.4484,2.13882 -7.2063,9.50506 -5.4974,14.68302 2.2305,6.75848 12.5996,10.64124 20.0759,7.51747 z m 19.3067,-33.56294 c 3.0521,-1.57826 3.9775,-5.12829 3.8977,-14.9509 -0.079,-9.71116 -1.8253,-20.8871 -3.9525,-25.29464 -2.0859,-4.32193 -5.095,-5.92919 -12.7884,-6.83071 -7.3276,-0.85865 -9.4274,-1.98257 -11.4966,-6.1535 -3.0688,-6.18573 -2.4483,-10.99907 3.2382,-25.11753 4.7902,-11.89338 6.5523,-17.48223 6.5523,-20.78247 0,-3.77768 -1.4047,-5.1516 -5.9544,-5.82424 -5.6578,-0.83645 -8.2111,-4.95894 -9.3712,-15.13018 -0.3691,-3.23685 -1.0035,-6.21747 -1.4096,-6.62361 -0.9994,-0.99941 -5.6385,3.95458 -11.8755,12.68152 -2.7105,3.79257 -6.9078,9.47644 -9.3274,12.63084 -6.2089,8.09459 -5.7667,8.77642 4.7825,7.37348 4.588,-0.61015 7.2476,0.39258 8.7507,3.29917 1.0361,2.00369 1.071,3.41314 0.3061,12.38555 -1.2693,14.88923 -0.7675,21.32158 2.1212,27.18934 2.7329,5.55133 8.3748,11.09195 14.1935,13.93878 3.7203,1.82015 4.0768,1.86106 8.9444,1.02637 10.0791,-1.72838 11.9689,1.05455 4.9167,7.24047 l -4.1247,3.61803 3.4886,1.5432 c 1.9188,0.84875 3.7177,1.54319 3.9977,1.54319 0.28,0 1.304,0.84915 2.2756,1.88701 1.5726,1.67981 1.7524,2.48004 1.6375,7.28768 -0.096,4.00198 -0.5976,6.424 -1.9381,9.35208 -2.3045,5.03369 -1.428,6.07104 3.1357,3.71107 z m -167.5855,-7.65837 c 1.6628,-0.88991 2.598,-3.73631 3.7127,-11.30035 0.7267,-4.93092 0.676,-6.71212 -0.3285,-11.55487 -0.6532,-3.14893 -1.1877,-6.25238 -1.1877,-6.89657 0,-2.17109 1.8484,0.63508 3.9403,5.98203 3.9825,10.17948 9.3532,15.74853 15.1878,15.74853 6.3679,0 9.8657,-4.49352 10.551,-13.55469 l 0.4159,-5.49973 4.9695,4.93138 4.9694,4.93139 1.8439,-4.16928 c 3.1812,-7.19321 2.4505,-11.75437 -3.2211,-20.1061 -1.6419,-2.41783 -3.1736,-4.8868 -3.4038,-5.48659 -0.2676,-0.69752 2.3523,0.2164 7.2697,2.53593 4.2284,1.99456 8.1604,3.62647 8.7378,3.62647 3.041,0 1.1404,-6.17262 -3.2984,-10.71232 -4.0808,-4.17347 -9.543,-7.27318 -14.4962,-8.22627 -13.1425,-2.52886 -13.3035,-2.62505 -7.2328,-4.3217 6.6405,-1.85591 20.0621,-9.61534 23.2261,-13.4278 0.8014,-0.96562 0.8196,-1.42042 0.092,-2.29704 -1.6323,-1.96686 -6.9904,-1.32061 -18.3254,2.21029 -1.6447,0.51235 -1.6635,0.47755 -0.4663,-0.8649 2.3862,-2.67556 3.4891,-6.62954 3.4891,-12.50801 0,-7.80159 -0.8844,-10.10368 -4.2714,-11.11845 -1.4726,-0.44121 -3.6137,-0.69111 -4.7579,-0.55533 -1.7178,0.20386 -2.2903,0.81728 -3.2843,3.51957 -1.4973,4.0701 -3.1027,4.54098 -4.2897,1.25821 -0.5731,-1.5849 -1.8741,-2.99651 -3.7154,-4.03141 -4.3093,-2.42195 -5.7612,-2.12525 -7.3622,1.50442 -1.8982,4.30347 -7.2399,22.09671 -7.7913,25.95285 -0.4987,3.48698 -0.9072,3.3106 4.2501,1.83515 l 1.5691,-0.44891 -1.5701,2.54048 c -1.8429,2.98185 -1.7212,3.4693 3.8667,15.48163 l 3.3898,7.28694 -3.0388,-3.09695 c -3.1866,-3.24765 -5.8564,-3.96586 -8.1264,-2.18608 -0.6389,0.50098 -2.863,2.98198 -4.9424,5.51335 -3.3898,4.12662 -3.8754,4.47299 -4.6965,3.34997 -1.2606,-1.72392 -2.4428,-0.76714 -3.0359,2.457 -0.2739,1.48888 -1.2478,4.3466 -2.1643,6.35051 l -1.6664,3.64347 0.4139,-6.27159 c 0.2643,-4.0056 0.1395,-6.44112 -0.3454,-6.74081 -0.9936,-0.61407 -15.4027,14.54983 -19.1313,20.13342 -3.173,4.75174 -3.9506,9.67995 -1.8077,11.45834 1.5131,1.25577 7.7972,-1.87644 12.8538,-6.40672 2.3952,-2.14593 3.6089,-2.88317 3.2446,-1.97092 -3.8552,9.65507 -5.121,17.24135 -3.1977,19.16465 1.8582,1.85828 4.4296,0.95356 7.8699,-2.76904 1.8519,-2.00391 3.748,-3.64347 4.2136,-3.64347 0.4656,0 1.377,1.825 2.0255,4.05556 0.8154,2.805 1.6643,4.2513 2.7529,4.69032 2.1541,0.86871 4.6814,0.87032 6.3001,0.004 z m 8.8709,-38.86896 c -2.172,-4.86121 -1.9203,-6.74811 0.3247,-2.4337 1.0067,1.93468 1.6996,4.06611 1.5396,4.73651 -0.1876,0.78649 -0.849,-0.0305 -1.8643,-2.30281 z m 10.8854,-11.44794 c -3.7452,-2.42198 -6.6158,-4.59723 -6.3791,-4.83388 0.5218,-0.52179 9.8676,4.94921 12.675,7.41986 3.5306,3.10717 0.7267,1.9555 -6.2959,-2.58598 z m 5.7584,-23.65113 c 0.4989,-0.60117 1.6048,-1.08261 2.4575,-1.06987 1.5199,0.0227 1.5226,0.0442 0.1358,1.09304 -1.9639,1.48547 -3.8315,1.46878 -2.5933,-0.0232 z m -16.8404,-2.36826 c 1.1252,-2.05106 8.018,-8.51878 8.5315,-8.0053 0.9766,0.97661 -6.8717,9.28052 -8.7713,9.28052 -0.2529,0 -0.1449,-0.57385 0.2398,-1.27522 z m -58.8938,51.10882 c 14.5173,-4.30972 34.1987,-19.83637 34.1987,-26.9794 0,-2.67216 -1.4077,-2.7664 -4.8698,-0.32603 -3.1204,2.19941 -3.479,1.92 -1.0963,-0.85399 1.6145,-1.87965 0.5018,-2.40571 -2.9834,-1.41045 -8.1937,2.33983 -11.6126,3.13878 -11.9571,2.79419 -0.2073,-0.20729 2.0733,-1.53963 5.068,-2.96075 5.3419,-2.53493 10.7377,-7.28632 10.7377,-9.45524 0,-1.52806 -1.6922,-1.89856 -8.6218,-1.88773 -3.474,0.005 -11.7713,-0.3725 -18.4384,-0.83984 -11.6789,-0.81865 -12.2115,-0.7958 -14.5739,0.62522 -1.3485,0.81121 -3.3536,1.68725 -4.4558,1.94675 -1.4826,0.34909 -2.0039,0.91661 -2.0039,2.18142 0,2.53317 2.3545,5.07812 6.8913,7.4487 2.2196,1.1598 4.0364,2.36277 4.0374,2.67327 0,1.13986 -3.8743,1.98587 -9.1024,1.98587 -5.4491,0 -7.6559,0.94652 -7.6559,3.28374 0,2.2591 1.5656,4.82218 3.8075,6.23355 2.1599,1.35967 3.2167,1.47014 11.1308,1.16351 4.8094,-0.18635 9.5641,-0.5642 10.566,-0.83968 1.002,-0.27548 -1.4574,1.47615 -5.4652,3.89251 -9.3591,5.6427 -11.6739,7.54535 -11.0759,9.10372 0.2553,0.66526 1.2315,1.20956 2.1695,1.20956 0.9379,0 2.3418,0.48144 3.1198,1.06986 1.8642,1.41 5.6973,1.3887 10.5731,-0.0587 z m 6.2488,-32.904 c -0.6865,-1.11083 1.3104,-1.62703 6.2944,-1.62703 2.9536,0 4.2139,0.24441 3.7341,0.72416 -1.0548,1.05477 -9.4666,1.81209 -10.0285,0.90287 z m 37.6285,3.93875 c 6.6892,-2.83127 7.9832,-11.82367 2.0548,-14.27933 -1.9581,-0.81105 -2.7611,-0.76625 -5.5831,0.31148 -3.6888,1.40876 -5.2861,3.35878 -5.9124,7.21784 -0.4857,2.9932 1.0566,5.97016 3.6302,7.00679 2.2571,0.90916 3.1489,0.86975 5.8105,-0.25678 z m -138.93542,-2.3765 c 5.3511,-2.53927 7.1233,-8.57456 4.0012,-13.62627 -2.9476,-4.7692 -9.3736,-4.93275 -13.9512,-0.35507 -3.8234,3.82339 -3.4444,9.69721 0.8595,13.31864 2.553,2.14822 5.5063,2.36352 9.0905,0.6627 z m 125.21472,-12.77927 c 3.0838,-1.4051 2.3686,-3.57139 -3.3915,-10.27238 l -3.6064,-4.19544 5.9055,3.9528 c 6.2085,4.15557 10.4904,5.49715 13.0955,4.10294 2.0804,-1.11338 1.903,-1.83679 -0.8563,-3.4918 -1.3025,-0.78127 -3.0075,-2.53259 -3.7888,-3.89183 l -1.4206,-2.47135 3.1023,2.54464 c 6.6189,5.42898 6.619,5.42904 7.5045,4.54355 1.9281,-1.92815 -2.8354,-20.08511 -8.2279,-31.36198 -2.9694,-6.20976 -5.7085,-8.88468 -9.1037,-8.89064 -2.365,-0.004 -2.9983,1.34774 -3.3088,7.06292 -0.1567,2.88416 -0.4512,5.41017 -0.6544,5.61337 -0.2032,0.2032 -2.5857,-0.43503 -5.2946,-1.41828 -12.0578,-4.37677 -18.0507,-0.0681 -13.5871,9.76879 0.7928,1.74709 1.4414,3.46863 1.4414,3.82564 0,0.98098 -2.4236,0.77999 -5.3528,-0.44392 -3.4348,-1.43514 -12.9725,-1.45149 -15.7272,-0.027 -4.9467,2.558 -3.5065,9.2981 3.4498,16.14552 4.4212,4.35203 9.7472,7.17538 16.1728,8.57328 5.889,1.28119 21.0958,1.49411 23.6483,0.33112 z m 108.9478,-21.92602 c 4.1299,-2.1177 5.8557,-5.34557 5.8557,-10.95216 0,-3.52428 -0.2999,-4.53447 -1.7886,-6.0231 -2.7219,-2.72197 -7.5364,-2.51379 -10.9381,0.47296 -1.4167,1.24386 -2.5758,2.55551 -2.5758,2.91477 0,1.00056 2.435,0.77931 5.4951,-0.49931 3.2782,-1.36969 5.2125,-0.65494 7.1628,2.64671 1.1398,1.92943 1.1492,2.2952 0.1111,4.30273 -1.4645,2.83206 -4.1475,4.17398 -10.946,5.47474 -3.0269,0.57915 -5.8231,1.25052 -6.2137,1.49192 -1.9106,1.18081 -0.1842,1.8103 4.965,1.8103 4.4521,0 6.3642,-0.35332 8.8725,-1.63956 z m -19.3315,-1.28519 c -1.6291,-0.80642 -4.7968,-3.10155 -7.0393,-5.10028 -2.2426,-1.99875 -4.5368,-3.63407 -5.0984,-3.63407 -0.5616,0 -1.8154,-0.73781 -2.7863,-1.63957 -1.7432,-1.61903 -1.746,-1.64233 -0.2205,-1.86152 2.0642,-0.2966 2.4397,-2.50378 2.4397,-14.34091 0,-5.30431 0.5155,-14.6908 1.1455,-20.85887 1.9477,-19.06725 1.456,-21.64022 -5.2652,-27.55649 -3.0116,-2.65096 -3.8287,-3.01077 -6.4065,-2.82135 -2.8541,0.20974 -2.954,0.30396 -2.9346,2.76755 0.011,1.40274 0.2702,4.00185 0.5757,5.77579 l 0.5555,3.22535 -6.097,-5.85339 c -3.3533,-3.21936 -7.5473,-6.69939 -9.32,-7.73338 -6.683,-3.8983 -22.8228,-4.59161 -30.3238,-1.30263 -5.278,2.31423 -10.9096,8.46879 -14.7102,16.076 -1.6981,3.39895 -2.7669,6.28678 -2.3751,6.4174 0.3919,0.13061 2.7881,-1.29127 5.325,-3.15973 6.0162,-4.43103 8.9587,-5.88906 13.5801,-6.72903 6.9038,-1.2548 12.693,0.80399 18.4504,6.56148 4.0886,4.08861 4.6758,6.11576 1.5476,5.34315 -7.5595,-1.86711 -9.707,-2.07619 -12.5564,-1.22249 -1.6106,0.48253 -2.9283,1.18174 -2.9283,1.55379 0,0.37205 1.7931,2.00109 3.9846,3.6201 4.5213,3.34008 7.5683,7.59415 14.2796,19.93641 5.8464,10.75178 10.8316,16.8746 17.6248,21.64656 11.4363,8.03346 20.9648,12.24453 27.8717,12.31773 l 3.6435,0.0386 -2.9621,-1.46622 z m -27.1662,-28.20614 c -2.4691,-4.86976 -2.7143,-5.6467 -1.5561,-4.9309 1.1361,0.7021 4.4803,7.64478 4.148,8.61126 -0.1613,0.46926 -1.3277,-1.1869 -2.5919,-3.68036 z m 6.2409,1.98692 c -0.8217,-1.1713 -0.9894,-1.91325 -0.4715,-2.08589 1.1968,-0.39893 2.3067,1.01087 2.0086,2.55122 -0.2334,1.20566 -0.4004,1.1551 -1.5371,-0.46533 z m -4.6523,-9.57908 c -1.3972,-1.73894 -3.981,-7.26777 -3.7376,-7.99783 0.1291,-0.38736 1.3278,1.09922 2.6637,3.30351 1.336,2.2043 2.3032,4.3852 2.1495,4.84645 -0.1962,0.58864 -0.5169,0.5433 -1.0756,-0.15213 z m 71.1897,30.68443 c 1.135,-1.21498 3.5937,-4.86173 5.4637,-8.10388 3.594,-6.23086 5.8605,-8.70715 19.3102,-21.09749 9.2974,-8.56503 10.8745,-9.57593 16.8664,-10.81068 5.1034,-1.05167 6.3303,-2.25687 4.7511,-4.66708 -1.6332,-2.49254 -5.4179,-4.02819 -12.166,-4.93634 -13.7373,-1.84875 -20.508,0.25666 -29.5732,9.19594 -6.0043,5.92091 -9.1848,11.74418 -10.9449,20.03908 -1.7705,8.34418 -0.6183,20.27145 2.1269,22.01701 1.4235,0.90518 2.0048,0.67682 4.1658,-1.63656 z m -271.83302,-22.9135 c 3.9549,-7.84785 7.7731,-14.22039 11.0241,-18.39952 2.7355,-3.5164 5.4727,-7.27443 6.0827,-8.3512 1.0899,-1.92406 0.8628,-4.23615 -0.4161,-4.23615 -1.55,0 -0.2557,-1.87094 5.9075,-8.53968 3.6071,-3.90286 6.5583,-7.51301 6.5583,-8.02255 0,-1.50485 -7.9336,-1.18268 -11.1407,0.45241 -2.2858,1.16537 -2.7045,1.20879 -2.7045,0.28045 0,-1.97924 10.9345,-11.07086 17.1036,-14.22101 4.39432,-2.24388 6.58752,-2.78153 15.58662,-3.82086 9.3946,-1.085 11.0401,-1.96326 9.9009,-5.28461 -0.4706,-1.37205 -1.8542,-2.59686 -4.3347,-3.83709 -3.1923,-1.59619 -4.5907,-1.82174 -11.2947,-1.82174 -8.96262,0 -13.24882,1.06198 -18.04292,4.47049 -3.6064,2.56404 -4.8368,2.25528 -2.6366,-0.66163 2.0659,-2.73888 4.4113,-4.19112 8.4857,-5.25438 2.0976,-0.54738 7.42082,-2.61441 11.82942,-4.5934 11.8793,-5.33254 14.0577,-5.86821 28.7834,-7.07779 7.4145,-0.60903 14.3826,-1.29407 15.4848,-1.52232 4.6024,-0.95313 0.6298,-4.1122 -7.2787,-5.78808 -2.9592,-0.62707 -9.2924,-1.05879 -15.8573,-1.08095 l -10.9305,-0.0369 1.7868,-1.48697 c 5.2554,-4.37363 23.2085,-12.95165 32.6425,-15.59662 3.5451,-0.99394 6.2062,-1.1903 12.0234,-0.88725 9.2223,0.48045 17.4032,2.8049 29.0118,8.24313 4.6336,2.17065 8.6505,3.94665 8.9265,3.94665 0.856,0 0.5527,-2.88931 -0.5201,-4.95487 -1.8118,-3.48833 -7.8054,-7.35097 -19.0171,-12.25574 l -7.2869,-3.18782 19.6747,0.10066 c 19.8066,0.10133 26.3261,-0.53715 25.6776,-2.51472 -0.1569,-0.47855 -2.0636,-1.75106 -4.2371,-2.82781 -5.2473,-2.59949 -3.4663,-2.54782 4.5307,0.13145 7.8813,2.64047 12.1839,5.32758 20.2507,12.64721 3.3791,3.06607 6.4552,5.57468 6.8358,5.57468 1.2991,0 -0.1441,-5.18675 -3.2002,-11.50052 -1.9769,-4.08429 -4.4611,-7.77839 -7.0709,-10.51446 l -4.0233,-4.21801 6.1226,0.0114 c 7.4443,0.0139 18.1803,2.18292 24.2195,4.89317 2.4575,1.10284 7.2209,4.0575 10.5855,6.56592 3.3646,2.50842 6.5672,4.56076 7.1171,4.56076 1.5432,0 1.2065,-3.24216 -0.878,-8.45248 -1.0326,-2.58128 -1.7704,-5.00063 -1.6395,-5.37633 0.2738,-0.78579 7.4359,2.74381 12.1526,5.98895 1.7611,1.21169 3.7358,3.14137 4.3881,4.28817 1.3272,2.33345 2.3936,2.61922 3.7364,1.00126 1.1518,-1.38787 5.2517,-1.38573 15.6669,0.008 11.8861,1.59076 17.8894,1.40588 25.5358,-0.78641 20.5089,-5.8801 32.91,-17.88405 29.4472,-28.5042 -1.5632,-4.79425 -2.7545,-4.62865 -9.2599,1.28715 -2.2375,2.0347 -5.5303,4.11804 -7.9248,5.01394 -12.0805,4.51988 -37.2263,3.17078 -43.0606,-2.31025 -2.2599,-2.12307 -2.0952,-3.46824 0.8831,-7.21491 1.3988,-1.75972 2.5465,-3.60939 2.5504,-4.11036 0.011,-1.38391 -4.8886,-1.10248 -16.3885,0.94141 -22.6562,4.02669 -29.5312,4.77484 -47.9117,5.21386 -9.9193,0.23692 -18.0351,0.22949 -18.0351,-0.0165 0,-0.246 2.4633,-1.58538 5.474,-2.97642 6.6187,-3.05804 10.0097,-5.37667 9.3721,-6.40831 -0.6571,-1.06318 -8.0245,-0.20815 -14.2935,1.65884 -5.5282,1.64634 -33.1671,12.33981 -42.3318,16.3781 -8.2028,3.61445 -9.9267,3.33262 -7.2572,-1.18645 1.0902,-1.8456 1.1241,-2.4433 0.2747,-4.84895 -1.1896,-3.36932 -2.8027,-5.29429 -4.4366,-5.29429 -1.7989,0 -5.7149,3.02494 -19.384,14.97322 -6.7092,5.86452 -12.9471,11.15327 -13.8621,11.75277 -2.8313,1.85517 -3.4438,0.65345 -2.8108,-5.51488 0.313,-3.04931 0.5634,-6.91067 0.5566,-8.58081 -0.015,-3.71258 -2.2083,-10.05553 -4.0545,-11.72637 -1.286,-1.16381 -1.4364,-1.13269 -2.7634,0.57221 -0.7719,0.99164 -4.2455,6.88562 -7.7191,13.09774 -3.4736,6.21211 -8.0566,13.91805 -10.1844,17.12431 -2.1278,3.20625 -4.082,6.90209 -4.3427,8.21297 -0.2607,1.31088 -0.7385,2.54689 -1.0618,2.7467 -0.697,0.43076 -1.1906,-3.23332 -1.7664,-13.11264 -0.7129,-12.23214 -3.4178,-20.8009 -6.5662,-20.8009 -1.8561,0 -3.87302,3.66817 -6.52072,11.85907 -3.7691,11.66015 -4.3013,12.17109 -6.2429,5.99394 -4.7412,-15.08336 -17.6103,-24.41125 -33.6787,-24.41125 -7.9796,0 -12.9463,3.76498 -12.9463,9.81396 0,2.16632 0.4319,2.24504 3.6122,0.65848 2.9815,-1.48738 8.7038,-1.01537 13.5204,1.11527 6.2142,2.74881 17.116,16.18168 17.116,21.08971 0,1.52625 -0.2473,1.68374 -2.0039,1.27634 -9.9486,-2.30734 -16.2134,-2.30497 -16.2134,0.006 0,0.60643 1.5526,2.47707 3.4502,4.15697 13.6981,12.12622 16.9626,16.6387 16.942,23.4187 -0.01,2.02541 -0.2796,4.10579 -0.6078,4.62305 -0.3282,0.51726 -2.8645,1.83492 -5.6362,2.92812 -8.4098,3.31691 -7.9744,2.74052 -6.8844,9.11307 1.3719,8.01987 0.5956,23.41239 -1.7465,34.63238 -1.0325,4.9463 -1.6933,9.29114 -1.4683,9.6552 0.225,0.36406 1.0456,0.66192 1.8235,0.66192 1.7939,0 1.7855,0.12327 -0.4469,6.61279 -3.4511,10.03205 -6.0177,21.36605 -6.5469,28.91104 -0.2881,4.10801 -0.3694,7.46912 -0.1805,7.46912 0.1888,0 3.0661,-5.40274 6.3939,-12.00608 z m 8.3858,-47.01814 c 0.7389,-3.81506 1.8249,-17.14596 1.8318,-22.48454 l 0.01,-5.57017 1.7366,3.72971 c 2.3819,5.11552 4.0297,6.10765 10.1435,6.10765 l 5.0119,0 -3.6537,2.74534 c -2.0095,1.50995 -5.4035,4.91792 -7.5423,7.57328 -8.3912,10.41834 -7.9291,9.93388 -7.5349,7.89873 z m 20.7793,-33.99095 c 0.01,-0.74289 0.4571,-3.035 1.0053,-5.09359 0.5481,-2.05858 1.3967,-6.64935 1.8857,-10.20172 1.2347,-8.96988 1.4232,-9.23299 2.9955,-4.18086 2.19642,7.0577 4.44802,7.76202 8.06332,2.52234 4.5388,-6.57814 29.3516,-23.42674 47.2402,-32.07746 6.5921,-3.18785 9.0685,-3.64203 9.7779,-1.79331 0.3334,0.86895 0.963,1.04135 2.4447,0.66946 4.0999,-1.029 0.7355,0.53183 -12.3793,5.74321 -21.356,8.48616 -27.4412,12.55153 -44.6463,29.82702 -15.22082,15.28305 -16.39812,16.33095 -16.38702,14.58491 z m 211.13802,-50.55538 c -1.4988,-0.37673 -4.9419,-1.78605 -7.6513,-3.13182 -2.7094,-1.34578 -6.4778,-2.86816 -8.3743,-3.38307 -1.8964,-0.51492 -3.2773,-1.21243 -3.0687,-1.55004 0.4276,-0.69178 0.8654,-0.62979 15.9898,2.26401 6.0117,1.15024 13.5537,2.4838 16.76,2.96347 3.2062,0.47966 6.2746,1.10509 6.8185,1.38985 2.0835,1.09073 -16.6298,2.41384 -20.474,1.4476 z m 26.9626,-1.22624 c 0.9065,-0.1743 2.2181,-0.16768 2.9148,0.0147 0.6967,0.18238 -0.045,0.32499 -1.648,0.3169 -1.6032,-0.008 -2.1732,-0.15731 -1.2668,-0.33161 z m -153.5807,-2.90961 c 7.9462,-3.66439 22.5895,-8.07781 22.5895,-6.80838 0,1.22894 -23.1563,8.99487 -25.99,8.71628 -0.3341,-0.0328 1.1962,-0.89139 3.4005,-1.9079 z m 163.0538,1.45222 c 0.9064,-0.17429 2.218,-0.16768 2.9147,0.0147 0.6967,0.18238 -0.045,0.32499 -1.648,0.31691 -1.6032,-0.008 -2.1732,-0.15732 -1.2667,-0.33162 z m -134.9131,-8.81847 c -0.2608,-0.42194 -0.2228,-0.91646 0.084,-1.09895 1.1661,-0.69286 10.3055,-1.29254 41.7296,-2.73808 17.8348,-0.82041 35.9761,-1.72206 40.3141,-2.00365 13.0538,-0.84737 12.0632,0.74804 -2.167,3.49008 -7.132,1.37426 -11.0108,1.54476 -39.6045,1.74087 -17.434,0.11957 -33.5396,0.47829 -35.7903,0.79715 -2.6883,0.38086 -4.2547,0.31657 -4.5662,-0.18742 z m 113.3342,102.72302 c 1.3325,-1.49125 2.0778,-3.13131 2.0778,-4.57205 0,-2.86598 -1.9671,-7.04468 -3.5316,-7.5021 -3.3854,-0.98981 -6.5262,-1.17731 -8.3169,-0.4965 -4.7561,1.80825 -6.6007,10.10261 -3.0389,13.66438 1.6934,1.69343 2.2961,1.84187 6.3022,1.55211 3.8619,-0.27935 4.696,-0.61846 6.5074,-2.64584 z m -56.9464,-120.35085 c 1.577,-1.57701 1.7914,-2.71669 0.8041,-4.27507 -0.5137,-0.81087 -1.121,-0.83422 -3.268,-0.12566 -2.0447,0.67483 -2.637,1.25859 -2.637,2.5993 0,1.53381 1.5701,3.17476 3.097,3.23666 0.3006,0.0122 1.2023,-0.63366 2.0039,-1.43523 z"
       style="fill:#000000" />
  </g>
</svg>
