<?xml version="1.0" encoding="UTF-8" standalone="no"?>
<svg
   xmlns:dc="http://purl.org/dc/elements/1.1/"
   xmlns:cc="http://creativecommons.org/ns#"
   xmlns:rdf="http://www.w3.org/1999/02/22-rdf-syntax-ns#"
   xmlns:svg="http://www.w3.org/2000/svg"
   xmlns="http://www.w3.org/2000/svg"
   version="1.1"
   id="svg2"
   viewBox="0 0 421.73564 424.85099"
   height="119.90239mm"
   width="119.02317mm">
  <defs
     id="defs4" />
  <metadata
     id="metadata7">
    <rdf:RDF>
      <cc:Work
         rdf:about="">
        <dc:format>image/svg+xml</dc:format>
        <dc:type
           rdf:resource="http://purl.org/dc/dcmitype/StillImage" />
        <dc:title></dc:title>
      </cc:Work>
    </rdf:RDF>
  </metadata>
  <g
     transform="translate(1488.0148,-413.02967)"
     id="layer1">
    <path
       id="path3421"
       d="m -1469.0924,836.996 c -7.425,-0.43531 -13.8217,-0.84462 -14.2148,-0.9096 -1.8527,-0.30618 -2.9287,-4.35728 -1.8483,-6.95886 1.6107,-3.87863 6.4696,-6.69783 15.8405,-9.19096 5.2654,-1.40087 8.624,-2.84974 9.2298,-3.98175 2.0766,-3.88024 3.0498,-32.6472 3.9809,-117.67655 1.1844,-108.16319 1.2141,-215.89892 0.066,-238.68526 -0.7233,-14.35324 -1.143,-17.26751 -2.8081,-19.5 -1.0768,-1.44361 -2.7586,-2.782 -3.7374,-2.97419 -1.4868,-0.29195 -1.6698,0.11927 -1.1125,2.5 2.2165,9.46822 2.0369,10.82181 -2.2791,17.17738 -4.3454,6.39896 -5.1228,9.17206 -2.5713,9.17206 2.6405,0 6.1926,4.49007 6.9096,8.73438 0.7328,4.33718 -1.0113,8.76593 -7.4514,18.92077 -1.652,2.60503 -3.0037,5.27323 -3.0037,5.92934 0,0.65611 1.6239,1.49757 3.6086,1.86991 6.7865,1.27315 10.8487,8.56295 8.2817,14.86165 -0.7137,1.75117 -3.6502,7.23395 -6.5256,12.18395 -2.8753,4.95 -5.5324,10.2375 -5.9047,11.75 -0.6263,2.5447 -0.4502,2.75 2.3588,2.75 2.2828,0 3.8145,0.92999 6.1764,3.75 4.2135,5.03077 3.6794,8.69198 -2.9982,20.55119 -2.8487,5.05935 -5.251,10.52736 -5.3383,12.15114 -0.1351,2.51298 0.4897,3.3142 4.1983,5.38395 8.4039,4.69019 8.5533,11.1878 0.5931,25.80167 l -4.4327,8.13795 3.7413,2.82136 c 5.4685,4.12387 6.1743,5.36792 6.2095,10.9447 0.027,4.2557 -0.7518,6.40857 -4.993,13.80533 -4.8075,8.38436 -5.3619,10.65271 -2.6033,10.65271 1.4624,0 5.8834,4.52607 7.5059,7.68426 2.4326,4.73488 0.5089,10.45707 -7.5574,22.47961 -4.47,6.66254 -4.6162,7.09029 -2.7697,8.10875 1.0721,0.59135 3.4667,2.58183 5.3213,4.42329 3.172,3.14948 3.3452,3.67155 2.9199,8.80044 -0.3507,4.22801 -1.4667,7.11264 -4.9701,12.84613 l -4.5179,7.39378 4.848,4.42426 c 4.5612,4.16245 4.8468,4.71762 4.8261,9.38187 -0.024,5.34671 -2.3735,11.48744 -6.4319,16.80835 -1.4004,1.83592 -2.5461,3.76277 -2.5461,4.28189 0,0.51911 2.025,2.63654 4.5,4.70538 3.5072,2.93162 4.5,4.42695 4.5,6.7775 0,4.11316 -1.3309,6.34607 -8.1487,13.67108 -3.2182,3.45762 -5.8513,6.72012 -5.8513,7.25 0,0.52987 2.4429,0.96341 5.4286,0.96341 6.5286,0 8.5774,1.63334 8.5567,6.82143 -0.022,5.43735 -1.9769,8.54036 -6.0101,9.53918 -4.5191,1.11912 -11.5809,-0.75529 -13.0272,-3.45783 -2.9,-5.41856 -1.8394,-37.29061 1.5616,-46.93007 2.0351,-5.76801 1.8912,-7.81765 -1.0096,-14.37679 -3.5994,-8.139 -3.2959,-12.40785 1.5,-21.09592 4.4814,-8.11822 4.8305,-9.98514 2.1372,-11.4266 -5.4764,-2.93088 -5.2811,-13.916 0.4652,-26.16111 l 3.7332,-7.95538 -3.1081,-3.03877 c -1.7095,-1.67132 -3.8768,-5.05144 -4.8163,-7.51137 -2.0513,-5.37135 -1.1662,-9.38258 4.1929,-19.00287 1.8677,-3.35285 3.3959,-6.90253 3.3959,-7.88817 0,-0.98564 -1.8576,-3.80727 -4.1279,-6.2703 -4.0055,-4.3455 -4.1114,-4.63742 -3.5735,-9.84929 0.3512,-3.40341 1.8635,-7.83648 4.1279,-12.10088 1.9654,-3.70139 3.5735,-7.365 3.5735,-8.14133 0,-0.77634 -1.5496,-3.12672 -3.4435,-5.22306 -6.176,-6.83606 -6.0702,-15.69882 0.3381,-28.33737 2.258,-4.45315 4.1054,-8.65843 4.1054,-9.34507 0,-0.68663 -1.0751,-1.24843 -2.3892,-1.24843 -4.5742,0 -6.918,-3.09942 -7.4018,-9.78786 -0.5166,-7.14144 1.2061,-13.04815 5.7179,-19.60587 1.6902,-2.45664 3.0731,-5.22106 3.0731,-6.14316 0,-0.92209 -2.25,-3.78895 -5,-6.37078 -4.6991,-4.41174 -4.9994,-4.9921 -4.9902,-9.64329 0.011,-5.80239 3.2095,-13.35132 7.9374,-18.73616 3.9404,-4.48786 3.6895,-6.8984 -0.8138,-7.81944 -5.1279,-1.04877 -6.6439,-3.16884 -6.565,-9.18108 0.083,-6.32385 2.992,-13.20225 8.2704,-19.55577 6.6193,-7.96735 8.0458,-13.07763 4.2219,-15.12411 -2.6258,-1.40528 -3.3896,0.0612 -2.5672,4.92881 0.5353,3.16893 0.3193,4.06178 -1.1683,4.82817 -4.5802,2.3596 -7.3237,-1.28229 -7.3303,-9.73059 0,-5.21541 -0.5098,-7.3782 -2.4688,-10.55887 -2.4839,-4.03287 -3.0036,-7.11646 -1.8958,-11.25 l 0.603,-2.25 47.1333,0.0102 c 57.611,0.0125 149.9613,1.65255 169.561,3.0112 52.8142,3.66109 102.059,26.06452 136.6327,62.15959 23.2705,24.2946 42.6847,58.37226 50.3156,88.31897 2.907,11.40855 5.0066,24.28235 7.1604,43.90508 l 1.8763,17.09492 -0.3317,-20.5 c -0.3944,-24.37001 -1.5919,-31.91414 -9.2853,-58.5 -7.7372,-26.73698 -8.1718,-37.08757 -1.7025,-40.54981 4.0668,-2.17648 7.4346,-0.25562 10.6344,6.0653 3.6585,7.22711 4.3929,11.70417 5.8207,35.48451 1.5594,25.96986 1.6336,135.37553 0.1072,158 -1.6258,24.09733 -3.2718,28.5 -10.6554,28.5 -9.8153,0 -10.5621,-9.38091 -2.941,-36.94552 5.4542,-19.72683 4.3876,-21.86553 -2.022,-4.05448 -5.4031,15.01443 -14.539,33.0634 -22.0183,43.5 -3.5475,4.95 -12.2029,15.23583 -19.2343,22.85741 -15.5625,16.86866 -18.6958,20.56449 -18.0134,21.24697 0.2899,0.28989 2.3695,0.031 4.6214,-0.5754 2.8885,-0.77781 4.5335,-1.95188 5.5858,-3.98689 1.8858,-3.64666 6.5971,-7.04209 9.7712,-7.04209 2.9881,0 4.7123,-1.87681 8.2682,-9 5.274,-10.56491 19.0382,-30 21.2464,-30 0.4729,0 1.8886,1.39137 3.1459,3.09194 2.4198,3.27308 7.5106,5.92282 11.308,5.88582 1.2552,-0.0122 3.4071,-0.90222 4.7821,-1.97776 5.1246,-4.00854 5.352,-3.37289 4.7386,13.25 -0.3871,10.49296 -1.0786,16.65372 -2.2169,19.75 -0.9098,2.475 -1.9021,5.2884 -2.2051,6.25201 -0.321,1.02092 0.5047,3.13605 1.9789,5.06876 6.0659,7.95285 5.53,17.09989 -1.4217,24.2625 l -3.9629,4.08327 3.4498,5.12651 c 3.4388,5.10997 5.4414,12.10013 4.0921,14.28339 -1.7955,2.90515 -14.8218,-0.50378 -23.1188,-6.05006 l -3.1659,-2.11636 -5.0617,4.49548 c -7.7551,6.88762 -13.5612,7.26473 -21.7134,1.41028 l -4.2594,-3.05887 -4.8168,2.37154 c -4.4194,2.17592 -6.0542,2.37155 -19.8168,2.37155 -12.8992,0 -15.3786,-0.2569 -17.7031,-1.83429 -2.4317,-1.65013 -3.4358,-1.72052 -10,-0.70107 -18.2198,2.82959 -44.7969,2.27754 -44.7969,-0.9305 0,-2.02116 31.6965,-12.81748 40,-13.62464 7.108,-0.69094 12.26,1.69009 13,6.008 0.6074,3.54441 2.5859,4.46246 3.4885,1.61872 0.8881,-2.79815 -2.35,-9.18645 -5.4885,-10.82807 -4.9122,-2.56934 -14.1362,-0.82569 -38.2559,7.23158 -28.0953,9.38535 -39.8438,12.26156 -55.2489,13.52574 -15.1137,1.24027 -183.332,2.1271 -201.4952,1.06226 z m 359.3651,-10.10031 c 4.8204,-3.79173 3.2763,-14.54202 -3.2774,-22.81666 -6.5986,-8.33145 -20.8492,-12.38308 -30.5388,-8.68258 -11.261,4.30059 -15.9668,18.16802 -8.9821,26.46887 3.0973,3.68086 7.1674,4.66421 11.5796,2.79767 6.3195,-2.67335 8.7125,-7.70341 6.3522,-13.35229 -1.1985,-2.86844 -1.8827,-3.34243 -4.8251,-3.34243 -6.6772,0 -7.1482,5.07792 -0.6044,6.51518 3.7226,0.81762 3.7322,2.77805 0.026,5.41673 -6.4073,4.56237 -12.5956,1.38675 -12.5956,-6.46357 0,-5.2581 2.6386,-9.22768 7.858,-11.82147 8.584,-4.26588 16.7733,1.60294 20.7016,14.83572 3.3355,11.23538 8.5035,15.00871 14.3055,10.44483 z m -203.3739,-7.04535 c 23.1865,-1.62481 40.8338,-5.65367 66.0088,-15.06977 14.77,-5.52437 23.9489,-9.8828 33.9692,-16.12966 57.8476,-36.06345 81.2143,-97.45408 71.4361,-187.68264 -5.7603,-53.15351 -16.1103,-81.85101 -38.7181,-107.35381 -6.6339,-7.48335 -19.5664,-19.01451 -15.8653,-14.14619 5.426,7.13722 9.8809,14.69203 14.7339,24.98599 6.1752,13.09843 8.3951,19.69539 12.4558,37.01401 4.6788,19.95511 5.4186,21.34839 13.2908,25.02857 2.6414,1.2348 4.677,2.63352 4.5236,3.10826 -0.1534,0.47474 -2.4496,2.57894 -5.1025,4.676 -8.7191,6.89204 -8.5428,11.10883 0.8148,19.48179 10.5939,9.47917 11.5684,14.56923 5.161,26.9569 -6.9209,13.38056 -6.7618,19.04809 0.6946,24.73535 1.9834,1.51278 3.6061,3.40502 3.6061,4.20499 0,0.79996 -1.8439,3.10905 -4.0976,5.13131 -6.1934,5.55749 -6.2922,6.05224 -2.9001,14.52347 3.127,7.80937 3.7946,14.25214 1.862,17.9691 -0.6246,1.20134 -3.5683,4.75795 -6.5415,7.90358 -5.3916,5.7042 -5.4018,5.7272 -3.8643,8.70034 2.2459,4.34324 2.0403,4.79387 -3.4585,7.58034 -2.9319,1.48573 -5.0477,3.25054 -5.1153,4.26685 -0.063,0.95323 -0.02,6.3399 0.095,11.97036 0.27,13.11846 -1.7523,18.18084 -8.2755,20.71611 -2.8556,1.10982 -6.935,4.50762 -12.7149,10.59039 l -8.5103,8.95629 -7.0847,0 c -8.0656,0 -8.5943,0.36242 -12.8151,8.78463 -5.1624,10.30119 -11.8762,14.36092 -26.0304,15.74022 -9.2233,0.8988 -10.4635,1.46111 -17.5094,7.93858 -3.3123,3.04511 -6.3638,5.53149 -6.7811,5.52529 -0.4173,-0.006 -4.1337,-2.02613 -8.2587,-4.48872 -4.125,-2.46259 -8.2508,-4.48251 -9.1683,-4.48872 -0.9176,-0.006 -4.0676,2.0513 -7,4.57224 -14.4881,12.45509 -30.4838,14.60268 -62.205,8.35168 l -16.8504,-3.32056 -6.6381,1.70108 c -7.533,1.93038 -10.1382,2.11355 -10.1382,0.71279 0,-0.53431 1.1695,-3.57181 2.5988,-6.75 3.8006,-8.45077 3.9639,-15.00957 0.9159,-36.77851 -4.0855,-29.1775 -4.3147,-40.9495 -1.1323,-58.13921 3.118,-16.84203 3.2354,-22.40258 0.5956,-28.21999 -1.0879,-2.39757 -1.978,-5.00983 -1.978,-5.80503 0,-0.79521 2.3805,-2.4986 5.29,-3.78533 6.8569,-3.03244 8.251,-4.65923 6.6297,-7.73652 -0.6705,-1.27265 -1.4892,-2.53892 -1.8194,-2.81392 -0.3302,-0.275 -2.7002,-2.80306 -5.2668,-5.61792 -7.9222,-8.68846 -8.1896,-15.74667 -0.8995,-23.73678 4.9691,-5.44624 6.066,-7.70478 6.066,-12.48976 0,-3.09158 -0.8472,-5.05245 -3.8089,-8.81574 -5.1983,-6.60524 -5.3884,-7.45319 -3.1379,-13.99458 l 1.9668,-5.71655 -2.6624,-4.02322 c -5.4545,-8.24224 -4.8451,-14.57959 2.4322,-25.2959 l 4.082,-6.01101 -4.9359,-4.86168 c -2.7147,-2.67392 -4.9359,-5.17966 -4.9359,-5.5683 0,-0.38865 2.246,-3.33056 4.9911,-6.53759 2.796,-3.26642 4.995,-6.83133 5,-8.10548 0,-1.25098 -1.8496,-5.21727 -4.1211,-8.81398 -5.9667,-9.44758 -6.1167,-12.94937 -0.9727,-22.71648 4.9189,-9.33987 5.1854,-13.24742 1.6027,-23.50192 -3.9485,-11.30132 -3.1306,-22.94624 2.0982,-29.87639 5.163,-6.84284 1.8556,-7.14091 -6.3882,-0.57571 l -5.9532,4.74101 -0.6173,17.50899 c -0.3396,9.62994 -0.8984,87.25899 -1.2419,172.50899 -0.6489,161.04828 -0.5248,167.42105 3.414,175.43547 2.2746,4.6283 6.2487,7.33802 11.9522,8.14958 6.1055,0.86875 48.4849,0.11041 67.2274,-1.20298 z m -157.581,-12.78279 c 1.1926,-1.31785 1.376,-2.11337 0.5981,-2.59415 -1.6496,-1.01949 -6.0083,0.3206 -6.0083,1.84726 0,3.1146 2.9045,3.51558 5.4102,0.74689 z m 390.1616,-2.27258 c 0.7131,-0.72968 1.5766,-2.47118 1.9189,-3.86998 0.9115,-3.72506 -2.4873,-7.42627 -10.5465,-11.48482 -12.0414,-6.06397 -17.0156,-12.31745 -15.4537,-19.4284 1.1501,-5.23643 4.1624,-8.0435 8.6317,-8.0435 6.8372,0 11.8778,3.78168 11.8778,8.91121 0,2.82781 -4.123,5.34701 -7.4036,4.52364 -3.607,-0.9053 -4.2007,-2.32327 -1.7048,-4.07147 2.5201,-1.76516 2.7804,-4.36338 0.4371,-4.36338 -2.4698,0 -5.3287,2.98621 -5.3287,5.56609 0,3.08197 5.3722,7.43391 9.1767,7.43391 4.2642,0 9.8233,-5.65669 9.8233,-9.99563 0,-6.61004 -7.4838,-13.00437 -15.2202,-13.00437 -13.0655,0 -21.9707,18.38712 -15.8247,32.67407 4.2498,9.87876 15.7828,17.85964 24.4325,16.90734 2.1382,-0.2354 4.471,-1.02502 5.1842,-1.75471 z m -233.1883,-1.74718 c 7.7953,-3.38867 12.2209,-7.53048 15.7875,-14.77526 7.4055,-15.04283 1.9305,-31.7042 -12.7838,-38.90327 -16.3659,-8.00709 -37.1978,2.05516 -39.9553,19.29926 -0.8127,5.08286 0.9584,11.42166 4.3014,15.39464 3.3763,4.01248 13.5687,8.90328 18.5565,8.90432 4.4967,9.4e-4 10.1723,-2.71815 13.8966,-6.65763 7.5947,-8.03346 6.1286,-22.22287 -2.6762,-25.90176 -6.4745,-2.70522 -15.0376,-1.06909 -17.3788,3.32053 -1.9728,3.69905 -1.7083,12.51994 0.44,14.66822 1.8856,1.88558 10.4542,2.14584 12.2286,0.37143 3.0279,-3.02787 -0.2261,-11.35113 -3.406,-8.71207 -0.7667,0.63633 -1.394,2.39676 -1.394,3.91207 0,5.74792 -5.1181,5.71384 -6.5018,-0.0433 -1.3955,-5.80652 8.0397,-11.6334 14.5027,-8.95634 3.2481,1.3454 6.9991,7.23314 6.9991,10.9861 0,2.86904 -7.9096,10.49855 -12.4309,11.99071 -7.4342,2.4535 -15.55,-1.89764 -19.016,-10.19507 -2.1522,-5.15221 -1.9424,-9.59628 0.6969,-14.76226 6.0572,-11.85573 21.0829,-14.98646 31.992,-6.6658 5.7033,4.35005 7.8982,8.52402 8.5136,16.18952 1.6128,20.09308 -17.2375,32.86028 -37.3864,25.32158 -15.4732,-5.78926 -22.9213,-24.82056 -16.2091,-41.41739 4.0778,-10.08289 11.6472,-20.30529 24.8138,-33.5108 14.8274,-14.87113 24.5122,-22.6723 52.0261,-41.90734 36.5583,-25.55798 51.2428,-37.14722 62.9423,-49.67496 36.165,-38.72504 45.0367,-76.61064 27.9391,-119.30996 -3.0839,-7.70147 -4.4844,-10.04469 -6.0038,-10.04469 -0.4827,0 -0.8578,11.1375 -0.8337,24.75 0.041,23.19008 0.7379,34.97027 2.4556,41.51746 l 0.7261,2.76747 -6.9195,-0.6431 c -8.0498,-0.74815 -11.1886,0.4325 -16.139,6.07058 -7.574,8.62633 -8.5001,15.97687 -3.3084,26.25907 3.2996,6.53508 3.9886,10.27886 1.8913,10.27802 -0.6875,-2.8e-4 -3.6173,-0.90028 -6.5107,-2 -9.7484,-3.70516 -18.565,-2.0425 -26.6058,5.01739 -5.955,5.22862 -7.0549,8.19093 -6.7698,18.23311 0.2813,9.91069 0.5585,9.65848 -7.8653,7.15688 -8.8545,-2.6295 -13.1553,-2.24267 -18.035,1.62212 -6.2423,4.94398 -7.274,8.19683 -5.8924,18.57847 0.6236,4.68654 0.8874,8.76744 0.5862,9.06867 -0.3012,0.30123 -5.0831,0.0204 -10.6264,-0.62402 -5.5432,-0.64444 -11.0804,-0.85505 -12.3047,-0.46803 -3.8385,1.21336 -8.7239,5.55611 -11.4135,10.14553 -2.3655,4.03644 -2.5418,5.09619 -2.0473,12.31067 l 0.5411,7.89403 -9.1532,-0.21296 c -7.1493,-0.16634 -9.861,0.17294 -12.3863,1.54976 -6.0036,3.27329 -7.4766,9.37173 -5.11,21.15609 1.3082,6.51369 1.0206,6.96643 -5.0448,7.94263 -1.9866,0.31974 -5.2956,1.97179 -7.3532,3.67122 -5.4583,4.50817 -7.1952,11.22393 -6.4444,24.91791 1.7498,31.91569 15.8578,47.89187 41.1855,46.6391 5.2088,-0.25763 9.7039,-1.13637 12.8835,-2.51855 z m 47.7734,-13.08253 3.003,-3.00301 -0.6981,-9.84682 c -0.5875,-8.28596 -0.4215,-10.42975 1.0469,-13.52419 3.4286,-7.22525 11.2073,-10.68557 19.3952,-8.62784 5.3912,1.35491 7.6152,3.14559 10.2025,8.21503 2.6552,5.20232 2.4356,6.26603 -2.227,10.79095 -4.8512,4.70795 -8.4115,5.19024 -11.7875,1.59675 -3.3258,-3.54015 -2.5219,-7.00856 1.7188,-7.41574 2.7565,-0.26468 3.2586,-0.68311 3,-2.5 -0.2443,-1.71542 -1.0875,-2.247 -3.9429,-2.48546 -7.8075,-0.65204 -11.6343,7.38164 -7.1631,15.03749 2.5195,4.31392 5.8396,5.94284 11.0636,5.42803 9.683,-0.95424 16.8211,-9.54086 16.0148,-19.26456 -0.9947,-11.99437 -13.3224,-19.92748 -26.9952,-17.37185 -9.9212,1.85442 -18.1097,10.0606 -23.9225,23.97423 -4.2866,10.26058 -4.2668,13.95886 0.099,18.46293 4.231,4.36528 7.219,4.50785 11.1928,0.53406 z m 144.8431,-5.99699 c 0,-1.1 -0.3803,-2 -0.845,-2 -0.4648,0 -1.6595,0.9 -2.655,2 -1.7668,1.95228 -1.7466,2 0.845,2 1.9883,0 2.655,-0.5022 2.655,-2 z m -253.5659,-19.25 c 0.3472,-6.1875 0.785,-20.62087 0.9728,-32.07415 0.1878,-11.45328 0.7355,-21.16492 1.2173,-21.58142 0.4817,-0.4165 2.7157,-1.27944 4.9644,-1.91765 5.7408,-1.62926 11.9928,-6.44732 15.4595,-11.91368 2.8152,-4.43917 2.9519,-5.17181 2.9519,-15.82536 l 0,-11.1707 6.8585,0.49072 c 16.08,1.15052 24.0747,-6.64535 24.1195,-23.51958 l 0.022,-8.26182 4.25,0.72045 c 2.3375,0.39625 7.247,0.73906 10.9101,0.76182 5.8259,0.0362 7.1917,-0.33436 10.9057,-2.95863 7.2909,-5.15165 8.1647,-7.0207 8.0281,-17.17272 -0.084,-6.23217 0.3022,-9.48666 1.2845,-10.83006 1.3546,-1.85248 1.6981,-1.86453 9.6965,-0.34014 10.275,1.9583 13.1068,1.28327 19.7777,-4.71444 6.958,-6.25587 7.9064,-9.58523 5.2353,-18.3792 -1.1483,-3.78065 -2.0879,-7.36165 -2.0879,-7.95777 0,-0.74424 2.776,-0.88682 8.8591,-0.45502 9.9657,0.70738 13.0528,-0.37617 17.34,-6.08621 2.1029,-2.80074 2.2774,-3.94254 2.0278,-13.26893 l -0.2731,-10.20448 5.4842,-3.50824 c 3.0164,-1.92953 6.7393,-5.40259 8.2731,-7.71792 2.7168,-4.10086 2.7972,-4.6237 3.1103,-20.22519 0.3661,-18.24103 -0.4385,-22.87761 -5.2303,-30.13968 -7.5146,-11.38865 -16.6867,-17.66025 -28.644,-19.58592 -22.4446,-3.6146 -40.9656,11.30286 -41.2696,33.23998 -0.1711,12.34822 7.618,22.63454 19.6652,25.96968 5.8816,1.62827 17.4823,1.45259 21.6573,-0.32797 5.0906,-2.17106 9.7833,-6.45967 12.2241,-11.17156 2.6084,-5.03529 2.7953,-15.24157 0.3817,-20.83698 -6.1996,-14.37232 -22.8735,-19.41437 -32.9823,-9.97361 -2.9221,2.729 -7.6005,11.45249 -7.6081,14.18638 -0.02,7.12123 5.5098,14.13941 12.5344,15.90822 9.4519,2.38001 17.4502,-2.84896 17.4502,-11.40822 0,-9.00108 -9.0249,-14.09766 -13.9274,-7.86514 -2.6476,3.3658 -2.8105,8.36514 -0.2726,8.36514 2.3149,0 4.2,-1.89915 4.2,-4.23139 0,-1.00726 0.7401,-2.11537 1.6446,-2.46247 2.4844,-0.95334 4.5995,2.54641 3.9695,6.56789 -1.9727,12.59125 -18.9631,9.01698 -20.3084,-4.27229 -0.5667,-5.59722 2.3836,-10.13441 8.2882,-12.74631 12.6871,-5.61209 27.1795,7.16876 23.5122,20.73534 -2.2423,8.29505 -12.6961,16.4068 -21.1061,16.3775 -10.833,-0.0377 -24.6012,-14.47483 -24.3922,-25.57731 0.2227,-11.83349 15.8662,-27.3503 27.6047,-27.38119 4.7043,-0.0124 13.8046,3.34588 20.3597,7.51327 10.2778,6.5341 15.9891,19.97667 15.2058,35.78992 -0.5283,10.66566 -2.8897,16.87047 -10.4878,27.55773 -9.0403,12.71571 -19.4826,21.98264 -54.7902,48.62301 -61.9144,46.71581 -74.9329,59.93407 -92.6993,94.12155 -10.5358,20.27374 -11.0016,21.97272 -11.5546,42.13967 -0.6499,23.69955 2.3584,50.24508 5.694,50.24508 0.4744,0 1.1467,-5.0625 1.494,-11.25 z m 172.6428,-6.67308 c 3.9325,-3.9325 3.8379,-7.73559 -0.3269,-13.13453 -6.203,-8.04121 -21.4016,-15.01129 -42.7739,-19.61615 -13.0025,-2.80149 -44.4357,-2.57635 -55.6487,0.39859 -7.7505,2.05626 -21.0323,7.90361 -20.0909,8.84502 1.1555,1.15544 15.4798,5.43015 18.1962,5.43015 2.1558,0 5.4012,-1.68073 10.7968,-5.5914 5.1255,-3.71494 9.0133,-5.76561 11.5847,-6.1105 3.508,-0.47052 4.3561,-0.0876 9.0614,4.0914 5.7224,5.08233 4.8847,4.91246 22.7982,4.623 11.5012,-0.18585 11.7204,-0.10855 22.1428,7.80873 l 7.3165,5.55797 4.6835,-1.30068 c 2.5759,-0.71538 5.4327,-1.51819 6.3485,-1.78403 2.5432,-0.73823 5.2939,3.97932 3.8708,6.63845 -0.6084,1.13688 -1.6529,2.07395 -2.3211,2.08237 -0.6681,0.008 -1.8609,0.42413 -2.6505,0.92379 -1.1898,0.7529 -1.2117,1.17839 -0.1275,2.48468 1.9151,2.30764 3.8507,1.94252 7.1401,-1.34686 z m -79.3615,-0.32692 c 2.3807,-2.59521 7.2846,-12.03986 7.2846,-14.02967 0,-1.94345 -5.2861,-6.72033 -7.4367,-6.72033 -2.4346,0 -8.3404,3.71493 -9.576,6.02364 -1.7033,3.18277 -1.085,7.5526 1.6396,11.58681 4.0805,6.04194 5.0727,6.42708 8.0885,3.13955 z m 102.181,-17.2848 c 1.707,-1.94413 3.1036,-3.92913 3.1036,-4.4111 0,-1.65362 -6.1535,-6.0541 -8.4659,-6.0541 -1.2719,0 -3.3439,0.83511 -4.6044,1.85581 -2.1118,1.71004 -2.1884,2.10544 -0.9754,5.03389 1.2288,2.96643 5.3532,7.1103 7.077,7.1103 0.4188,0 2.1581,-1.59066 3.8651,-3.5348 z m -5.8964,-23.30834 c 4.675,-4.87119 9.2797,-10.21797 10.2327,-11.88174 1.6985,-2.96548 1.6744,-3.14161 -1.2263,-8.94642 -3.9497,-7.90396 -10.8307,-15.01751 -15.346,-15.86459 -4.7858,-0.89782 -7.232,0.0874 -8.6366,3.47842 -1.4593,3.52298 0.049,7.05747 3.0114,7.05747 1.5788,0 1.9648,-0.68756 1.9648,-3.5 0,-3.92618 0.5305,-4.23484 3.1713,-1.84501 1.1422,1.03373 1.8287,3.04017 1.8287,5.34501 0,8.81271 -11.092,10.20491 -17.0542,2.14055 -1.2375,-1.67382 -2.8851,-3.28701 -3.6613,-3.58486 -1.881,-0.7218 -6.9668,1.98222 -8.2549,4.38892 -1.7907,3.34614 -1.2327,10.5275 1.043,13.42053 2.3765,3.02124 5.3131,3.33618 10.5816,1.13486 5.5342,-2.31232 11.8969,-1.97894 13.7891,0.72251 1.9763,2.82157 2.0171,9.15048 0.069,10.76692 -1.9514,1.61949 -4.5127,0.57762 -4.5127,-1.8356 0,-1.04992 -0.7128,-2.50045 -1.5838,-3.2234 -1.9733,-1.63765 -4.7782,-0.14605 -5.2164,2.77403 -0.3758,2.5039 5.9587,8.29275 9.085,8.30232 1.4852,0.005 5.0163,-2.91186 10.7152,-8.84992 z m -42.5285,-10.90686 c -1.0258,-10.0699 -2.0446,-11.68871 -7.5828,-12.0488 -9.8629,-0.6413 -41.1645,7.40119 -54.0803,13.89513 -4.2946,2.15929 -7.8084,4.14597 -7.8084,4.41483 0,0.26886 15.7858,0.48884 35.0796,0.48884 l 35.0796,0 -0.6877,-6.75 z m 69.7785,-20.33037 c 2.5061,-3.06629 2.1945,-4.67514 -1.65,-8.51963 -2.4043,-2.4043 -4.3078,-3.4 -6.5,-3.4 -8.2119,0 -9.8592,11.24624 -2.1,14.33641 2.7647,1.10106 8.4753,-0.24542 10.25,-2.41678 z m 81.75,-9.36061 c 0,-1.34254 -0.45,-2.7191 -1,-3.05902 -0.5834,-0.36058 -1,0.65628 -1,2.44098 0,1.68246 0.45,3.05902 1,3.05902 0.55,0 1,-1.09844 1,-2.44098 z m -163.9721,-4.17055 c 15.5826,-4.96539 23.3889,-8.42622 24.2873,-10.76748 0.9426,-2.45637 -1.228,-8.45855 -3.2964,-9.11501 -2.3575,-0.74824 -6.1253,1.14976 -15.3864,7.75071 -10.1694,7.24833 -21.6324,15.91989 -21.6324,16.36447 0,0.77228 1.8755,0.27699 16.0279,-4.23269 z m 58.5826,-0.97688 c 4.3021,-2.86295 22.3895,-20.39069 22.3895,-21.69671 0,-1.68117 -8.2802,-12.94122 -14.0598,-19.11967 -8.754,-9.35807 -16.328,-12.13911 -20.5013,-7.5277 -2.4298,2.68485 -2.747,13.49058 -0.4389,14.95205 2.0122,1.27414 6.6678,1.2286 9.1303,-0.0893 1.5962,-0.85425 1.7597,-1.35785 0.8118,-2.5 -0.6528,-0.78664 -1.9951,-1.43026 -2.9828,-1.43026 -4.7716,0 -6.3259,-2.4905 -3.3879,-5.42857 2.6803,-2.68023 7.898,-1.99078 10.7706,1.42317 3.5502,4.21923 4.1082,6.66937 2.1866,9.6021 -3.5486,5.41589 -11.5572,7.94449 -16.8443,5.3184 -1.2014,-0.59669 -3.6132,-2.71573 -5.3596,-4.70896 -2.9519,-3.36904 -3.3487,-3.53124 -5.6399,-2.30503 -5.4197,2.90055 -5.999,10.30975 -1.2101,15.47711 2.9062,3.13586 5.8084,3.33089 9.2524,0.62178 4.929,-3.87713 16.2408,-1.82724 17.8472,3.23422 1.0376,3.26893 0.7387,7.68367 -0.6318,9.3351 -1.443,1.73865 -7.0856,1.88753 -8.7425,0.23068 -1.7004,-1.70036 -1.4961,-2.48931 0.8,-3.08975 2.3731,-0.62057 2.6622,-3.51892 0.4362,-4.37309 -2.4217,-0.9293 -6.3135,1.32568 -6.9985,4.0551 -0.8044,3.20497 1.4059,7.7172 4.5623,9.31373 3.4698,1.75509 4.1909,1.64669 8.6105,-1.2944 z m 107.8815,-10.35345 c 0.7565,-5.50005 -0.174,-10.37816 -1.5205,-7.97103 -0.4346,0.77709 -0.8728,3.43789 -0.9736,5.91289 -0.2504,6.14547 -0.1395,7 0.9083,7 0.4984,0 1.212,-2.22384 1.5858,-4.94186 z m -297.683,-18.74918 c 0.3531,-3.64739 -2.557,-7.30896 -5.809,-7.30896 -2.8887,0 -6,3.54346 -6,6.83333 0,3.88797 0.6728,4.30044 6.4616,3.96159 4.8619,-0.28459 5.0492,-0.4067 5.3474,-3.48596 z m 24.18,-12.80325 c 5.7036,-2.94946 7.88,-9.78297 4.356,-13.67697 -3.4453,-3.80707 -6.2851,-1.54732 -3.8859,3.09223 0.8475,1.63884 1.5409,3.66848 1.5409,4.51032 0,2.29248 -4.5978,3.06228 -7.3845,1.23637 -3.0373,-1.99012 -3.9498,-5.7125 -2.6153,-10.66851 2.0092,-7.46141 8.5923,-9.10414 16.0993,-4.01735 2.4203,1.63999 5.1096,2.98999 5.9762,3 4.6465,0.0537 8.6979,-10.79925 5.9489,-15.93582 -1.3662,-2.55286 -3.3893,-2.44662 -11.242,0.59038 -4.3039,1.66451 -5.0928,1.69467 -9,0.34404 -3.2702,-1.13044 -4.7114,-2.35774 -6.0965,-5.19175 -1.7675,-3.61639 -1.7625,-3.82747 0.1938,-8.25 3.0483,-6.89122 8.1201,-5.8904 8.1201,1.60233 0,4.37316 1.7311,5.9473 3.6517,3.32067 1.836,-2.51083 1.7038,-8.96333 -0.2231,-10.89022 -0.9722,-0.97216 -3.3221,-1.57143 -6.1622,-1.57143 -9.0477,0 -15.9103,6.45459 -22.8639,21.50458 l -3.4567,7.48168 7.376,10.25687 c 6.9841,9.71196 12.2406,14.75687 15.3757,14.75687 0.771,0 2.7022,-0.67243 4.2915,-1.49429 z m 190.616,-16.01978 c 3.6125,-3.61251 3.0913,-9.40099 -1.0233,-11.36407 -6.0952,-2.90802 -14.6651,2.42527 -13.2105,8.22116 0.9819,3.91223 3.3709,5.65698 7.7457,5.65698 2.9115,0 4.6462,-0.67214 6.4881,-2.51407 z m -144.7859,-19.16644 c 41.4293,-28.3598 67.1809,-48.39801 67.1809,-52.27578 0,-1.97646 -2.3187,-1.02715 -11.8959,4.87037 -11.1823,6.88591 -28.2354,15.51679 -47.4892,24.0351 -14.832,6.562 -24.0896,11.11792 -26.9253,13.25071 -1.7272,1.29904 -1.6654,1.76247 1.3446,10.08087 1.7352,4.79558 3.5935,8.71924 4.1295,8.71924 0.536,0 6.6809,-3.90623 13.6554,-8.68051 z m -68.2115,-15.83614 c 2.663,-2.66305 2.6107,-4.72129 -0.2348,-9.23335 -3.081,-4.88553 -12.3728,-1.24194 -12.3728,4.85173 0,3.25437 4.057,6.89827 7.6803,6.89827 1.3258,0 3.5431,-1.13249 4.9273,-2.51665 z m 27.6048,-12.22255 c 4.846,-4.2525 4.2303,-14.60961 -0.9457,-15.90871 -3.2877,-0.82517 -5.7137,1.9441 -4.1928,4.78605 0.5481,1.02402 1.4306,1.86186 1.9613,1.86186 1.851,0 0.9482,3.93854 -1.1617,5.0677 -4.5572,2.43895 -10.6843,-4.0995 -9.385,-10.01511 1.7012,-7.74588 11.7333,-10.04283 20.7595,-4.75311 7.4254,4.35153 10.752,3.28336 10.752,-3.45243 0,-4.53386 -1.7254,-8.63784 -3.9018,-9.2807 -0.879,-0.25965 -4.4844,-0.1172 -8.012,0.31656 -11.0644,1.36049 -18.0862,-1.21616 -18.0862,-6.63677 0,-2.6423 2.7948,-9.24614 3.9131,-9.24614 0.3768,0 1.2588,1.58642 1.9599,3.52537 2.2364,6.18458 8.1889,8.16983 9.4971,3.16741 0.7553,-2.8882 -2.2838,-8.89005 -5.2321,-10.33295 -5.4738,-2.67883 -10.5223,1.01028 -23.2629,16.99914 l -7.8561,9.85898 1.892,2.65705 c 4.1095,5.77126 19.7222,21.48994 22.5697,22.72293 3.2908,1.42493 6.0689,0.99951 8.7317,-1.33713 z m 51.2876,-13.80906 c 10.1285,-1.73519 27.5793,-6.21209 28.8061,-7.39005 0.4434,-0.4257 -2.2566,-1.08477 -6,-1.46461 -10.4832,-1.06372 -25.1637,-4.3447 -36.4569,-8.14785 -5.6332,-1.89708 -10.8722,-3.44923 -11.6422,-3.44923 -1.9274,0 -1.3409,17.93456 0.6654,20.34864 1.7994,2.16509 12.3342,2.20919 24.6276,0.1031 z m 15.5,-22.73933 c 0,-1.52187 -8.5361,-9.98874 -11.7002,-11.60536 -1.2102,-0.61828 -5.7102,-1.40715 -10,-1.75305 -4.2899,-0.3459 -8.5196,-0.99664 -9.3993,-1.44608 -0.8797,-0.44943 -2.59,-3.53398 -3.8008,-6.85454 -1.2107,-3.32057 -3.0488,-6.49093 -4.0845,-7.04526 -1.0358,-0.55433 -5.127,-1.69022 -9.0916,-2.5242 -17.5152,-3.68443 -25.4489,-10.20706 -29.8698,-24.55724 -2.1866,-7.09771 -3.4934,-8.27626 -10.4543,-9.42825 -4.1189,-0.68166 -9.5995,-5.1774 -9.5995,-7.87445 0,-0.84143 0.5222,-2.67605 1.1605,-4.07693 1.3975,-3.06724 5.8395,-3.6355 5.8395,-0.74705 0,4.22254 6.3059,5.96237 7.5381,2.07983 2.021,-6.36752 -9.7707,-10.73811 -14.9629,-5.54598 -5.2873,5.28732 -4.2213,16.26209 2.6056,26.82456 9.8827,15.29043 30.7556,32.33504 53.571,43.74552 17.1683,8.58625 42.2482,15.00251 42.2482,10.80848 z m -94.4,-17.11241 c 4.1336,-4.13364 4.2693,-6.39296 0.5953,-9.91291 -5.4963,-5.26575 -13.5953,-2.39815 -13.5953,4.81366 0,2.86191 0.6574,4.32386 2.7558,6.12884 3.7548,3.22976 6.234,2.98058 10.2442,-1.02959 z m 78.3437,-6.49484 c 1.7118,-3.19855 2.4137,-12.56892 1.1222,-14.98211 l -1.1726,-2.19103 -4.0517,2.27719 c -5.1971,2.92088 -7.8416,6.67966 -7.8416,11.14547 0,4.16737 1.8031,5.57061 7.2148,5.61491 2.6435,0.0216 4.0073,-0.51607 4.7289,-1.86443 z m -13.9437,-18.0812 c 5.6355,-2.88962 14.3794,-9.57642 22.6984,-17.3584 8.2358,-7.70419 8.8065,-8.79934 6.7948,-13.03862 -4.5627,-9.61514 -20.4932,-6.07498 -20.4932,4.55409 0,7.66153 -6.3779,16.68906 -14.4444,20.44527 -6.6494,3.09631 -10.0197,2.98154 -17.1554,-0.58417 -6.6802,-3.33816 -9.1013,-6.58261 -10.0439,-13.45955 -1.5528,-11.32861 7.1712,-20.83175 17.0735,-18.59842 7.7988,1.75891 10.2359,5.09094 9.1279,12.47958 -0.9039,6.02787 -2.4355,7.65545 -7.7697,8.25669 -3.9976,0.45058 -4.7432,0.23174 -5.7742,-1.69466 -0.6511,-1.21663 -0.8999,-3.34363 -0.5527,-4.72668 0.5021,-2.00072 1.1194,-2.42128 3.0204,-2.05788 3.8581,0.73752 5.2841,-0.73779 3.0738,-3.18016 -5.6629,-6.25742 -13.9811,3.02476 -10.0792,11.24731 1.9892,4.192 5.4701,6.15865 10.5424,5.95638 11.5954,-0.46239 18.25,-11.27862 12.7573,-20.73517 -5.8752,-10.11482 -20.0221,-12.32465 -30.9906,-4.84091 -4.9712,3.39178 -7.7852,9.41615 -7.7852,16.6669 0,9.62116 5.8561,17.77359 15.5812,21.6909 6.7335,2.71226 18.06,2.23798 24.4188,-1.0225 z m 92,-22.86503 c 0,-2.9934 -48.167,-22.15893 -55.6901,-22.15893 -2.0706,0 -2.3403,0.3443 -1.7628,2.25 1.58,5.21367 4.7803,11.76236 5.826,11.92167 0.6198,0.0944 7.4269,0.2208 15.1269,0.28087 13.8785,0.10826 14.0955,0.14533 25,4.27036 6.05,2.28864 11.1125,4.18725 11.25,4.21913 0.1375,0.0319 0.25,-0.32051 0.25,-0.7831 z m -131.2168,-20.55084 c 5.4117,-2.7443 8.8754,-6.08301 7.3128,-7.04877 -1.7153,-1.06011 -21.0966,-1.9427 -21.0895,-0.96038 0.01,0.95119 7.8245,10.40106 8.6046,10.40106 0.2504,0 2.5779,-1.07636 5.1721,-2.39191 z m 55.8071,-0.19574 c 6.351,-2.42545 5.6329,-4.04307 -2.3403,-5.27225 -18.445,-2.84354 -21.7178,-2.39585 -17.2502,2.35965 5.288,5.62882 10.4634,6.39828 19.5905,2.9126 z m 191.1907,74.83765 c -2.7074,-3.09867 -12.8194,-20.52201 -16.3956,-28.25 -6.0902,-13.16105 -5.5273,-12.45164 -10.3159,-13 -5.8124,-0.66559 -7.5825,-3.29439 -4.1269,-6.12891 1.3434,-1.10199 3.256,-1.79092 4.25,-1.53097 0.9941,0.25995 1.8074,0.0806 1.8074,-0.39856 0,-1.53217 -3.664,-2.90212 -10.2605,-3.83629 -8.3411,-1.18125 -13.4513,-3.82325 -35.5497,-18.37933 l -18.3103,-12.06083 6.9011,-3.19649 c 3.7955,-1.75807 7.1522,-3.85101 7.4591,-4.65097 0.307,-0.79996 0.1732,-3.44868 -0.2972,-5.88606 -1.6482,-8.53886 -2.6665,-7.9325 13.3075,-7.92404 15.7556,0.008 24.6088,1.10097 32.4584,4.00582 l 5.2085,1.92746 3.233,-2.72042 c 2.594,-2.1827 4.2416,-2.72041 8.3355,-2.72041 5.0344,0 6.449,0.62604 12.6304,5.58966 l 2.6158,2.10046 7.3278,-3.21618 c 8.5354,-3.74623 14.2586,-4.78486 16.431,-2.98188 2.2467,1.8646 1.8181,7.8033 -1.0002,13.85724 -3.2323,6.94342 -3.1395,9.15448 0.5321,12.67208 3.5454,3.39671 5.5309,9.13831 4.5339,13.11086 -0.3884,1.54738 -2.5334,4.50029 -4.7666,6.56201 l -4.0605,3.7486 2.2299,5.18336 c 2.0817,4.8391 2.2069,6.36535 1.8854,22.9796 -0.3921,20.25928 -0.8815,21.72362 -5.8608,17.53385 -3.0977,-2.60653 -7.776,-3.42403 -11.474,-2.00498 -0.9097,0.34908 -2.7217,3.04908 -4.0267,6 -1.3051,2.95093 -2.5529,5.36532 -2.7729,5.36532 -0.22,0 -1.0881,-0.7875 -1.929,-1.75 z m 14.5577,-26.09848 c 3.526,-3.31253 5.0909,-10.18747 3.2965,-14.48216 -3.1504,-7.54004 -12.384,-10.34675 -16.5626,-5.0345 -3.7893,4.81732 -1.8741,11.38908 2.8794,9.88037 2.6893,-0.85354 2.6019,-3.01168 -0.202,-4.98672 -1.91,-1.3454 -2.0233,-1.72943 -0.75,-2.54139 0.825,-0.52607 2.9521,-0.96339 4.727,-0.97181 6.4727,-0.0307 8.7525,8.78717 3.6491,14.114 -6.5477,6.83432 -19.3815,0.53138 -19.3724,-9.51417 0.01,-7.5972 6.256,-14.31523 16.0106,-17.21203 10.0963,-2.99827 15.0306,-7.53542 13.4864,-12.40079 -1.268,-3.99521 -11.5262,-4.5778 -18.4273,-1.04653 -5.6905,2.91177 -14.7412,11.47266 -17.1771,16.24753 -3.3523,6.57099 -1.6425,16.67282 4.2985,25.39684 3.0087,4.41814 5.7786,5.39393 14.4919,5.10537 5.9404,-0.19673 7.6143,-0.63965 9.652,-2.55401 z m -38.8831,-35.26087 c 4.8319,-1.34149 14.253,-10.59142 17.3923,-17.07637 4.3648,-9.01655 1.9177,-15.81428 -5.6929,-15.81428 -4.8248,0 -6.5116,1.84795 -8.2148,9 -3.394,14.2515 -10.8672,20.71237 -20.8488,18.0246 -13.2962,-3.58028 -13.6909,-23.0246 -0.4674,-23.0246 3.6842,0 8.5967,5.2354 8.1934,8.73187 -0.3908,3.38713 -3.6989,4.43726 -4.4868,1.42428 -1.0609,-4.05674 -7.3306,-3.83757 -7.3306,0.25625 0,3.32047 3.3232,5.82622 7.8856,5.94585 10.4423,0.27381 11.8648,-12.63251 2.1144,-19.18336 -2.7373,-1.83907 -4.4301,-2.24962 -7.7683,-1.88397 -6.1836,0.67732 -11.8722,4.77716 -13.3163,9.59718 -4.5086,15.04816 14.4426,29.02701 32.5402,24.00255 z m -77.9556,-28.37273 c -7.747,-1.70832 -15.6639,-4.74576 -22.25,-8.53658 -7.9902,-4.59903 -7.3956,-5.2131 6.7238,-6.94308 10.4141,-1.276 25.1613,-1.3068 30.5262,-0.0638 4.975,1.15269 7.5046,4.15602 7.4847,8.88628 -0.021,5.01408 -1.0525,6.23022 -6.1129,7.20768 -5.8696,1.13374 -9.2492,1.0201 -16.3718,-0.55054 z"
       style="fill:#000000" />
  </g>
</svg>
