<?xml version="1.0" encoding="UTF-8" standalone="no"?>
<svg
   xmlns:dc="http://purl.org/dc/elements/1.1/"
   xmlns:cc="http://creativecommons.org/ns#"
   xmlns:rdf="http://www.w3.org/1999/02/22-rdf-syntax-ns#"
   xmlns:svg="http://www.w3.org/2000/svg"
   xmlns="http://www.w3.org/2000/svg"
   version="1.1"
   id="svg2"
   viewBox="0 0 413.5099 422.59103"
   height="119.26458mm"
   width="116.70168mm">
  <defs
     id="defs4" />
  <metadata
     id="metadata7">
    <rdf:RDF>
      <cc:Work
         rdf:about="">
        <dc:format>image/svg+xml</dc:format>
        <dc:type
           rdf:resource="http://purl.org/dc/dcmitype/StillImage" />
        <dc:title></dc:title>
      </cc:Work>
    </rdf:RDF>
  </metadata>
  <g
     transform="translate(1485.1838,-412.98899)"
     id="layer1">
    <path
       id="path3408"
       d="m -1473.5049,833.49825 c -3.5533,-1.54541 -4.8825,-3.29701 -6.1605,-8.11781 -0.8963,-3.38095 -2.6182,-8.19277 -3.8264,-10.69291 -2.6458,-5.47443 -1.5338,-8.89487 8.6885,-26.72655 7.0395,-12.27965 8.2307,-15.85468 3.6418,-10.92903 -6.2694,6.72946 -15.7035,1.87352 -12.5969,-6.48393 1.3053,-3.51137 6.5076,-4.30467 11.3242,-1.72683 5.5039,2.94556 2.9056,-2.75876 -2.9364,-6.44662 -6.6574,-4.2027 -7.2201,-7.22517 -1.7768,-9.54486 10.9085,-4.64869 11.2659,-8.72969 2.3747,-27.12059 -7.2582,-15.01268 -9.597,-25.16835 -5.7967,-25.16835 1.2557,0 3.3574,2.0789 4.6705,4.61977 1.3132,2.54087 7.7262,12.87785 14.2512,22.97105 6.525,10.09321 11.8635,19.26738 11.8635,20.38706 0,1.11968 -1.2793,3.66217 -2.8429,5.64998 -4.0789,5.1856 -3.7038,12.2677 0.8747,16.51313 l 3.7175,3.4471 -3.1639,4.27942 c -1.7402,2.35368 -7.5693,8.22369 -12.9538,13.04445 -5.3843,4.82075 -10.5356,10.16503 -11.4473,11.87616 -1.5589,2.92605 -1.4956,2.9846 1.0628,0.98396 14.3374,-11.21147 30.5759,-26.35359 31.2831,-29.1708 0.5612,-2.2362 -0.1734,-5.11762 -2.0991,-8.23349 l -2.9625,-4.79337 3.5433,-3.32881 c 2.5119,-2.35979 3.273,-4.18063 2.6146,-6.25514 -0.5108,-1.60949 -6.6589,-11.48788 -13.6624,-21.95198 -16.8256,-25.13968 -20.9694,-34.00225 -20.9707,-44.85197 -9e-4,-5.9169 -0.717,-9.20784 -2.4112,-11.07992 -2.078,-2.29608 -2.182,-3.51582 -0.7548,-8.85177 0.9104,-3.4038 3.9122,-9.93172 6.6708,-14.50648 4.5288,-7.51061 6.1374,-11.87143 4.3789,-11.87143 -0.3541,0 -2.2704,0.74116 -4.2585,1.647 -3.0119,1.37228 -4.0901,1.21697 -6.4635,-0.93103 -3.413,-3.08861 -3.6917,-8.19884 -0.6151,-11.27543 2.8411,-2.84108 3.1941,-2.8138 8.9431,0.69112 2.6289,1.60282 5.0367,2.65756 5.3504,2.34388 1.4306,-1.43062 -5.6747,-8.01075 -10.9135,-10.10692 -6.9163,-2.76736 -7.1522,-6.48073 -0.5208,-8.19912 4.2604,-1.10395 10.2602,-6.19862 8.9009,-7.55796 -0.3725,-0.37251 -2.7117,0.0905 -5.1983,1.02915 -3.8517,1.45387 -4.8789,1.34831 -6.9404,-0.71311 -3.2589,-3.25891 -1.0305,-10.08672 3.504,-10.73655 4.2294,-0.60608 4.0315,-2.25545 -1.7798,-14.83327 -5.0696,-10.9725 -6.7186,-18.27748 -4.4105,-19.53843 0.7156,-0.39091 2.8725,2.16773 4.7934,5.68586 1.9208,3.51813 7.0923,11.11067 11.4923,16.8723 15.3449,20.09411 15.0281,19.47902 13.1897,25.61519 -2.6374,8.80285 -2.0658,14.10883 1.9174,17.80037 1.9545,1.81138 3.5537,4.03198 3.5537,4.93466 0,0.90269 -4.5456,6.90147 -10.1012,13.33064 -9.3281,10.79467 -18.4219,25.23761 -15.8645,25.19632 0.5995,-0.009 2.4422,-2.08857 4.0948,-4.61976 1.6527,-2.53119 7.7557,-10.03928 13.5623,-16.68464 5.8065,-6.64535 11.6506,-13.66404 12.9866,-15.59706 2.9247,-4.23144 3.1963,-9.98934 0.4712,-9.98934 -1.0771,0 -2.7645,-0.97149 -3.7499,-2.15887 -1.4607,-1.75999 -1.3616,-2.63422 0.5367,-4.73169 4.8219,-5.32816 1.7263,-11.83888 -15.2878,-32.15419 -15.6287,-18.66101 -19.7939,-30.98354 -16.1115,-47.66473 1.0669,-4.83327 1.0342,-4.88394 -1.1467,-1.77683 -6.5632,9.35012 -6.0816,-3.87528 0.8308,-22.8156 2.3096,-6.32846 3.7181,-11.96533 3.1299,-12.52637 -0.5882,-0.56104 -2.6685,-1.23416 -4.623,-1.49581 -2.7161,-0.3636 -3.5537,-1.31333 -3.5537,-4.0294 0,-3.05526 0.7708,-3.65334 5.4958,-4.2644 l 5.4958,-0.71073 -5.8512,-4.68676 c -5.7983,-4.64437 -7.2279,-8.29326 -4.3695,-11.15177 1.0281,-1.02797 0.8104,-2.03891 -0.7107,-3.30128 -3.26,-2.70552 -2.6813,-5.56003 2.0168,-9.9486 l 4.209,-3.93189 -2.7876,-5.46778 c -1.5332,-3.00728 -2.7576,-8.05108 -2.7209,-11.20845 l 0.066,-5.74069 3.8423,4.93351 c 2.1133,2.71342 9.4091,11.08853 16.2132,18.61135 l 12.3708,13.67784 -5.544,5.4136 c -5.3108,5.18585 -5.4595,5.57693 -3.5364,9.29607 1.1043,2.13536 3.6292,4.28944 5.6111,4.78684 1.9818,0.4974 3.6032,1.82467 3.6032,2.94948 0,1.12481 -4.7974,7.17503 -10.661,13.44494 -5.8635,6.26991 -10.6609,11.77685 -10.6609,12.23765 0,2.18142 13.5444,-10.62277 19.2112,-18.16123 6.9876,-9.29554 7.5771,-11.62227 3.9582,-15.62115 -2.4582,-2.71636 -2.4197,-3.01294 1.6589,-12.7701 0.761,-1.82036 -2.721,-6.334 -13.9868,-18.13082 -11.335,-11.86913 -15.3816,-17.1237 -16.5614,-21.50477 -2.2985,-8.53608 -0.6607,-13.80335 5.1543,-16.57633 6.879,-3.28036 11.917,-1.25465 14.634,5.88414 1.911,5.02077 1.879,5.6536 -0.3682,7.29682 -3.1484,2.30215 -7.5019,1.15895 -10.2707,-2.69696 -2.0941,-2.91625 -2.1542,-2.84998 -1.7334,1.90861 0.6516,7.36638 7.3832,11.41712 18.9732,11.41712 9.9723,0 10.603,0.62011 10.603,10.42641 0,3.26123 1.2963,10.40509 2.8808,15.87525 5.4095,18.67488 5.8288,21.68663 3.7215,26.73009 -1.0712,2.56367 -7.8184,11.66967 -14.9938,20.23557 -14.0786,16.80672 -16.0034,20.63314 -12.3883,24.62773 3.4171,3.77583 2.8074,6.83342 -1.9192,9.62548 -2.3208,1.37099 -4.5629,3.38667 -4.9821,4.47929 -1.0462,2.72616 3.5002,12.48797 9.4062,20.1966 19.0527,24.86817 22.9103,30.36539 26.0668,37.14589 1.9536,4.19667 3.5582,9.54011 3.5659,11.87432 0.022,6.68297 -6.4299,17.75177 -18.7352,32.14292 -16.1502,18.88772 -18.8874,25.60506 -12.2337,30.02294 l 3.1325,2.07988 -4.5539,5.5247 c -2.5047,3.0386 -4.554,5.99213 -4.554,6.56346 0,0.57129 6.4035,10.60317 14.2301,22.29304 18.4767,27.597 22.13,35.54378 24.6492,53.61764 1.0994,7.88805 2.7179,15.68507 3.5964,17.32671 2.3928,4.4709 -0.4906,5.3095 -6.3563,1.84867 -2.7553,-1.62566 -6.4607,-2.95574 -8.2342,-2.95574 -4.6148,0 -9.5136,5.89231 -10.4014,12.51068 -0.7622,5.68243 -0.7627,5.68287 -8.4269,6.64045 -10.0839,1.2599 -16.1642,6.13427 -16.1642,12.95823 0,6.73081 2.0271,6.066 3.636,-1.19245 1.2529,-5.652 1.6773,-6.06936 6.5887,-6.47758 12.7496,-1.05977 15.2878,13.98953 3.2104,19.03576 -5.9189,2.47307 -8.595,2.46005 -14.4124,-0.0701 z m 13.7705,-9.20596 c 0,-0.73568 -0.6397,-1.73292 -1.4215,-2.21611 -0.7818,-0.48317 -1.4214,0.1187 -1.4214,1.33757 0,1.21886 0.6396,2.21611 1.4214,2.21611 0.7818,0 1.4215,-0.60191 1.4215,-1.33757 z m 33.1327,10.22549 c -22.9145,-0.49545 -22.9158,-0.4963 -21.0994,-12.60893 1.0952,-7.30385 4.0048,-9.68892 13.5531,-11.11 3.5182,-0.5236 9.0874,-2.52878 12.376,-4.45594 l 5.9795,-3.50395 -0.7492,-153.13934 c -0.4122,-84.22665 -1.2904,-164.96013 -1.9518,-179.40774 -1.181,-25.80007 -1.2677,-26.32464 -4.8697,-29.42291 -2.0462,-1.76008 -7.4653,-3.90173 -12.2592,-4.84485 -14.2803,-2.80949 -18.5868,-8.7864 -13.8389,-19.20685 l 1.7443,-3.82829 21.3546,0.91804 c 11.7449,0.50492 80.3631,1.34301 152.4848,1.86241 l 131.1303,0.94435 0,34.77874 0,34.77873 -5.0033,-0.81192 c -2.7518,-0.44656 -6.8006,-2.28932 -8.9975,-4.09502 -3.4162,-2.80806 -30.7021,-34.01484 -36.0743,-41.25811 -1.6545,-2.23085 -8.4914,-2.52217 -80.3445,-3.42346 l -78.5361,-0.98513 0,25.14544 c 0,21.51954 0.3213,25.26872 2.2279,26.00031 3.4187,1.3119 5.2141,-1.5052 5.9695,-9.36611 0.4877,-5.07555 0.036,-8.16439 -1.5481,-10.58173 -2.7621,-4.21562 -1.9115,-5.16118 4.6432,-5.16118 8.5692,0 15.5951,-6.20179 15.6703,-13.83223 0.056,-5.71148 -0.9842,-5.47848 33.531,-7.5094 l 27.0892,-1.59397 18.3978,3.98452 c 18.1375,3.9282 29.4034,4.67642 38.8556,2.58062 4.6659,-1.03457 4.7916,-0.94879 3.8873,2.65388 -1.4068,5.60529 3.1369,9.45217 11.1643,9.45217 l 6.3694,0 -0.8535,6.22669 c -0.7128,5.2 -0.3391,6.74107 2.2663,9.34641 2.5614,2.56152 4.0987,2.95433 8.5914,2.19529 4.578,-0.77344 5.7216,-0.45787 7.0006,1.93186 0.8406,1.57098 1.5285,4.39839 1.5285,6.28313 0,5.51342 4.771,8.64083 13.8601,9.08531 7.0516,0.34483 8.4606,0.92793 11.4395,4.73443 4.1287,5.27553 12.8772,9.94822 18.6254,9.94822 2.3305,0 4.6333,0.64086 5.1173,1.42413 2.0446,3.30831 -7.7295,4.47991 -33.5452,4.02098 -27.4752,-0.48845 -31.1332,-1.28979 -31.1332,-6.82032 0,-3.78079 -4.4115,-6.89655 -10.4832,-7.40399 -4.8891,-0.4086 -5.6879,-1.01945 -7.1073,-5.43547 -1.306,-4.06275 -2.3813,-5.0466 -5.8637,-5.36491 -8.9702,-0.81988 -10.4099,-1.64978 -12.183,-7.0223 -1.4764,-4.47336 -1.898,-4.85395 -2.7564,-2.48821 -0.5574,1.53613 -1.4649,5.8558 -2.0164,9.59929 -1.8839,12.78432 -7.3716,21.19346 -17.1204,26.2348 -3.9539,2.04459 -4.0658,2.30101 -1.451,3.32177 1.5585,0.60839 26.5905,1.15111 55.6267,1.20606 47.0769,0.089 54.2964,0.40922 66.6768,2.95657 7.6359,1.57116 14.082,2.65816 14.3246,2.41554 0.2427,-0.24261 -5.0744,-9.04411 -11.8156,-19.55889 -20.8165,-32.46934 -24.6779,-43.40075 -21.9083,-62.02196 0.8603,-5.78433 1.5642,-13.2947 1.5642,-16.68971 0,-5.19977 0.5041,-6.30785 3.1982,-7.02986 1.7592,-0.47141 15.9915,-0.86414 31.6277,-0.87273 l 28.4294,-0.0157 -0.4164,30.20238 c -0.2291,16.6113 -0.3727,32.76102 -0.3193,35.88825 0.054,3.12723 0.057,12.13799 0.011,20.02393 -0.05,7.88592 0.5699,16.07148 1.3754,18.19012 1.1836,3.11304 0.7981,5.43539 -2.0091,12.10495 l -3.4735,8.25288 2.6903,11.02989 c 4.0549,16.62387 4.72,24.90095 2.9286,36.44701 -1.9649,12.664 -6.2261,20.40576 -14.5031,26.34933 -9.0019,6.46416 -16.5091,9.18454 -25.4639,9.22736 -12.7312,0.0609 -17.8487,-1.48989 -24.6381,-7.46619 -9.2615,-8.15185 -12.2281,-15.28924 -12.2281,-29.41952 0,-6.39854 -0.512,-11.63368 -1.138,-11.63368 -1.8352,0 -9.3697,12.73146 -11.2782,19.05736 -3.5454,11.75249 -1.3404,38.54124 4.7881,58.16813 5.0391,16.13842 15.109,34.87365 38.3323,71.3178 35.5452,55.7812 36.6567,58.18206 40.446,87.36058 0.8586,6.61256 2.1603,13.14222 2.8925,14.51036 2.458,4.5927 -3.3113,5.7087 -33.7155,6.52186 l -28.9554,0.77444 -0.1,-8.38595 c -0.055,-4.61227 -0.706,-9.66527 -1.4468,-11.22887 -0.9155,-1.93221 -1.1254,0.91383 -0.6553,8.88415 l 0.6915,11.72711 -133.218,-0.3131 c -73.2698,-0.1722 -142.2956,-0.50936 -153.3903,-0.74924 z m 328.9564,-9.74864 c 3.9753,-2.52031 6.8736,-8.09907 8.1259,-15.64055 2.3595,-14.20957 -10.2157,-42.18671 -32.9808,-73.37407 -13.1084,-17.95822 -20.4711,-22.71177 -22.5217,-14.54083 -1.7159,6.83647 3.2523,15.3582 19.424,33.31707 23.9038,26.54556 31.1805,38.78755 31.1805,52.4571 0,8.08044 -3.0793,12.81674 -10.6765,16.42186 -6.2202,2.95169 -13.2952,1.16761 -17.7306,-4.47107 -5.0506,-6.42071 -2.4169,-18.2057 4.2421,-18.98312 9.953,-1.16195 14.3741,2.85224 11.4916,10.43383 -1.9786,5.20403 -5.131,4.88134 -7.337,-0.75101 l -1.8094,-4.61977 -0.5684,4.03474 c -0.5868,4.16579 2.8128,9.4692 6.0699,9.4692 0.9461,0 3.4057,-1.32574 5.4656,-2.94611 2.8889,-2.27243 3.7453,-4.19906 3.7453,-8.42562 0,-4.22656 -0.8564,-6.15319 -3.7453,-8.42564 -9.1492,-7.1967 -24.684,0.72717 -24.684,12.59056 0,5.39639 7.1576,13.81522 13.293,15.63538 5.4378,1.61316 14.7076,0.54952 19.0158,-2.18195 z m -87.5628,-21.53683 c 4.981,-5.28238 14.4396,-15.85121 21.0193,-23.4863 11.8923,-13.8001 17.6065,-17.67223 20.1508,-13.65479 0.6859,1.08306 1.2668,9.96497 1.2907,19.73756 0.024,9.77259 0.6386,18.70931 1.3659,19.85938 1.6063,2.53977 2.017,2.15849 4.7305,-4.39123 2.6556,-6.40992 10.622,-12.61766 18.8847,-14.71563 l 6.3015,-1.6 -4.2608,-5.79372 c -8.2671,-11.24155 -27.9486,-21.57587 -37.6313,-19.75939 -6.9781,1.3091 -16.3913,10.40973 -16.4201,15.87486 -0.03,5.70403 -1.1957,7.08709 -8.6754,10.29321 -7.8135,3.34932 -12.0684,8.36847 -13.3066,15.69681 l -0.9174,5.43035 -24.0821,0.9776 c -33.858,1.37443 -36.6603,0.44533 -61.7389,-20.46919 -17.7178,-14.77587 -24.2617,-18.38576 -33.4046,-18.42722 -16.4276,-0.0744 -27.4964,15.08149 -20.6638,28.29424 2.4762,4.78853 4.6806,5.78754 12.7704,5.78754 11.3709,0 17.4303,-9.23825 11.0918,-16.9109 -5.0245,-6.08202 -16.5376,-3.21141 -18.5695,4.62998 -1.6673,6.4344 -4.5294,6.46568 -4.5294,0.0495 0,-9.27546 7.7316,-17.61938 16.3263,-17.61938 3.9639,0 22.4063,13.54989 32.4694,23.85555 8.2938,8.49382 8.8203,8.14664 -16.6735,10.99503 -25.5315,2.8526 -33.9396,2.75395 -36.8228,-0.43203 -5.9384,-6.56185 -8.4849,-20.93409 -5.2272,-29.50227 1.1718,-3.08225 0.8594,-4.74307 -1.6584,-8.81707 -4.1048,-6.64167 -4.0747,-15.4563 0.076,-22.17184 l 3.1779,-5.14213 -4.0072,-7.13464 c -2.2039,-3.92406 -4.4869,-7.13529 -5.0732,-7.13609 -0.5864,-7.9e-4 -1.0661,19.18835 -1.0661,42.64256 l 0,42.644 78.0085,0 78.0085,0 9.0563,-9.60434 z m 51.2281,-19.6708 c -2.5466,-1.78376 -3.1446,-3.37523 -2.8039,-7.4627 0.3682,-4.41557 0.9932,-5.26036 4.1636,-5.62797 2.0635,-0.23927 4.7628,0.59999 6.0411,1.87837 4.0832,4.08319 2.2484,13.47957 -2.6322,13.47957 -0.8423,0 -2.9882,-1.02027 -4.7686,-2.26727 z m -74.8655,11.45588 c 12.6518,-6.13679 26.1689,-20.28747 31.0674,-32.52356 7.1796,-17.93438 6.4822,-40.90077 -2.051,-67.53967 -4.7213,-14.73879 -4.6813,-20.62649 0.1699,-25.01669 9.0322,-8.17403 24.7044,5.64968 16.1281,14.2259 -3.542,3.54208 -6.8691,2.1088 -7.3802,-3.17941 -0.5256,-5.43796 -2.4407,-6.04011 -3.6672,-1.15311 -1.4402,5.73812 1.2287,10.15023 7.7084,12.74284 5.1412,2.05711 5.812,2.80818 4.9376,5.52915 -2.5791,8.02621 -2.4261,12.09893 0.5668,15.09187 3.7926,3.79258 10.6343,3.85897 14.354,0.1393 6.3855,-6.3855 0.2949,-18.47907 -9.3065,-18.47907 -2.3338,0 -2.5432,-0.96582 -2.1574,-9.95026 0.4644,-10.81313 -6.702,-23.3454 -15.413,-26.95365 -6.0259,-2.49598 -6.3271,-5.05992 -1.2713,-10.81828 5.603,-6.38141 5.7333,-11.54891 0.4653,-18.45552 l -3.9917,-5.23347 3.0441,-6.26572 c 3.7763,-7.77289 3.8165,-11.30204 0.1959,-17.24037 -3.841,-6.29977 -3.572,-8.74173 1.1442,-10.38579 2.1901,-0.76345 5.0549,-3.20438 6.3661,-5.4243 1.3114,-2.21991 5.2136,-7.18303 8.6716,-11.02917 13.3465,-14.84451 30.6414,-19.2699 42.63,-10.90808 6.6852,4.66289 10.7684,11.601 9.8021,16.65585 -0.3622,1.89489 -2.4034,5.53529 -4.536,8.08977 l -3.8775,4.64453 0.6205,-8.57622 c 0.768,-10.61801 -1.0015,-14.24324 -7.5517,-15.47207 -14.8063,-2.77769 -25.1116,14.72775 -19.2054,32.62385 4.9946,15.13364 27.1661,21.73282 43.9159,13.07118 8.6517,-4.47397 19.4733,-26.77903 18.2617,-37.64036 -1.0112,-9.0662 -11.6087,-29.11303 -18.5153,-35.0248 -13.182,-11.28341 -23.0466,-12.60224 -108.9932,-14.57191 -54.4228,-1.24721 -55.6918,-1.46717 -67.3092,-11.66738 -6.9634,-6.11401 -9.45,-11.16788 -9.45,-19.20682 0,-9.38883 5.9277,-19.16695 11.6195,-19.16695 3.8704,0 3.1374,3.32891 -1.4857,6.74689 -5.2221,3.86085 -6.1133,8.74835 -2.9028,15.9192 2.5059,5.59713 8.7321,10.66537 15.1664,12.34576 5.5891,1.45964 12.4843,-0.77403 18.6311,-6.03547 8.023,-6.86746 10.5625,-12.23177 10.4237,-22.01891 -0.3536,-24.94378 -23.7799,-40.2829 -54.0676,-35.40259 -14.1382,2.2781 -22.5837,6.68861 -32.9308,17.19768 -11.8453,12.03063 -16.8963,22.90568 -18.48,39.788 -2.1893,23.33962 0.5803,36.70757 13.5241,65.27625 3.7193,8.20897 7.0801,17.63682 7.4685,20.9508 0.6498,5.54602 0.2524,6.47899 -4.9957,11.72709 -7.4061,7.40604 -13.6517,7.81783 -20.1415,1.32798 -6.1465,-6.14644 -6.361,-11.47797 -0.6678,-16.59289 4.2171,-3.78875 8.5863,-4.09231 12.1737,-0.8458 3.1054,2.81039 3.3134,6.07808 0.621,9.75998 -1.6939,2.31668 -2.3119,2.42877 -4.2987,0.77986 -3.1683,-2.62945 -4.7923,-0.60917 -1.8642,2.319 1.9358,1.93578 2.9903,2.05888 5.9776,0.69781 5.3251,-2.42633 7.273,-7.59471 4.9636,-13.17029 -1.9549,-4.71949 -8.8117,-9.83186 -13.199,-9.84088 -1.4196,-0.003 -3.86,-0.68981 -5.4232,-1.52642 -2.8004,-1.49875 -2.7917,-1.58752 0.5996,-6.04123 5.6611,-7.43458 5.996,-10.43066 1.8365,-16.43287 -3.4004,-4.90662 -3.8084,-7.15093 -5.2157,-28.68817 -0.8396,-12.85081 -2.0717,-24.64442 -2.7378,-26.20804 -0.6954,-1.63199 -1.2523,22.50175 -1.3075,56.65887 l -0.096,59.50179 62.1891,-0.62921 c 38.6445,-0.391 63.5347,-1.19275 65.7428,-2.11765 1.9546,-0.81864 8.9909,-6.10926 15.6362,-11.7569 14.1013,-11.98425 17.7799,-14.08166 20.2945,-11.57136 1.8099,1.80676 3.4229,61.4913 1.8331,67.82567 -1.7859,7.11521 -10.429,4.58354 -19.4883,-5.70825 -7.2273,-8.21056 -14.903,-11.72074 -29.6098,-13.54077 -14.4559,-1.78897 -52.558,-1.94413 -55.2709,-0.22509 -3.5238,2.23274 0.887,3.1975 7.0417,1.54021 11.8855,-3.20043 25.4484,3.30287 25.4484,12.20228 0,1.7891 -1.656,5.22097 -3.68,7.62636 -2.8167,3.34751 -4.8456,4.37348 -8.6483,4.37348 l -4.9682,0 4.2878,5.33049 c 2.3583,2.93178 13.3202,15.24524 24.3598,27.36324 34.8647,38.27075 39.8217,46.15556 39.8217,63.34146 0,10.80524 -1.2058,14.29712 -7.3553,21.30105 -6.4845,7.38554 -14.0568,10.53334 -25.3385,10.53334 -20.8832,0 -34.4607,-13.86186 -32.2147,-32.88946 1.3792,-11.6842 8.2875,-21.92245 17.0266,-25.23357 18.6259,-7.05717 40.7329,11.47828 35.3034,29.60002 -1.8437,6.15388 -10.8345,15.19256 -16.5351,16.62335 -10.4052,2.61155 -23.4807,-7.03218 -23.4807,-17.31812 0,-6.43505 3.6635,-12.7479 9.4927,-16.35766 5.4929,-3.40149 10.0639,-2.55807 15.2019,2.80492 7.8206,8.1629 5.3738,17.26884 -4.7172,17.55576 -5.2581,0.1495 -6.9579,-1.21629 -7.4987,-6.0253 -0.358,-3.1839 0.049,-3.48043 4.2235,-3.07715 4.7284,0.45678 6.4478,-1.9663 2.4766,-3.49014 -3.8515,-1.47797 -9.2285,3.3552 -9.2285,8.29518 0,10.22658 9.2827,12.79402 17.6671,4.88645 5.9402,-5.60224 6.5535,-10.54041 2.197,-17.68603 -6.2361,-10.22845 -19.6915,-10.67374 -28.2425,-0.93466 -8.0219,9.13638 -7.6264,19.10967 1.1038,27.83994 18.1219,18.12191 48.3746,-2.65716 41.4279,-28.45488 -6.2248,-23.11748 -39.6634,-28.31023 -54.0869,-8.39926 -4.6447,6.41175 -8.4957,17.56701 -8.4957,24.60922 0,11.85928 9.314,26.57369 20.4086,32.24165 9.4284,4.81678 12.2667,5.35993 25.789,4.93515 10.7235,-0.33685 14.173,-1.07116 21.322,-4.53877 z m -7.8181,-3.01885 c 0,-0.51568 3.4381,-4.54208 7.6403,-8.94756 11.5343,-12.09259 14.3382,-18.34676 14.3679,-32.04814 0.031,-14.0876 -2.8045,-19.84273 -12.0904,-24.54405 -3.5002,-1.77211 -6.5629,-3.80765 -6.8058,-4.52339 -0.2429,-0.71575 0.5567,-3.23195 1.7769,-5.59154 4.5471,-8.79335 1.5865,-13.52332 -9.7957,-15.64974 -3.7522,-0.701 -7.3717,-2.14169 -8.0433,-3.20152 -0.6715,-1.05983 -1.2308,-5.58011 -1.2428,-10.04506 l -0.022,-8.11808 -12.4218,-0.41072 c -14.5456,-0.48093 -15.6986,-1.80632 -8.9537,-10.29353 4.6482,-5.84907 5.3492,-10.96211 2.9324,-21.3882 -1.7912,-7.72696 0.1457,-9.11714 5.9195,-4.24877 6.6818,5.63385 12.692,7.80119 21.6336,7.80119 4.279,0 8.1258,0.55978 8.5487,1.24398 0.4228,0.68418 -0.2471,4.22547 -1.4888,7.86949 -3.6131,10.60394 0.5428,17.15307 11.5488,18.19963 3.9363,0.37431 4.2343,0.78823 3.873,5.38064 -1.1402,14.4944 -1.1399,14.4963 2.6981,17.38226 2.0505,1.54185 5.8885,3.2729 8.5288,3.84676 3.1562,0.686 4.6108,1.73267 4.2465,3.05574 -0.3048,1.10682 -0.977,14.16591 -1.4939,29.02025 -0.8272,23.77403 -1.3059,27.70849 -3.9977,32.85929 -4.042,7.73433 -9.6499,14.27024 -16.5047,19.23583 -5.1454,3.72731 -10.8541,5.36575 -10.8541,3.11524 z m 91.6846,-180.86216 c -3.1272,-1.44785 -7.5851,-4.65355 -9.9065,-7.12376 -3.7617,-4.00302 -4.2636,-5.60649 -4.6167,-14.74928 l -0.3961,-10.25799 2.6657,5.76829 c 2.8936,6.26132 10.387,13.42151 14.0461,13.42151 3.9193,0 14.4089,-5.76317 17.3918,-9.55535 5.0131,-6.37307 2.8332,-19.03438 -4.4576,-25.89088 -6.2065,-5.83687 -12.3247,-7.48092 -25.6232,-6.88535 -16.4092,0.7349 -23.6293,4.92531 -30.6891,17.81128 -2.6771,4.88629 -5.4654,8.88417 -6.1963,8.88417 -0.731,0 -1.9974,-1.7579 -2.8142,-3.90643 -2.3821,-6.26515 -5.58,-8.88678 -10.8406,-8.88678 -7.5711,0 -10.1533,2.2597 -15.1755,13.28018 -4.7886,10.50788 -11.6744,17.9921 -16.5534,17.9921 -1.4765,0 -4.9456,-1.98525 -7.7091,-4.41166 -4.0394,-3.54674 -5.0246,-5.4355 -5.0246,-9.63399 0,-8.19358 3.324,-11.77917 10.4389,-11.26061 5.8508,0.42642 5.908,0.48452 5.908,5.998 0,6.09528 -3.2186,8.81427 -4.524,3.82189 -1.2018,-4.59506 -4.9989,-3.81396 -4.4546,0.91633 0.3705,3.2199 1.2329,3.98521 4.8913,4.34116 9.8265,0.95607 12.3398,-9.52153 4.2294,-17.63187 -3.7695,-3.76964 -6.0001,-4.83299 -10.1378,-4.83299 -5.435,0 -14.88,4.71783 -14.88,7.4327 0,0.83321 1.3736,5.28206 3.0525,9.88633 2.6054,7.14578 2.8153,9.1623 1.4336,13.77382 -0.8902,2.97135 -2.8775,6.54172 -4.416,7.93418 -3.4291,3.10321 -14.231,4.50647 -18.2272,2.36782 -4.0282,-2.15584 -6.4642,-10.0963 -4.9226,-16.04569 1.2018,-4.63799 1.3907,-4.73789 8.9555,-4.73789 7.2952,0 7.7277,0.19887 7.7277,3.55366 0,2.984 -0.7544,3.62611 -4.7061,4.00554 -5.1414,0.49366 -5.3687,2.4393 -0.6507,5.57191 2.6868,1.78393 3.3381,1.68076 5.9633,-0.94445 3.4928,-3.49276 3.7688,-8.60681 0.7767,-14.39279 -1.1937,-2.30843 -12.4564,-14.90995 -25.0281,-28.00338 -23.4975,-24.47272 -33.8391,-38.02859 -36.5963,-47.97117 -2.2699,-8.18527 -1.9538,-24.73089 0.6167,-32.27479 2.972,-8.72232 10.7555,-17.48545 19.6275,-22.09773 9.5759,-4.97829 22.9366,-5.29984 31.5652,-0.75968 7.4165,3.90242 15.4188,12.77025 17.6647,19.57546 5.1208,15.51617 -6.3801,32.00307 -22.3246,32.00307 -5.6783,0 -11.9204,-3.18037 -10.0038,-5.09699 0.5858,-0.58577 4.687,-1.55655 9.1139,-2.15728 11.3083,-1.53457 15.225,-5.63551 15.327,-16.0482 0.1288,-13.1385 -7.9164,-20.98805 -22.4605,-21.91415 -13.4066,-0.85368 -21.5851,4.46502 -29.0752,18.90855 -5.7388,11.06656 -5.2464,21.34651 1.6448,34.33623 2.9646,5.58819 9.0914,14.54343 13.615,19.90054 10.5921,12.54356 33.6883,33.61077 35.9941,32.83198 1.0148,-0.34274 -3.8702,-6.17104 -11.3693,-13.56461 -11.6939,-11.52956 -15.0795,-15.92379 -12.2684,-15.92379 0.4841,0 4.5675,2.23991 9.0741,4.97759 10.0943,6.1319 15.7943,7.49211 18.3734,4.38447 3.1167,-3.75537 8.0604,-2.79832 10.0232,1.94038 2.0916,5.04951 7.5907,8.93853 11.7793,8.33057 1.6796,-0.24376 4.7877,-3.00186 6.9071,-6.12908 2.1193,-3.12723 4.5013,-5.68587 5.2932,-5.68587 0.792,0 2.9436,2.23881 4.7814,4.97513 4.878,7.2628 10.9114,7.54906 17.6243,0.83622 5.6568,-5.65686 5.8462,-9.46259 0.5444,-10.93783 -1.9504,-0.5427 -15.0601,-1.06317 -29.1326,-1.15659 -43.0458,-0.28575 -55.477,-3.44998 -69.7636,-17.75747 -16.2509,-16.27464 -17.8707,-36.41623 -3.9765,-49.44496 15.4984,-14.53306 40.3356,-8.01453 40.3356,10.58608 0,4.50553 -2.0411,8.17295 -4.5486,8.17295 -0.6255,0 -1.1372,-2.44714 -1.1372,-5.43809 0,-7.47537 -4.7741,-11.8349 -13.813,-12.61358 -21.9005,-1.88667 -29.453,26.26665 -11.5916,43.20989 11.9586,11.34389 22.8728,12.94613 98.6101,14.47619 53.7552,1.08597 57.3011,1.32001 64.9634,4.28774 10.7861,4.17764 21.2025,13.70995 25.3519,23.20033 4.5025,10.29766 5.5893,29.75931 2.0754,37.16429 -2.8948,6.10055 -10.3464,12.25927 -18.8586,15.58663 -7.7602,3.03347 -12.4352,2.9563 -19.5164,-0.32216 z m 27.3205,-15.40734 c 6.612,-9.73721 7.3975,-15.33824 3.8343,-27.33689 -2.9854,-10.05289 -14.0328,-21.37009 -24.0929,-24.68128 -9.8268,-3.23439 -24.6373,-5.15599 -39.9947,-5.18917 -18.5058,-0.0399 -22.5447,2.18389 -12.1987,6.71676 4.1537,1.81987 10.1944,2.35624 27.3632,2.42965 24.5084,0.10483 29.459,1.36551 38.0632,9.69315 4.9295,4.77103 8.8452,15.11642 8.8452,23.36921 0,6.90455 -3.296,13.73866 -8.3679,17.35017 -2.4339,1.73307 -4.4253,3.76356 -4.4253,4.51221 0,2.36134 8.1863,-2.75908 10.9736,-6.86381 z m -104.7904,-30.02722 c 0,-3.19915 -2.7254,-5.88627 -5.9702,-5.88627 -3.4267,0 -3.2297,2.65612 0.4909,6.61655 3.2948,3.50706 5.4793,3.21592 5.4793,-0.73028 z m 33.3238,-1.93816 c 2.7685,-3.95248 2.8215,-7.35935 0.1489,-9.57736 -2.8507,-2.36581 -7.0476,-0.7261 -9.4021,3.67328 -1.8053,3.37325 -1.6917,3.9089 1.3514,6.37304 4.2473,3.4393 5.2042,3.38252 7.9018,-0.46896 z m -64.3758,-4.65885 c -0.7982,-4.62741 -3.1155,-6.7013 -5.384,-4.8186 -2.0793,1.7257 -2.5924,5.82819 -0.936,7.4846 0.5542,0.55417 2.3132,0.82069 3.909,0.59226 2.0244,-0.28977 2.7532,-1.27472 2.411,-3.25826 z m -50.5188,43.35136 c -6.4749,-4.39833 -9.7139,-5.68248 -14.3331,-5.68248 -3.2824,0 -6.2958,-0.32793 -6.6966,-0.72875 -0.4009,-0.40081 -0.1219,-4.25084 0.6197,-8.55562 1.6819,-9.76174 -0.5554,-13.95593 -8.4675,-15.87425 -5.1021,-1.237 -5.3737,-1.58038 -4.9023,-6.19917 1.3725,-13.44997 1.1429,-14.53954 -3.7654,-17.86696 -2.5784,-1.74793 -5.2067,-3.38104 -5.8409,-3.62915 -1.8933,-0.74077 1.0832,-49.3955 3.5493,-58.02052 2.9916,-10.46238 9.5551,-20.44489 17.3613,-26.40539 7.2442,-5.53139 9.4389,-5.30825 4.789,0.48688 -10.1952,12.70578 -15.5226,24.69423 -16.8872,38.00098 -1.1623,11.33493 1.6096,18.88954 9.7568,26.59121 6.8654,6.49012 7.05,6.87426 6.1592,12.81523 -1.2209,8.14199 2.719,13.50179 10.885,14.80759 l 5.6891,0.90971 -0.9079,6.6012 c -0.7506,5.45753 -0.3817,7.27015 2.1293,10.46236 1.9393,2.46544 4.413,3.86906 6.8431,3.88294 7.0541,0.0404 8.1024,1.71789 6.2065,9.93142 -2.0521,8.89032 -2.1522,15.6537 -0.3036,20.51582 2.072,5.45002 -1.8443,4.77674 -11.8838,-2.04305 z m -44.9572,157.81879 c 2.181,-4.07531 -3.0472,-9.30352 -7.1224,-7.12248 -2.6936,1.44154 -3.8463,7.00168 -1.8627,8.98518 1.9834,1.98352 7.5435,0.83085 8.9851,-1.8627 z m 38.6943,-2.52015 c 1.9396,-2.93178 6.1406,-9.84616 9.3354,-15.36529 9.5096,-16.42831 18.186,-22.89832 37.1463,-27.69972 l 6.2671,-1.58704 -26.8785,-26.95487 c -36.6953,-36.7998 -45.234,-43.09681 -50.8388,-37.49194 -2.9315,2.93153 -3.0174,8.32771 -0.17,10.69079 2.9355,2.43632 4.5312,0.49669 2.3994,-2.91681 -0.9477,-1.51743 -1.7231,-3.0875 -1.7231,-3.48901 0,-1.5638 4.6209,-0.6039 9.6516,2.00494 9.6576,5.00833 53.0885,47.01638 48.6089,47.01638 -0.9376,0 -11.3914,-6.04932 -23.2306,-13.4429 -34.1229,-21.30962 -41.5254,-22.5581 -57.4773,-9.69372 l -3.2578,2.62715 10.2548,10.25474 c 11.4569,11.4569 15.4595,12.74372 21.0683,6.77338 3.4972,-3.72253 3.1307,-7.89039 -0.6939,-7.89039 -1.5781,0 -2.0132,0.81741 -1.4238,2.67461 1.1795,3.71586 -3.0478,5.05613 -7.2541,2.3 -1.8444,-1.20846 -3.3534,-3.46178 -3.3534,-5.00738 0,-4.14484 5.0769,-8.49603 9.9131,-8.49603 4.9472,0 38.2847,16.49909 45.4875,22.51228 l 4.8983,4.08928 -25.5323,-0.15221 -25.5324,-0.15221 -9.2504,4.54055 c -5.0877,2.49731 -11.1026,6.47378 -13.3663,8.8366 l -4.1158,4.29605 3.956,6.0888 c 7.7344,11.90402 13.3839,15.50217 20.6963,13.18133 2.4022,-0.76241 2.8724,-1.90995 2.5195,-6.14717 -0.5071,-6.08788 -4.4134,-7.33818 -5.1741,-1.65609 -0.7206,5.3824 -2.6215,6.53961 -5.8873,3.58406 -3.9705,-3.59329 -3.5982,-8.06281 1.0325,-12.39538 9.1059,-8.51957 26.0871,-13.75797 47.9745,-14.79936 14.3551,-0.683 15.4101,-0.56149 12.877,1.48308 -1.5177,1.22489 -3.6324,2.22706 -4.6995,2.22706 -3.8616,0 -19.6745,8.82194 -24.9968,13.94555 -8.8412,8.51101 -13.2408,18.98601 -10.7387,25.56725 2.8776,7.56868 6.7822,7.78705 11.5084,0.64364 z m 139.705,-10.2671 c 1.0739,-3.38363 -3.3437,-13.30778 -8.5594,-19.22834 l -3.7566,-4.2644 0.6348,11.24546 c 0.4952,8.77079 1.2076,11.66424 3.2376,13.14856 3.7415,2.73588 7.4136,2.34393 8.4436,-0.90128 z m -195.4395,-30.60007 c 0,-3.92259 -2.1882,-5.88874 -3.3075,-2.97187 -1.0454,2.72448 0.4957,8.09558 2.0477,7.13639 0.6929,-0.42825 1.2598,-2.30229 1.2598,-4.16452 z m 13.9732,-12.63896 c 0.5681,-4.97643 -1.8902,-6.81391 -6.3796,-4.76847 -5.6579,2.57796 -3.1614,10.17882 3.0509,9.28846 1.973,-0.28277 3.0049,-1.6841 3.3287,-4.51999 z m -11.767,-12.46989 c 0.9602,-3.02531 -3.0887,-8.79645 -5.239,-7.46748 -1.3866,0.85695 -1.6926,9.6087 -0.3818,10.91947 1.4646,1.46456 4.6889,-0.51564 5.6208,-3.45199 z m 0.3205,-17.61575 c 3.8562,-2.70097 3.9378,-4.16711 0.4768,-8.567 -5.8364,-7.41982 -4.7987,-23.5383 1.648,-25.59633 4.795,-1.53073 15.1059,-1.04897 17.3464,0.81049 1.4366,1.19223 2.7706,1.22749 4.8257,0.12765 1.5622,-0.83605 6.2407,-1.5299 10.3965,-1.54186 4.1559,-0.0114 8.4367,-0.57951 9.5129,-1.26118 1.1871,-0.75195 -7.8449,-1.64776 -22.9641,-2.27762 -13.7064,-0.57102 -25.6211,-0.60541 -26.477,-0.0764 -2.7621,1.70709 -1.6544,40.59511 1.1564,40.59511 0.5055,0 2.3408,-0.99576 4.0784,-2.21279 z m 14.481,-17.59429 c 2.2317,-4.17017 1.7739,-6.91322 -1.3178,-7.89448 -4.0734,-1.29286 -8.5825,1.64946 -8.5825,5.60038 0,5.3148 7.3696,7.0225 9.9003,2.2941 z m 56.2367,-6.32684 c 1.5422,0.0897 3.9884,0.66284 5.4359,1.2735 4.2209,1.78073 2.3438,-3.7715 -2.1227,-6.27843 -3.3474,-1.87888 -4.121,-1.84366 -7.4526,0.33927 -4.0039,2.62344 -4.9239,7.69491 -1.9407,10.69704 1.4247,1.43363 1.9255,0.99693 2.5263,-2.20328 0.536,-2.85413 1.5485,-3.94482 3.5538,-3.8281 z m 192.8079,-121.03558 c 1.551,-5.79906 -1.816,-10.61332 -7.4227,-10.61332 -5.6999,0 -6.6164,3.10054 -2.6114,8.83371 5.6386,8.07147 8.2286,8.53081 10.0341,1.77961 z m -5.5139,-22.00238 c 5.362,-4.21772 6.3676,-10.7199 2.3237,-15.02441 -1.7761,-1.89054 -4.3513,-3.43734 -5.7228,-3.43734 -3.1054,0 -6.9611,3.72124 -6.9611,6.71845 0,1.97537 0.3352,1.94768 2.7371,-0.22613 4.2217,-3.82055 7.8422,-2.3506 8.3912,3.40685 0.835,8.75789 -9.6064,12.05944 -15.2895,4.83453 -2.9764,-3.78386 -4.0384,-13.65871 -1.8405,-17.11415 0.584,-0.91835 5.2118,-3.79682 10.2838,-6.3966 6.6712,-3.41946 9.3475,-5.61151 9.6761,-7.92519 0.3718,-2.6183 -0.2209,-3.19829 -3.2689,-3.19829 -7.3806,0 -18.7576,7.99169 -23.032,16.17872 -3.1221,5.98004 -1.3225,15.86168 3.8263,21.01051 5.0106,5.01059 13.3399,5.5282 18.8766,1.17305 z m -64.376,-0.51051 c 0,-0.29029 -7.516,-5.0837 -16.7022,-10.65201 -9.1862,-5.5683 -24.698,-15.67799 -34.4705,-22.46597 -18.168,-12.61936 -19.5218,-11.73232 -2.6839,1.75848 19.1203,15.31935 53.8566,35.5456 53.8566,31.3595 z m 33.4696,-26.58526 c 0.5189,-0.83969 -0.3077,-2.91858 -1.8369,-4.61978 -4.6416,-5.16365 -5.0333,-6.68224 -2.4572,-9.52869 2.2803,-2.51971 2.2896,-3.09341 0.1393,-8.468 -4.0358,-10.08642 -2.7742,-17.66126 4.082,-24.50756 7.1975,-7.18708 18.0942,-6.94719 25.0999,0.55259 5.4582,5.84292 5.7163,15.28673 0.5589,20.44414 -4.747,4.74699 -12.4398,4.74699 -17.1868,0 -4.1857,-4.18568 -4.4214,-7.83781 -0.7949,-12.31633 2.3156,-2.85975 3.2622,-3.12735 6.7381,-1.90493 4.9038,1.72454 6.08,5.66767 2.0083,6.73245 -3.8778,1.01407 -3.7535,4.19348 0.1413,3.61403 7.4379,-1.10659 7.0236,-11.42541 -0.5872,-14.62551 -3.8111,-1.60242 -5.144,-1.59881 -8.279,0.0224 -4.448,2.30009 -7.6392,9.1975 -6.4491,13.939 1.3063,5.20442 11.4958,13.71379 16.4216,13.71379 7.8644,0 17.1626,-11.13961 17.1626,-20.56152 0,-4.51893 -8.2531,-13.84588 -15.1462,-17.11683 -9.2686,-4.39829 -22.1663,0.80271 -29.7814,12.00945 -5.8753,8.64612 -3.8476,28.96828 4.0147,40.23894 2.9107,4.17251 4.6333,4.83959 6.152,2.38233 z m -325.6931,325.17454 c -3.3036,-2.84167 -3.5991,-3.71027 -2.1704,-6.37981 2.5559,-4.77566 8.5887,-5.67798 11.7619,-1.7592 3.4231,4.22734 3.2844,6.52574 -0.5561,9.21574 -4.0965,2.86929 -4.5044,2.8207 -9.0354,-1.07673 z m 360.9014,-28.30375 c -0.7587,-0.99616 -3.1959,-5.00949 -5.4162,-8.91852 -2.2202,-3.90904 -11.7028,-18.94105 -21.0724,-33.40448 -34.969,-53.97997 -41.0444,-65.46951 -47.3035,-89.4573 -5.1448,-19.71682 -6.4701,-51.26792 -2.1537,-51.26792 0.6227,0 1.9453,2.71856 2.939,6.04124 3.1386,10.49334 12.6484,22.12036 22.0555,26.96592 7.7898,4.01246 20.8212,4.83489 30.7299,1.93942 4.3696,-1.27684 12.0455,-5.21376 17.0576,-8.74869 5.9736,-4.21309 9.25,-5.78068 9.5109,-4.55052 0.2188,1.03213 -3.0774,8.25753 -7.3249,16.0564 -4.2475,7.79888 -8.1477,15.61901 -8.6672,17.37807 -1.0761,3.64498 0.8789,4.23849 3.5117,1.06611 2.6884,-3.23921 9.417,-2.66342 12.0019,1.02702 6.5437,9.34239 -3.3389,21.36906 -11.3642,13.8297 -1.9082,-1.7926 -3.7854,-2.94328 -4.1717,-2.55706 -0.3862,0.38623 1.7687,5.81157 4.7885,12.05632 7.4034,15.3093 8.0609,17.57728 5.0958,17.57728 -3.8355,0 -11.6533,8.9352 -13.3584,15.26779 -1.868,6.93707 -1.0748,11.13411 6.8211,36.09102 7.957,25.15076 10.6058,39.23595 6.3203,33.6082 z m -22.7937,-64.00037 c 1.0524,-2.94877 -2.4745,-8.41792 -15.437,-23.93804 -6.7973,-8.13831 -14.9784,-18.50771 -18.1803,-23.0431 -6.47,-9.1644 -8.4276,-8.80067 -3.6452,0.67729 15.8229,31.35923 34.3705,54.40711 37.2625,46.30385 z m 10.3772,-24.49396 c 2.1554,-3.28954 2.1303,-3.83726 -0.3737,-8.12472 -1.6056,-2.74913 -8.9506,-8.86494 -18.27,-15.21248 -8.5716,-5.8383 -20.5423,-15.59453 -26.6012,-21.68054 -6.0591,-6.08602 -11.0165,-10.79428 -11.0165,-10.46284 0,3.34625 19.1318,30.96965 29.0183,41.898 15.3341,16.95012 22.6476,20.59638 27.2431,13.58258 z m -8.8339,-36.37692 c 8.4233,-6.62573 2.9855,-11.96271 -14.1409,-13.8788 -6.2766,-0.70223 -14.4149,-2.60505 -18.0849,-4.22847 -10.0834,-4.46038 -8.8281,-1.45495 3.6702,8.78639 8.0066,6.56077 18.095,12.22875 21.8036,12.24986 1.6536,0.009 4.6921,-1.30861 6.752,-2.92898 z m -326.6202,93.56317 c -2.2765,-4.10368 -9.3791,-14.81734 -15.7835,-23.80812 -16.7767,-23.5519 -16.246,-21.94074 -9.3293,-28.32622 3.1886,-2.94377 5.7976,-5.72873 5.7976,-6.18883 0,-3.34506 -3.4015,-8.41167 -6.4169,-9.55812 -3.5961,-1.36723 -3.6058,-1.41492 -1.2277,-6.01574 1.3185,-2.55065 7.4109,-10.82938 13.5388,-18.39716 6.1279,-7.56778 12.4889,-16.04327 14.1358,-18.83444 1.6469,-2.79115 3.9599,-5.07484 5.1401,-5.07484 3.0612,0 1.5913,5.13933 -6.0329,21.09334 -3.4892,7.30139 -6.3441,13.5013 -6.3441,13.77757 0,0.27627 2.7186,0.699 6.0413,0.93939 5.5148,0.39903 6.0828,0.80254 6.5186,4.63141 0.8263,7.26234 -5.203,9.30154 -11.5025,3.89024 -3.7627,-3.2323 -4.5965,-0.97238 -1.3324,3.61169 2.7249,3.82684 6.2707,6.19175 12.0923,8.06537 3.4321,1.10461 1.9615,3.13204 -4.7588,6.5605 -10.5979,5.40664 -10.716,10.23846 -0.8499,34.80098 7.1099,17.70095 9.1676,26.29794 6.2937,26.29568 -1.0127,-8e-4 -3.7038,-3.35901 -5.9802,-7.4627 z m -52.8234,2.14652 c -5.1147,-3.61842 -1.9258,-13.75769 4.0551,-12.89316 4.2311,0.61161 7.9383,7.40851 5.8555,10.73582 -1.6779,2.68045 -7.4081,3.92778 -9.9106,2.15734 z m 393.2424,-25.4356 c -4.84,-6.15302 -2.8078,-15.32067 3.943,-17.78864 2.756,-1.00747 4.1763,-0.37867 8.1735,3.61857 2.6609,2.66087 4.838,5.5193 4.838,6.35208 0,2.70177 -8.7486,11.56336 -11.4159,11.56336 -1.4259,0 -3.9182,-1.68543 -5.5386,-3.74537 z m -342.6053,-12.51555 c -2.2502,-2.71127 -1.3623,-9.38644 1.4854,-11.16827 1.2473,-0.78034 3.9658,-0.99258 6.0413,-0.47165 3.1706,0.79576 3.7737,1.72992 3.7737,5.84517 0,6.85413 -7.3102,10.60272 -11.3004,5.79475 z m -0.2649,-109.85209 c -1.7976,-2.90857 -7.0708,-9.46509 -11.7184,-14.57003 -8.9999,-9.88582 -19.3603,-24.83997 -19.3603,-27.94467 0,-1.03142 1.9,-2.85785 4.2223,-4.05873 7.8457,-4.05719 9.2348,-10.82934 3.5958,-17.5309 -1.9545,-2.32281 -3.5538,-4.78437 -3.5538,-5.47011 0,-0.68576 4.7622,-5.55989 10.5827,-10.83142 5.8204,-5.27152 13.3364,-13.84334 16.7022,-19.04849 9.497,-14.68693 8.8744,-2.74504 -0.6653,12.75887 -4.2431,6.89598 -4.3926,10.07375 -0.3147,6.68936 4.8288,-4.00746 12.6245,4.19099 10.1405,10.66425 -1.3204,3.441 -8.1667,2.5228 -12.558,-1.68424 l -3.9868,-3.8196 0,3.32723 c 0,2.05926 2.1668,5.32761 5.6858,8.57639 3.1273,2.88704 5.6859,5.65922 5.6859,6.16041 0,0.5012 -2.5315,2.50935 -5.6256,4.46257 -4.1036,2.59051 -6.0115,4.99895 -7.052,8.902 -1.8797,7.05186 -0.4741,12.41649 7.5205,28.70172 6.2403,12.71182 8.1626,20.0037 5.2731,20.0037 -0.7181,0 -2.7764,-2.37972 -4.5739,-5.28831 z m -4.6442,-34.74788 c -2.9481,-4.20908 -2.8617,-5.89579 0.4561,-8.89832 3.9088,-3.53736 9.0057,-2.36667 10.695,2.45648 2.7658,7.8959 -6.417,13.20063 -11.1511,6.44184 z m 1.5044,-104.70998 c -5.6577,-6.25169 0.5883,-17.08423 7.3984,-12.83123 4.0078,2.50291 5.0684,7.89962 2.3637,12.02758 -2.6599,4.05944 -6.5275,4.37784 -9.7621,0.80365 z m 92.3667,-4.61101 c -4.5824,-3.60451 -4.9927,-10.0212 -0.9024,-14.11151 5.153,-5.15298 11.6254,-2.87027 14.2289,5.01828 3.2667,9.89838 -5.0706,15.58731 -13.3265,9.09323 z"
       style="fill:#000000" />
  </g>
</svg>
