<?xml version="1.0" encoding="UTF-8" standalone="no"?>
<svg
   xmlns:dc="http://purl.org/dc/elements/1.1/"
   xmlns:cc="http://creativecommons.org/ns#"
   xmlns:rdf="http://www.w3.org/1999/02/22-rdf-syntax-ns#"
   xmlns:svg="http://www.w3.org/2000/svg"
   xmlns="http://www.w3.org/2000/svg"
   version="1.1"
   id="svg4208"
   viewBox="0 0 200 200"
   height="200"
   width="200">
  <defs
     id="defs4210">
    <style
       type="text/css"
       id="style4220"><![CDATA[
    .fil0 {fill:#6699FF}
   ]]></style>
    <style
       type="text/css"
       id="style4242"><![CDATA[
    .fil0 {fill:#00A859}
   ]]></style>
    <style
       type="text/css"
       id="style4262"><![CDATA[
    .fil0 {fill:#F6AFCE}
   ]]></style>
  </defs>
  <metadata
     id="metadata4213">
    <rdf:RDF>
      <cc:Work
         rdf:about="">
        <dc:format>image/svg+xml</dc:format>
        <dc:type
           rdf:resource="http://purl.org/dc/dcmitype/StillImage" />
        <dc:title></dc:title>
      </cc:Work>
    </rdf:RDF>
  </metadata>
  <g
     transform="translate(0,-852.36216)"
     id="layer1">
    <g
       transform="matrix(0.02767251,0,0,0.02767251,3.8384096,897.63016)"
       id="g4231"
       style="clip-rule:evenodd;fill-rule:evenodd;image-rendering:optimizeQuality;shape-rendering:geometricPrecision;text-rendering:geometricPrecision">
      <g
         id="Layer_x0020_1">
        <metadata
           id="CorelCorpID_0Corel-Layer" />
      </g>
    </g>
    <g
       transform="matrix(0.03079351,0,0,0.03049159,2.0490101,871.66225)"
       id="g4273"
       style="clip-rule:evenodd;fill-rule:evenodd;image-rendering:optimizeQuality;shape-rendering:geometricPrecision;text-rendering:geometricPrecision">
      <g
         id="Layer_x0020_1-6">
        <metadata
           id="CorelCorpID_0Corel-Layer-7" />
        <path
           style="fill:#f6afce"
           class="fil0"
           d="m 1,490 c 0,56 -1,119 0,187 l 19,4661 c 1,122 16,225 25,303 l 5482,-8 c 599,0 609,-521 -71,-521 l -4856,0 -9,-1247 647,-577 c 455,117 492,158 909,-105 l 591.9413,208.1783 c 36.2028,261.1476 294.3025,679.1333 780.4404,598.6537 482.9345,-79.921 533.2107,-635.6609 497.7122,-794.2265 L 5382,1693 C 6462,1834 6533,859 6017,523 5423,136 4712,795 5157,1509 L 3816.0587,2893.2377 c -551,-329 -811.1174,-18.9406 -990.1174,189.0594 L 2287,2865 C 2280,1681 689,1792 1065,3108 L 555,3464 C 554.98695,2383.5314 554.96085,222.59429 554.96085,222.59429 404.89235,-63.167998 -2,36 -2,489 Z"
           id="path4266" />
      </g>
    </g>
  </g>
</svg>
