<?xml version="1.0" encoding="UTF-8" standalone="no"?>
<svg
   xmlns:dc="http://purl.org/dc/elements/1.1/"
   xmlns:cc="http://creativecommons.org/ns#"
   xmlns:rdf="http://www.w3.org/1999/02/22-rdf-syntax-ns#"
   xmlns:svg="http://www.w3.org/2000/svg"
   xmlns="http://www.w3.org/2000/svg"
   xml:space="preserve"
   width="500"
   height="322.76715"
   version="1.1"
   style="clip-rule:evenodd;fill-rule:evenodd;image-rendering:optimizeQuality;shape-rendering:geometricPrecision;text-rendering:geometricPrecision"
   viewBox="0 0 731.93643 468.6579"
   id="svg2"><metadata
     id="metadata14"><rdf:RDF><cc:Work
         rdf:about=""><dc:format>image/svg+xml</dc:format><dc:type
           rdf:resource="http://purl.org/dc/dcmitype/StillImage" /><dc:title></dc:title></cc:Work></rdf:RDF></metadata><defs
     id="defs4"><style
       type="text/css"
       id="style6"><![CDATA[
    .fil0 {fill:black}
   ]]></style></defs><g
     transform="translate(10.765955,-236.49645)"
     id="g3343"><g
       id="g3355" /></g><path
     style="fill:#6598fe"
     d="m 585.53644,468.44118 c -9.9117,-2.11891 -31.41289,-9.45988 -56.5263,-19.29925 -15.75629,-6.17333 -28.20373,-12.28478 -63.24552,-31.0522 -10.71849,-5.7405 -19.31151,-8.90884 -36.15431,-13.33028 -36.30249,-9.52995 -43.01714,-13.97094 -43.01714,-28.45094 0,-12.61113 10.19333,-18.93062 35.28325,-21.87435 16.29566,-1.91192 51.2582,-0.0146 71.1624,3.86527 5.65265,1.10135 10.3639,1.90388 10.46942,1.78334 0.10563,-0.12056 -29.11454,-32.18479 -64.93353,-71.25386 -44.35662,-48.3814 -66.30717,-73.40611 -68.83104,-78.47081 -5.01692,-10.06761 -5.17675,-23.32897 -0.36708,-30.466 4.44806,-6.6004 12.1813,-11.63073 17.8804,-11.63073 10.30276,0 23.27433,11.68696 72.01825,64.88568 l 27.83836,30.38259 1.6009,-8.01728 c 2.04307,-10.23187 8.42908,-19.28821 16.66807,-23.63792 8.48717,-4.48065 16.78354,-4.40132 25.94815,0.24805 3.97258,2.01539 7.30294,3.66713 7.40077,3.67051 0.098,0.003 0.60558,-3.21769 1.12826,-7.15796 1.04204,-7.85531 5.29826,-15.1581 11.52101,-19.76773 5.13704,-3.80539 18.3503,-4.76376 28.40435,-2.06026 l 7.46251,2.00665 2.51884,-7.09197 c 2.84093,-7.99874 9.60309,-16.41602 15.73595,-19.58743 5.63346,-2.91316 16.98802,-2.61689 24.13543,0.62976 8.90288,4.04408 21.90644,16.87639 45.8725,45.26835 17.32148,20.52023 23.23074,28.72272 29.77361,41.32749 17.13041,33.00184 26.42103,60.00337 26.64198,77.42986 0.16424,12.9754 -1.45384,15.82886 -16.15854,28.48998 -6.0961,5.24886 -26.32967,23.36316 -44.96357,40.25396 -40.71542,36.90686 -50.08915,44.76239 -59.21465,49.62422 -9.03787,4.81505 -15.23404,5.59591 -26.05266,3.28311 z M 161.00626,435.52175 c -38.11386,-0.71856 -41.56835,-0.99891 -44.44764,-3.60688 -2.8429,-2.57511 -6.62596,-12.81617 -7.74665,-20.97105 -0.44487,-3.23799 -0.52224,-3.24538 -43.024059,-4.12931 -44.440148,-0.92417 -50.674549,-1.65676 -57.0981039,-6.70959 -9.39744417,-7.39203 -9.02685567,-2.68637 -8.4297627,-107.04516 0.37290336,-65.14475 1.0601352,-96.25996 2.2023064,-99.6985 2.9528983,-8.88914 7.3211617,-10.76744 28.4128952,-12.21714 10.319248,-0.70927 31.754442,-1.09008 47.633757,-0.84622 l 28.871517,0.44338 0.49281,-21.28914 c 0.56453,-24.38583 2.61114,-30.77778 11.50448,-35.93041 4.94993,-2.86793 7.9001,-2.99391 80.29134,-3.42903 l 75.15257,-0.45172 -5.41229,10.989 -5.41233,10.98897 -68.04819,0.10709 -68.04822,0.10708 0.50502,123.33015 0.50508,123.33019 100.94507,0 100.94508,0 0,-43.31239 c 0,-23.82182 0.49552,-43.30263 1.10117,-43.29076 0.60562,0.011 5.06532,1.25931 9.91043,2.77202 l 8.80932,2.75039 0,58.78707 c 0,57.36558 -0.0743,58.88732 -3.07394,62.93071 -1.69068,2.27895 -5.32452,4.93212 -8.07521,5.89597 -5.25373,1.84089 -94.01983,2.08707 -178.46645,0.49492 z m -53.3742,-140.25967 0,-77.08135 -37.072441,0.011 c -20.389869,0.003 -41.532221,0.43166 -46.982925,0.94642 l -9.910416,0.93598 0,75.32756 0,75.32757 8.442187,0.52974 c 4.643235,0.29103 25.785574,0.65468 46.982931,0.80737 l 38.540664,0.27791 0,-77.08135 z m 263.5448,-9.00089 c -8.95095,-1.38719 -20.6413,-5.32522 -30.0107,-10.10935 -48.42598,-24.72691 -65.82699,-85.42484 -37.99822,-132.54473 6.56324,-11.11293 21.9239,-26.23478 33.54183,-33.02029 15.91282,-9.29404 27.13655,-12.076066 48.41517,-12.000586 16.02348,0.0568 19.71941,0.556 29.12148,3.933626 15.19937,5.46023 25.78648,12.12663 36.88566,23.22585 11.10368,11.10364 17.77087,21.69458 23.22028,36.88567 3.34817,9.33347 3.86729,13.11702 3.89486,28.38736 0.0182,10.03775 -0.76796,20.31292 -1.82708,23.88043 l -1.85899,6.26193 -12.95793,-14.81831 c -12.65873,-14.4762 -12.97635,-15.02253 -13.76041,-23.66854 -2.32838,-25.67848 -25.71187,-49.21707 -53.73596,-54.09236 -26.95647,-4.68967 -56.15679,10.89463 -68.09234,36.34101 -3.99934,8.52651 -4.74737,11.96829 -5.24324,24.1237 -0.47963,11.76082 -0.0255,15.84205 2.66919,23.93714 6.44439,19.36545 20.90898,33.62239 40.96758,40.37966 4.88322,1.64504 11.14531,2.99096 13.91583,2.99096 4.52299,0 6.24236,1.3857 16.84146,13.57265 8.88561,10.21669 11.2986,13.85555 9.75927,14.71701 -2.46013,1.37677 -27.54323,2.57871 -33.74774,1.61717 z M 542.22408,103.61378 c 0,-57.481296 -0.39938,-73.581376 -1.83527,-74.029426 -1.00941,-0.3147 -105.62707,-0.89391 -232.48365,-1.28655 l -230.648287,-0.71395 -1.043064,65.52499 c -0.573673,36.038766 -1.391528,65.874306 -1.817399,66.301186 -0.425783,0.42679 -6.558758,1.00308 -13.62858,1.2804 l -12.854122,0.50418 -0.973393,-40.01751 c -0.535312,-22.009666 -0.972284,-55.601746 -0.97101,-74.649136 0.0021,-30.03022 0.343474,-35.31412 2.569358,-39.7686897 5.140685,-10.28705 -14.861009,-9.54507 257.302597,-9.54507 l 245.92621,0 7.31645,3.67055001 c 4.6414,2.32848999 8.39911,5.54939999 10.27754,8.80927999 2.86976,4.9803797 2.96103,7.5952697 2.96103,84.8430497 0,69.250706 -0.28883,79.886846 -2.20231,81.096476 -1.21127,0.76566 -7.98341,1.40227 -15.04924,1.41466 l -12.84686,0.0255 0,-73.45692 z"
     id="path3396" /></svg>