<?xml version="1.0" encoding="UTF-8" standalone="no"?>
<svg
   xmlns:dc="http://purl.org/dc/elements/1.1/"
   xmlns:cc="http://creativecommons.org/ns#"
   xmlns:rdf="http://www.w3.org/1999/02/22-rdf-syntax-ns#"
   xmlns:svg="http://www.w3.org/2000/svg"
   xmlns="http://www.w3.org/2000/svg"
   version="1.1"
   id="svg4208"
   viewBox="0 0 200 200"
   height="200"
   width="200">
  <defs
     id="defs4210">
    <style
       type="text/css"
       id="style4220"><![CDATA[
    .fil0 {fill:#6699FF}
   ]]></style>
    <style
       type="text/css"
       id="style4242"><![CDATA[
    .fil0 {fill:#00A859}
   ]]></style>
  </defs>
  <metadata
     id="metadata4213">
    <rdf:RDF>
      <cc:Work
         rdf:about="">
        <dc:format>image/svg+xml</dc:format>
        <dc:type
           rdf:resource="http://purl.org/dc/dcmitype/StillImage" />
        <dc:title></dc:title>
      </cc:Work>
    </rdf:RDF>
  </metadata>
  <g
     transform="translate(0,-852.36216)"
     id="layer1">
    <g
       transform="matrix(0.02767251,0,0,0.02767251,3.8384096,897.63016)"
       id="g4231"
       style="clip-rule:evenodd;fill-rule:evenodd;image-rendering:optimizeQuality;shape-rendering:geometricPrecision;text-rendering:geometricPrecision">
      <g
         id="Layer_x0020_1">
        <metadata
           id="CorelCorpID_0Corel-Layer" />
      </g>
    </g>
    <g
       transform="matrix(0.01279799,0,0,0.01279799,1.369789,903.01385)"
       id="g4253"
       style="clip-rule:evenodd;fill-rule:evenodd;image-rendering:optimizeQuality;shape-rendering:geometricPrecision;text-rendering:geometricPrecision">
      <g
         id="Layer_x0020_1-5">
        <metadata
           id="CorelCorpID_0Corel-Layer-1" />
        <path
           style="fill:#00a859"
           class="fil0"
           d="m 402,357 -4,4200 -145,0 C 22,4557 -1,4689 0,4952 l 19,3536 c 0,543 907,357 1891,357 509,0 384,-854 384,-1787 l 6535,0 0,1787 6384,0 c 198,0 256,-191 255,-447 l -10,-1725 c -1,-137 -123,-210 -229,-219 -378,-32 -1018,-17 -2360,-17 l 0,-3221 c 0,-206 -60,-268 -258,-268 l -1013,0 -21,-2681 c 0,-206 -60,-268 -258,-268 L 746,-1 C 545,-1 402,147 402,356 Z m 9347,4521 c 0,180 194,132 194,24 0,-145 -194,-123 -194,-24 z m 1288,603 c 0,404 -455,618 -668,279 -87,-138 -117,-337 -66,-532 96,-363 463,-408 638,-168 94,128 96,264 96,421 z m -923,-47 c 0,349 232,636 569,602 90,-9 133,-7 221,-54 361,-193 376,-741 169,-1012 -128,-167 -270,-187 -458,-187 -297,0 -501,304 -501,650 z m 1253,-319 c 0,398 583,290 541,621 -29,228 -331,209 -463,138 -26,-14 -19,-17 -55,-25 -15,32 -33,84 -34,130 194,47 194,98 459,39 252,-56 317,-374 172,-540 -155,-179 -461,-158 -461,-374 0,-236 320,-217 445,-130 19,-38 35,-83 46,-130 -226,-124 -650,-71 -650,272 z m -1595,911 148,0 0,-875 -148,0 0,875 z m 2699,1366 c 0,131 141,96 141,17 0,-106 -141,-90 -141,-17 z m 940,440 c 0,295 -332,451 -487,203 -63,-101 -86,-246 -48,-388 70,-265 338,-298 465,-123 68,94 70,192 70,307 z m -674,-35 c 0,254 169,464 415,439 66,-7 97,-5 161,-39 263,-141 274,-541 123,-738 -93,-122 -197,-137 -334,-137 -217,0 -366,222 -366,475 z m 915,-233 c 0,290 425,212 395,453 -21,167 -241,152 -338,101 -19,-10 -14,-12 -40,-19 -11,23 -24,61 -25,95 141,34 142,71 335,28 184,-41 231,-273 126,-394 -113,-130 -336,-115 -336,-273 0,-173 233,-158 324,-95 14,-28 26,-61 33,-95 -165,-91 -474,-52 -474,198 z m -1164,664 108,0 0,-639 -108,0 0,639 z M 1346,5702 c -200,-52 -200,-53 -401,0 -24,-32 -67,-144 -92,-138 -32,7 47,121 60,149 -67,77 -207,107 -239,399 l 943,3 c -24,-224 -90,-273 -219,-383 -14,-12 -10,-8 -19,-19 25,-56 78,-112 61,-149 -30,-3 -64,99 -93,138 z m 221,1254 c -28,22 -86,28 -122,25 -8,0 -17,0 -25,0 2,124 41,347 -101,348 -141,2 -112,-164 -106,-348 l -142,0 c 6,185 34,350 -106,348 -141,-2 -104,-219 -101,-344 -63,0 -76,2 -98,-7 -45,-11 -68,-29 -77,-77 l -9,-739 934,-2 c -3,238 -4,477 -6,715 0,43 -12,45 -40,81 z M 924,5861 c 7,-20 22,-34 46,-34 24,0 49,23 49,51 0,28 -22,51 -49,51 -27,0 -49,-34 -49,-51 0,-12 0,-8 3,-17 z m 405,67 c -27,0 -49,-23 -49,-51 0,-28 25,-51 49,-51 69,0 57,101 0,101 z m 527,800 c 12,-35 5,-375 5,-441 0,-75 -8,-125 -66,-149 -200,-83 -145,294 -145,505 0,236 181,159 205,85 z M 431,6703 c 8,109 204,162 209,-36 3,-109 10,-342 -2,-441 -16,-132 -205,-143 -208,35 -3,127 -9,318 1,441 z m 3926,2141 c 920,0 1840,6 2760,6 1302,0 29,82 -9,-1704 -2779,0 -2083,-177 -2323,892 -129,578 -312,354 -428,806 z M 5500,5448 c 757,0 1740,292 2493,357 l 0,-2234 -2493,0 0,1876 z m 0,-3753 0,1698 2235,0 c 449,0 258,-947 258,-2234 l -1999,246 c -288,37 -494,-30 -494,290 z m -1977,89 0,1608 1805,0 0,-1876 c -547,47 -1256,255 -1805,268 z m 0,3127 c 0,360 488,287 799,331 414,58 587,116 1006,116 l 0,-1787 -1805,0 0,1340 z M 914,4554 c 12,1 935,2 946,4 556,61 433,380 433,1873 l 6535,0 0,-3217 c 0,-149 -3,-218 422,-249 513,-37 1689,-19 1918,-19 l -21,-2435 -10229,0 -4,4043 z m 10773,4110 3009,0 c 411,0 258,-599 258,-1698 0,-206 -60,-268 -258,-268 l -3009,0 0,1966 z m -2429,-625 2171,0 0,-1174 c 0,-192 -51,-399 161,-427 224,-30 772,11 935,-3 l 0,-3043 -3267,0 0,4647 z M 190,5001 l 0,3127 1891,0 0,-3127 c 0,-194 -112,-261 -342,-262 l -1291,-6 c -198,0 -258,62 -258,268 z"
           id="path4246" />
      </g>
    </g>
  </g>
</svg>
