<?xml version="1.0" encoding="UTF-8" standalone="no"?>
<svg
   xmlns:dc="http://purl.org/dc/elements/1.1/"
   xmlns:cc="http://creativecommons.org/ns#"
   xmlns:rdf="http://www.w3.org/1999/02/22-rdf-syntax-ns#"
   xmlns:svg="http://www.w3.org/2000/svg"
   xmlns="http://www.w3.org/2000/svg"
   version="1.1"
   id="svg4208"
   viewBox="0 0 200 200"
   height="200"
   width="200">
  <defs
     id="defs4210">
    <style
       type="text/css"
       id="style4220"><![CDATA[
    .fil0 {fill:#6699FF}
   ]]></style>
    <style
       type="text/css"
       id="style4242"><![CDATA[
    .fil0 {fill:#00A859}
   ]]></style>
    <style
       type="text/css"
       id="style4262"><![CDATA[
    .fil0 {fill:#F6AFCE}
   ]]></style>
    <style
       type="text/css"
       id="style4282"><![CDATA[
    .fil0 {fill:#00C7B9}
   ]]></style>
  </defs>
  <metadata
     id="metadata4213">
    <rdf:RDF>
      <cc:Work
         rdf:about="">
        <dc:format>image/svg+xml</dc:format>
        <dc:type
           rdf:resource="http://purl.org/dc/dcmitype/StillImage" />
        <dc:title></dc:title>
      </cc:Work>
    </rdf:RDF>
  </metadata>
  <g
     transform="translate(0,-852.36216)"
     id="layer1">
    <g
       transform="matrix(0.02767251,0,0,0.02767251,3.8384096,897.63016)"
       id="g4231"
       style="clip-rule:evenodd;fill-rule:evenodd;image-rendering:optimizeQuality;shape-rendering:geometricPrecision;text-rendering:geometricPrecision">
      <g
         id="Layer_x0020_1">
        <metadata
           id="CorelCorpID_0Corel-Layer" />
      </g>
    </g>
    <g
       transform="matrix(0.05509936,0,0,0.05509936,21.741253,858.52055)"
       id="g4293"
       style="clip-rule:evenodd;fill-rule:evenodd;image-rendering:optimizeQuality;shape-rendering:geometricPrecision;text-rendering:geometricPrecision">
      <g
         id="Layer_x0020_1-0">
        <metadata
           id="CorelCorpID_0Corel-Layer-5" />
        <path
           style="fill:#00c7b9"
           class="fil0"
           d="m 49,1164 c -8,21 -33,41 -39,75 -4,21 -10,45 -10,71 l 6,1560 c 0,401 -47,547 345,546 327,-3 556,1 698,-13 152,-15 204,-52 205,-247 -4,-247 -5,-683 -5,-1490 0,-114 7,-208 7,-284 -1,-166 -41,-258 -281,-254 l -819,12 c -41,1 -76,15 -108,26 z m 2668,1527 -9,-2462 -2069,0 2,648 -158,0 C 480,727 475,445 480,257 483,128 502,76 579,37 610,22 677,6 763,6 L 2552,2 c 376,-1 330,148 330,661 0,659 -1,1319 0,1978 1,434 43,572 -431,570 -324,-2 -649,4 -976,-2 l -1,-517 c 415,0 829,0 1243,0 z m -1045,125 c 67,0 122,55 122,122 0,67 -55,122 -122,122 -67,0 -122,-55 -122,-122 0,-67 55,-122 122,-122 z m 374,0 c 67,0 122,55 122,122 0,67 -55,122 -122,122 -67,0 -122,-55 -122,-122 0,-67 55,-122 122,-122 z M 617,3128 c 47,0 85,38 85,85 0,47 -38,85 -85,85 -47,0 -85,-38 -85,-85 0,-47 38,-85 85,-85 z m -496,-82 1013,0 -4,-1527 -1023,0 15,1527 z"
           id="path4286" />
      </g>
    </g>
  </g>
</svg>
